<svg width="101" height="19" viewBox="0 0 101 19" fill="none" xmlns="http://www.w3.org/2000/svg">
<circle cx="9.5" cy="9.5" r="9.5" fill="#FF1E10"/>
<path d="M31.767 5.004C32.6444 5.004 33.3677 5.11133 33.937 5.326C34.5064 5.54067 34.931 5.86733 35.211 6.306C35.491 6.73533 35.631 7.28133 35.631 7.944C35.631 8.42933 35.5377 8.84467 35.351 9.19C35.1737 9.53533 34.9404 9.82467 34.651 10.058C34.3617 10.282 34.049 10.464 33.713 10.604L36.583 15H34.567L32.173 11.052H30.717V15H28.925V5.004H31.767ZM31.655 6.502H30.717V9.582H31.711C32.2057 9.582 32.607 9.52133 32.915 9.4C33.223 9.27867 33.447 9.10133 33.587 8.868C33.7364 8.63467 33.811 8.34533 33.811 8C33.811 7.636 33.7317 7.34667 33.573 7.132C33.4144 6.908 33.1764 6.74933 32.859 6.656C32.551 6.55333 32.1497 6.502 31.655 6.502ZM40.8598 7.272C41.5412 7.272 42.1245 7.412 42.6098 7.692C43.1045 7.96267 43.4872 8.35467 43.7578 8.868C44.0285 9.372 44.1638 9.988 44.1638 10.716V11.612H39.1518C39.1705 12.3027 39.3618 12.8393 39.7258 13.222C40.0898 13.5953 40.5938 13.782 41.2378 13.782C41.7325 13.782 42.1712 13.7353 42.5538 13.642C42.9458 13.5393 43.3472 13.3947 43.7578 13.208V14.622C43.3845 14.7993 42.9972 14.93 42.5958 15.014C42.1945 15.098 41.7138 15.14 41.1538 15.14C40.4165 15.14 39.7585 15 39.1798 14.72C38.6105 14.4307 38.1625 13.9967 37.8358 13.418C37.5185 12.8393 37.3598 12.1207 37.3598 11.262C37.3598 10.394 37.5045 9.666 37.7938 9.078C38.0925 8.48067 38.5032 8.03267 39.0258 7.734C39.5485 7.426 40.1598 7.272 40.8598 7.272ZM40.8598 8.574C40.3932 8.574 40.0105 8.728 39.7118 9.036C39.4225 9.33467 39.2498 9.78267 39.1938 10.38H42.4558C42.4558 10.0253 42.3952 9.71267 42.2738 9.442C42.1618 9.17133 41.9892 8.96133 41.7558 8.812C41.5225 8.65333 41.2238 8.574 40.8598 8.574ZM49.0086 15.14C48.2899 15.14 47.6646 15.0047 47.1326 14.734C46.6099 14.454 46.2039 14.0293 45.9146 13.46C45.6346 12.8813 45.4946 12.144 45.4946 11.248C45.4946 10.3147 45.6486 9.55867 45.9566 8.98C46.2739 8.392 46.7079 7.96267 47.2586 7.692C47.8093 7.412 48.4393 7.272 49.1486 7.272C49.6246 7.272 50.0493 7.31867 50.4226 7.412C50.7959 7.50533 51.1133 7.61733 51.3746 7.748L50.8566 9.134C50.5673 9.022 50.2779 8.92867 49.9886 8.854C49.6993 8.77 49.4193 8.728 49.1486 8.728C48.7286 8.728 48.3786 8.82133 48.0986 9.008C47.8279 9.19467 47.6273 9.47467 47.4966 9.848C47.3659 10.212 47.3006 10.674 47.3006 11.234C47.3006 11.7753 47.3659 12.228 47.4966 12.592C47.6366 12.956 47.8419 13.2313 48.1126 13.418C48.3833 13.5953 48.7193 13.684 49.1206 13.684C49.5499 13.684 49.9279 13.6327 50.2546 13.53C50.5813 13.4273 50.8893 13.2873 51.1786 13.11V14.636C50.8893 14.8133 50.5766 14.9393 50.2406 15.014C49.9139 15.098 49.5033 15.14 49.0086 15.14ZM54.7203 6.894C54.7203 7.19267 54.7063 7.48667 54.6783 7.776C54.6596 8.056 54.6409 8.266 54.6223 8.406H54.7343C54.8929 8.14467 55.0889 7.93467 55.3223 7.776C55.5556 7.608 55.8123 7.482 56.0923 7.398C56.3816 7.314 56.6803 7.272 56.9883 7.272C57.5576 7.272 58.0476 7.37 58.4583 7.566C58.8689 7.762 59.1816 8.06533 59.3963 8.476C59.6203 8.87733 59.7323 9.40467 59.7323 10.058V15H57.9683V10.408C57.9683 9.82933 57.8563 9.4 57.6323 9.12C57.4083 8.84 57.0536 8.7 56.5683 8.7C56.1016 8.7 55.7329 8.80267 55.4623 9.008C55.1916 9.204 55.0003 9.498 54.8883 9.89C54.7763 10.2727 54.7203 10.744 54.7203 11.304V15H52.9563V4.36H54.7203V6.894ZM64.9627 7.272C65.9427 7.272 66.6847 7.48667 67.1887 7.916C67.702 8.336 67.9587 8.99867 67.9587 9.904V15H66.7127L66.3627 13.95H66.3067C66.092 14.2207 65.868 14.4493 65.6347 14.636C65.4107 14.8133 65.1494 14.9393 64.8507 15.014C64.5614 15.098 64.2067 15.14 63.7867 15.14C63.3387 15.14 62.9327 15.056 62.5687 14.888C62.214 14.72 61.934 14.4633 61.7287 14.118C61.5234 13.7633 61.4207 13.32 61.4207 12.788C61.4207 12.004 61.7054 11.416 62.2747 11.024C62.8534 10.6227 63.726 10.4033 64.8927 10.366L66.2087 10.324V9.946C66.2087 9.46067 66.092 9.11533 65.8587 8.91C65.6254 8.70467 65.2987 8.602 64.8787 8.602C64.496 8.602 64.1274 8.658 63.7727 8.77C63.418 8.882 63.0727 9.01267 62.7367 9.162L62.1767 7.93C62.55 7.734 62.9747 7.57533 63.4507 7.454C63.936 7.33267 64.44 7.272 64.9627 7.272ZM65.2847 11.444C64.51 11.472 63.9734 11.6073 63.6747 11.85C63.376 12.0833 63.2267 12.4007 63.2267 12.802C63.2267 13.1567 63.334 13.4133 63.5487 13.572C63.7634 13.7307 64.0387 13.81 64.3747 13.81C64.888 13.81 65.322 13.6653 65.6767 13.376C66.0314 13.0773 66.2087 12.6387 66.2087 12.06V11.416L65.2847 11.444ZM75.3072 15H69.4832V13.922L73.2072 8.756H69.6932V7.412H75.1952V8.602L71.5412 13.642H75.3072V15ZM79.9334 7.272C80.9134 7.272 81.6554 7.48667 82.1594 7.916C82.6727 8.336 82.9294 8.99867 82.9294 9.904V15H81.6834L81.3334 13.95H81.2774C81.0627 14.2207 80.8387 14.4493 80.6054 14.636C80.3814 14.8133 80.1201 14.9393 79.8214 15.014C79.5321 15.098 79.1774 15.14 78.7574 15.14C78.3094 15.14 77.9034 15.056 77.5394 14.888C77.1847 14.72 76.9047 14.4633 76.6994 14.118C76.4941 13.7633 76.3914 13.32 76.3914 12.788C76.3914 12.004 76.6761 11.416 77.2454 11.024C77.8241 10.6227 78.6967 10.4033 79.8634 10.366L81.1794 10.324V9.946C81.1794 9.46067 81.0627 9.11533 80.8294 8.91C80.5961 8.70467 80.2694 8.602 79.8494 8.602C79.4667 8.602 79.0981 8.658 78.7434 8.77C78.3887 8.882 78.0434 9.01267 77.7074 9.162L77.1474 7.93C77.5207 7.734 77.9454 7.57533 78.4214 7.454C78.9067 7.33267 79.4107 7.272 79.9334 7.272ZM80.2554 11.444C79.4807 11.472 78.9441 11.6073 78.6454 11.85C78.3467 12.0833 78.1974 12.4007 78.1974 12.802C78.1974 13.1567 78.3047 13.4133 78.5194 13.572C78.7341 13.7307 79.0094 13.81 79.3454 13.81C79.8587 13.81 80.2927 13.6653 80.6474 13.376C81.0021 13.0773 81.1794 12.6387 81.1794 12.06V11.416L80.2554 11.444ZM87.6459 15.14C86.7685 15.14 86.0545 14.8133 85.5039 14.16C84.9625 13.4973 84.6919 12.5173 84.6919 11.22C84.6919 9.92267 84.9672 8.94267 85.5179 8.28C86.0685 7.608 86.7919 7.272 87.6879 7.272C88.0612 7.272 88.3879 7.32333 88.6679 7.426C88.9572 7.51933 89.2045 7.65 89.4099 7.818C89.6152 7.986 89.7879 8.17267 89.9279 8.378H90.0119C89.9839 8.24733 89.9559 8.04667 89.9279 7.776C89.8999 7.50533 89.8859 7.25333 89.8859 7.02V4.36H91.6499V15H90.2779L89.9559 14.006H89.8859C89.7459 14.2113 89.5732 14.4027 89.3679 14.58C89.1625 14.748 88.9199 14.8833 88.6399 14.986C88.3599 15.0887 88.0285 15.14 87.6459 15.14ZM88.1779 13.712C88.8312 13.712 89.2932 13.5253 89.5639 13.152C89.8345 12.7787 89.9699 12.214 89.9699 11.458V11.234C89.9699 10.4127 89.8392 9.78733 89.5779 9.358C89.3259 8.92867 88.8499 8.714 88.1499 8.714C87.6179 8.714 87.2072 8.938 86.9179 9.386C86.6285 9.82467 86.4839 10.4453 86.4839 11.248C86.4839 12.0507 86.6285 12.662 86.9179 13.082C87.2072 13.502 87.6272 13.712 88.1779 13.712ZM96.9275 7.272C97.9075 7.272 98.6495 7.48667 99.1535 7.916C99.6669 8.336 99.9235 8.99867 99.9235 9.904V15H98.6775L98.3275 13.95H98.2715C98.0569 14.2207 97.8329 14.4493 97.5995 14.636C97.3755 14.8133 97.1142 14.9393 96.8155 15.014C96.5262 15.098 96.1715 15.14 95.7515 15.14C95.3035 15.14 94.8975 15.056 94.5335 14.888C94.1789 14.72 93.8989 14.4633 93.6935 14.118C93.4882 13.7633 93.3855 13.32 93.3855 12.788C93.3855 12.004 93.6702 11.416 94.2395 11.024C94.8182 10.6227 95.6909 10.4033 96.8575 10.366L98.1735 10.324V9.946C98.1735 9.46067 98.0569 9.11533 97.8235 8.91C97.5902 8.70467 97.2635 8.602 96.8435 8.602C96.4609 8.602 96.0922 8.658 95.7375 8.77C95.3829 8.882 95.0375 9.01267 94.7015 9.162L94.1415 7.93C94.5149 7.734 94.9395 7.57533 95.4155 7.454C95.9009 7.33267 96.4049 7.272 96.9275 7.272ZM97.2495 11.444C96.4749 11.472 95.9382 11.6073 95.6395 11.85C95.3409 12.0833 95.1915 12.4007 95.1915 12.802C95.1915 13.1567 95.2989 13.4133 95.5135 13.572C95.7282 13.7307 96.0035 13.81 96.3395 13.81C96.8529 13.81 97.2869 13.6653 97.6415 13.376C97.9962 13.0773 98.1735 12.6387 98.1735 12.06V11.416L97.2495 11.444Z" fill="#0F0000"/>
</svg>
