<svg width="101" height="19" viewBox="0 0 101 19" fill="none" xmlns="http://www.w3.org/2000/svg">
<circle cx="9.5" cy="9.5" r="9.5" fill="#04C000"/>
<path d="M35.2592 15L34.3492 12.354H30.5832L29.6872 15H27.7832L31.4512 4.962H33.4952L37.1632 15H35.2592ZM33.0192 8.238C32.9819 8.10733 32.9259 7.93 32.8512 7.706C32.7765 7.482 32.7019 7.25333 32.6272 7.02C32.5619 6.77733 32.5105 6.57667 32.4732 6.418C32.4265 6.60467 32.3659 6.81933 32.2912 7.062C32.2259 7.30467 32.1605 7.53333 32.0952 7.748C32.0392 7.96267 31.9925 8.126 31.9552 8.238L31.0732 10.814H33.8872L33.0192 8.238ZM41.3758 15.14C40.6571 15.14 40.0318 15.0047 39.4998 14.734C38.9771 14.454 38.5711 14.0293 38.2818 13.46C38.0018 12.8813 37.8618 12.144 37.8618 11.248C37.8618 10.3147 38.0158 9.55867 38.3238 8.98C38.6411 8.392 39.0751 7.96267 39.6258 7.692C40.1764 7.412 40.8064 7.272 41.5158 7.272C41.9918 7.272 42.4164 7.31867 42.7898 7.412C43.1631 7.50533 43.4804 7.61733 43.7418 7.748L43.2238 9.134C42.9344 9.022 42.6451 8.92867 42.3558 8.854C42.0664 8.77 41.7864 8.728 41.5158 8.728C41.0958 8.728 40.7458 8.82133 40.4658 9.008C40.1951 9.19467 39.9944 9.47467 39.8638 9.848C39.7331 10.212 39.6678 10.674 39.6678 11.234C39.6678 11.7753 39.7331 12.228 39.8638 12.592C40.0038 12.956 40.2091 13.2313 40.4798 13.418C40.7504 13.5953 41.0864 13.684 41.4878 13.684C41.9171 13.684 42.2951 13.6327 42.6218 13.53C42.9484 13.4273 43.2564 13.2873 43.5458 13.11V14.636C43.2564 14.8133 42.9438 14.9393 42.6078 15.014C42.2811 15.098 41.8704 15.14 41.3758 15.14ZM48.3755 7.272C49.0568 7.272 49.6401 7.412 50.1255 7.692C50.6201 7.96267 51.0028 8.35467 51.2735 8.868C51.5441 9.372 51.6795 9.988 51.6795 10.716V11.612H46.6675C46.6861 12.3027 46.8775 12.8393 47.2415 13.222C47.6055 13.5953 48.1095 13.782 48.7535 13.782C49.2481 13.782 49.6868 13.7353 50.0695 13.642C50.4615 13.5393 50.8628 13.3947 51.2735 13.208V14.622C50.9001 14.7993 50.5128 14.93 50.1115 15.014C49.7101 15.098 49.2295 15.14 48.6695 15.14C47.9321 15.14 47.2741 15 46.6955 14.72C46.1261 14.4307 45.6781 13.9967 45.3515 13.418C45.0341 12.8393 44.8755 12.1207 44.8755 11.262C44.8755 10.394 45.0201 9.666 45.3095 9.078C45.6081 8.48067 46.0188 8.03267 46.5415 7.734C47.0641 7.426 47.6755 7.272 48.3755 7.272ZM48.3755 8.574C47.9088 8.574 47.5261 8.728 47.2275 9.036C46.9381 9.33467 46.7655 9.78267 46.7095 10.38H49.9715C49.9715 10.0253 49.9108 9.71267 49.7895 9.442C49.6775 9.17133 49.5048 8.96133 49.2715 8.812C49.0381 8.65333 48.7395 8.574 48.3755 8.574ZM57.4482 7.272C58.3349 7.272 59.0489 7.60333 59.5902 8.266C60.1316 8.91933 60.4022 9.89467 60.4022 11.192C60.4022 12.0507 60.2762 12.774 60.0242 13.362C59.7722 13.95 59.4222 14.3933 58.9742 14.692C58.5262 14.9907 58.0036 15.14 57.4062 15.14C57.0422 15.14 56.7202 15.0933 56.4402 15C56.1602 14.8973 55.9222 14.7713 55.7262 14.622C55.5302 14.4633 55.3622 14.2953 55.2222 14.118H55.1102C55.1476 14.286 55.1756 14.4773 55.1942 14.692C55.2129 14.8973 55.2222 15.0933 55.2222 15.28V18.36H53.4582V7.412H54.8862L55.1382 8.42H55.2222C55.3622 8.20533 55.5302 8.014 55.7262 7.846C55.9316 7.66867 56.1742 7.52867 56.4542 7.426C56.7436 7.32333 57.0749 7.272 57.4482 7.272ZM56.9442 8.7C56.5336 8.7 56.2022 8.784 55.9502 8.952C55.6982 9.11067 55.5162 9.358 55.4042 9.694C55.2922 10.03 55.2316 10.45 55.2222 10.954V11.178C55.2222 11.7193 55.2736 12.1767 55.3762 12.55C55.4882 12.9233 55.6702 13.208 55.9222 13.404C56.1836 13.6 56.5336 13.698 56.9722 13.698C57.3456 13.698 57.6489 13.5953 57.8822 13.39C58.1249 13.1847 58.3022 12.8953 58.4142 12.522C58.5356 12.1393 58.5962 11.6867 58.5962 11.164C58.5962 10.38 58.4609 9.77333 58.1902 9.344C57.9289 8.91467 57.5136 8.7 56.9442 8.7ZM65.1619 13.726C65.3859 13.726 65.6006 13.7073 65.8059 13.67C66.0112 13.6233 66.2026 13.572 66.3799 13.516V14.832C66.1932 14.916 65.9506 14.986 65.6519 15.042C65.3532 15.1073 65.0406 15.14 64.7139 15.14C64.2846 15.14 63.8926 15.07 63.5379 14.93C63.1926 14.7807 62.9126 14.5287 62.6979 14.174C62.4926 13.8193 62.3899 13.3247 62.3899 12.69V8.742H61.3679V7.972L62.4879 7.356L63.0479 5.746H64.1539V7.412H66.3099V8.742H64.1539V12.676C64.1539 13.0307 64.2472 13.2967 64.4339 13.474C64.6206 13.642 64.8632 13.726 65.1619 13.726ZM70.9334 7.272C71.9134 7.272 72.6554 7.48667 73.1594 7.916C73.6727 8.336 73.9294 8.99867 73.9294 9.904V15H72.6834L72.3334 13.95H72.2774C72.0627 14.2207 71.8387 14.4493 71.6054 14.636C71.3814 14.8133 71.1201 14.9393 70.8214 15.014C70.5321 15.098 70.1774 15.14 69.7574 15.14C69.3094 15.14 68.9034 15.056 68.5394 14.888C68.1847 14.72 67.9047 14.4633 67.6994 14.118C67.4941 13.7633 67.3914 13.32 67.3914 12.788C67.3914 12.004 67.6761 11.416 68.2454 11.024C68.8241 10.6227 69.6967 10.4033 70.8634 10.366L72.1794 10.324V9.946C72.1794 9.46067 72.0627 9.11533 71.8294 8.91C71.5961 8.70467 71.2694 8.602 70.8494 8.602C70.4667 8.602 70.0981 8.658 69.7434 8.77C69.3887 8.882 69.0434 9.01267 68.7074 9.162L68.1474 7.93C68.5207 7.734 68.9454 7.57533 69.4214 7.454C69.9067 7.33267 70.4107 7.272 70.9334 7.272ZM71.2554 11.444C70.4807 11.472 69.9441 11.6073 69.6454 11.85C69.3467 12.0833 69.1974 12.4007 69.1974 12.802C69.1974 13.1567 69.3047 13.4133 69.5194 13.572C69.7341 13.7307 70.0094 13.81 70.3454 13.81C70.8587 13.81 71.2927 13.6653 71.6474 13.376C72.0021 13.0773 72.1794 12.6387 72.1794 12.06V11.416L71.2554 11.444ZM78.6459 15.14C77.7685 15.14 77.0545 14.8133 76.5039 14.16C75.9625 13.4973 75.6919 12.5173 75.6919 11.22C75.6919 9.92267 75.9672 8.94267 76.5179 8.28C77.0685 7.608 77.7919 7.272 78.6879 7.272C79.0612 7.272 79.3879 7.32333 79.6679 7.426C79.9572 7.51933 80.2045 7.65 80.4099 7.818C80.6152 7.986 80.7879 8.17267 80.9279 8.378H81.0119C80.9839 8.24733 80.9559 8.04667 80.9279 7.776C80.8999 7.50533 80.8859 7.25333 80.8859 7.02V4.36H82.6499V15H81.2779L80.9559 14.006H80.8859C80.7459 14.2113 80.5732 14.4027 80.3679 14.58C80.1625 14.748 79.9199 14.8833 79.6399 14.986C79.3599 15.0887 79.0285 15.14 78.6459 15.14ZM79.1779 13.712C79.8312 13.712 80.2932 13.5253 80.5639 13.152C80.8345 12.7787 80.9699 12.214 80.9699 11.458V11.234C80.9699 10.4127 80.8392 9.78733 80.5779 9.358C80.3259 8.92867 79.8499 8.714 79.1499 8.714C78.6179 8.714 78.2072 8.938 77.9179 9.386C77.6285 9.82467 77.4839 10.4453 77.4839 11.248C77.4839 12.0507 77.6285 12.662 77.9179 13.082C78.2072 13.502 78.6272 13.712 79.1779 13.712ZM87.9275 7.272C88.9075 7.272 89.6495 7.48667 90.1535 7.916C90.6669 8.336 90.9235 8.99867 90.9235 9.904V15H89.6775L89.3275 13.95H89.2715C89.0569 14.2207 88.8329 14.4493 88.5995 14.636C88.3755 14.8133 88.1142 14.9393 87.8155 15.014C87.5262 15.098 87.1715 15.14 86.7515 15.14C86.3035 15.14 85.8975 15.056 85.5335 14.888C85.1789 14.72 84.8989 14.4633 84.6935 14.118C84.4882 13.7633 84.3855 13.32 84.3855 12.788C84.3855 12.004 84.6702 11.416 85.2395 11.024C85.8182 10.6227 86.6909 10.4033 87.8575 10.366L89.1735 10.324V9.946C89.1735 9.46067 89.0569 9.11533 88.8235 8.91C88.5902 8.70467 88.2635 8.602 87.8435 8.602C87.4609 8.602 87.0922 8.658 86.7375 8.77C86.3829 8.882 86.0375 9.01267 85.7015 9.162L85.1415 7.93C85.5149 7.734 85.9395 7.57533 86.4155 7.454C86.9009 7.33267 87.4049 7.272 87.9275 7.272ZM88.2495 11.444C87.4749 11.472 86.9382 11.6073 86.6395 11.85C86.3409 12.0833 86.1915 12.4007 86.1915 12.802C86.1915 13.1567 86.2989 13.4133 86.5135 13.572C86.7282 13.7307 87.0035 13.81 87.3395 13.81C87.8529 13.81 88.2869 13.6653 88.6415 13.376C88.9962 13.0773 89.1735 12.6387 89.1735 12.06V11.416L88.2495 11.444Z" fill="#0F0000"/>
</svg>
