<svg width="101" height="19" viewBox="0 0 101 19" fill="none" xmlns="http://www.w3.org/2000/svg">
<circle cx="9.5" cy="9.5" r="9.5" fill="#CFC9C9"/>
<path d="M31.7762 5.004C33.0735 5.004 34.0162 5.27467 34.6042 5.816C35.2015 6.35733 35.5002 7.104 35.5002 8.056C35.5002 8.48533 35.4349 8.896 35.3042 9.288C35.1735 9.67067 34.9542 10.016 34.6462 10.324C34.3382 10.632 33.9322 10.8747 33.4282 11.052C32.9335 11.2293 32.3175 11.318 31.5802 11.318H30.5862V15H28.7942V5.004H31.7762ZM31.6642 6.488H30.5862V9.834H31.3982C31.8835 9.834 32.2942 9.778 32.6302 9.666C32.9755 9.54467 33.2369 9.358 33.4142 9.106C33.5915 8.854 33.6802 8.52733 33.6802 8.126C33.6802 7.57533 33.5169 7.16467 33.1902 6.894C32.8635 6.62333 32.3549 6.488 31.6642 6.488ZM40.3462 7.272C41.0275 7.272 41.6108 7.412 42.0962 7.692C42.5908 7.96267 42.9735 8.35467 43.2442 8.868C43.5148 9.372 43.6502 9.988 43.6502 10.716V11.612H38.6382C38.6568 12.3027 38.8482 12.8393 39.2122 13.222C39.5762 13.5953 40.0802 13.782 40.7242 13.782C41.2188 13.782 41.6575 13.7353 42.0402 13.642C42.4322 13.5393 42.8335 13.3947 43.2442 13.208V14.622C42.8708 14.7993 42.4835 14.93 42.0822 15.014C41.6808 15.098 41.2002 15.14 40.6402 15.14C39.9028 15.14 39.2448 15 38.6662 14.72C38.0968 14.4307 37.6488 13.9967 37.3222 13.418C37.0048 12.8393 36.8462 12.1207 36.8462 11.262C36.8462 10.394 36.9908 9.666 37.2802 9.078C37.5788 8.48067 37.9895 8.03267 38.5122 7.734C39.0348 7.426 39.6462 7.272 40.3462 7.272ZM40.3462 8.574C39.8795 8.574 39.4968 8.728 39.1982 9.036C38.9088 9.33467 38.7362 9.78267 38.6802 10.38H41.9422C41.9422 10.0253 41.8815 9.71267 41.7602 9.442C41.6482 9.17133 41.4755 8.96133 41.2422 8.812C41.0088 8.65333 40.7102 8.574 40.3462 8.574ZM49.4889 7.272C50.3383 7.272 51.0009 7.49133 51.4769 7.93C51.9623 8.36867 52.2049 9.078 52.2049 10.058V15H50.4409V10.408C50.4409 9.83867 50.3289 9.414 50.1049 9.134C49.8809 8.84467 49.5263 8.7 49.0409 8.7C48.3316 8.7 47.8463 8.924 47.5849 9.372C47.3236 9.81067 47.1929 10.45 47.1929 11.29V15H45.4289V7.412H46.7869L47.0389 8.406H47.1369C47.3049 8.14467 47.5103 7.93 47.7529 7.762C47.9956 7.594 48.2663 7.47267 48.5649 7.398C48.8636 7.314 49.1716 7.272 49.4889 7.272ZM56.9173 15.14C56.04 15.14 55.326 14.8133 54.7753 14.16C54.234 13.4973 53.9633 12.5173 53.9633 11.22C53.9633 9.92267 54.2387 8.94267 54.7893 8.28C55.34 7.608 56.0633 7.272 56.9593 7.272C57.3327 7.272 57.6593 7.32333 57.9393 7.426C58.2287 7.51933 58.476 7.65 58.6813 7.818C58.8867 7.986 59.0593 8.17267 59.1993 8.378H59.2833C59.2553 8.24733 59.2273 8.04667 59.1993 7.776C59.1713 7.50533 59.1573 7.25333 59.1573 7.02V4.36H60.9213V15H59.5493L59.2273 14.006H59.1573C59.0173 14.2113 58.8447 14.4027 58.6393 14.58C58.434 14.748 58.1913 14.8833 57.9113 14.986C57.6313 15.0887 57.3 15.14 56.9173 15.14ZM57.4493 13.712C58.1027 13.712 58.5647 13.5253 58.8353 13.152C59.106 12.7787 59.2413 12.214 59.2413 11.458V11.234C59.2413 10.4127 59.1107 9.78733 58.8493 9.358C58.5973 8.92867 58.1213 8.714 57.4213 8.714C56.8893 8.714 56.4787 8.938 56.1893 9.386C55.9 9.82467 55.7553 10.4453 55.7553 11.248C55.7553 12.0507 55.9 12.662 56.1893 13.082C56.4787 13.502 56.8987 13.712 57.4493 13.712ZM64.939 7.412V15H63.175V7.412H64.939ZM64.057 4.486C64.3183 4.486 64.547 4.556 64.743 4.696C64.939 4.82667 65.037 5.06467 65.037 5.41C65.037 5.746 64.939 5.98867 64.743 6.138C64.547 6.278 64.3183 6.348 64.057 6.348C63.7863 6.348 63.553 6.278 63.357 6.138C63.1703 5.98867 63.077 5.746 63.077 5.41C63.077 5.06467 63.1703 4.82667 63.357 4.696C63.553 4.556 63.7863 4.486 64.057 4.486ZM70.2465 7.272C70.9279 7.272 71.5112 7.412 71.9965 7.692C72.4912 7.96267 72.8739 8.35467 73.1445 8.868C73.4152 9.372 73.5505 9.988 73.5505 10.716V11.612H68.5385C68.5572 12.3027 68.7485 12.8393 69.1125 13.222C69.4765 13.5953 69.9805 13.782 70.6245 13.782C71.1192 13.782 71.5579 13.7353 71.9405 13.642C72.3325 13.5393 72.7339 13.3947 73.1445 13.208V14.622C72.7712 14.7993 72.3839 14.93 71.9825 15.014C71.5812 15.098 71.1005 15.14 70.5405 15.14C69.8032 15.14 69.1452 15 68.5665 14.72C67.9972 14.4307 67.5492 13.9967 67.2225 13.418C66.9052 12.8393 66.7465 12.1207 66.7465 11.262C66.7465 10.394 66.8912 9.666 67.1805 9.078C67.4792 8.48067 67.8899 8.03267 68.4125 7.734C68.9352 7.426 69.5465 7.272 70.2465 7.272ZM70.2465 8.574C69.7799 8.574 69.3972 8.728 69.0985 9.036C68.8092 9.33467 68.6365 9.78267 68.5805 10.38H71.8425C71.8425 10.0253 71.7819 9.71267 71.6605 9.442C71.5485 9.17133 71.3759 8.96133 71.1425 8.812C70.9092 8.65333 70.6105 8.574 70.2465 8.574ZM79.3893 7.272C80.2386 7.272 80.9013 7.49133 81.3773 7.93C81.8626 8.36867 82.1053 9.078 82.1053 10.058V15H80.3413V10.408C80.3413 9.83867 80.2293 9.414 80.0053 9.134C79.7813 8.84467 79.4266 8.7 78.9413 8.7C78.232 8.7 77.7466 8.924 77.4853 9.372C77.224 9.81067 77.0933 10.45 77.0933 11.29V15H75.3293V7.412H76.6873L76.9393 8.406H77.0373C77.2053 8.14467 77.4106 7.93 77.6533 7.762C77.896 7.594 78.1666 7.47267 78.4653 7.398C78.764 7.314 79.072 7.272 79.3893 7.272ZM87.2517 13.726C87.4757 13.726 87.6904 13.7073 87.8957 13.67C88.1011 13.6233 88.2924 13.572 88.4697 13.516V14.832C88.2831 14.916 88.0404 14.986 87.7417 15.042C87.4431 15.1073 87.1304 15.14 86.8037 15.14C86.3744 15.14 85.9824 15.07 85.6277 14.93C85.2824 14.7807 85.0024 14.5287 84.7877 14.174C84.5824 13.8193 84.4797 13.3247 84.4797 12.69V8.742H83.4577V7.972L84.5777 7.356L85.1377 5.746H86.2437V7.412H88.3997V8.742H86.2437V12.676C86.2437 13.0307 86.3371 13.2967 86.5237 13.474C86.7104 13.642 86.9531 13.726 87.2517 13.726ZM93.0512 7.272C93.7326 7.272 94.3159 7.412 94.8012 7.692C95.2959 7.96267 95.6786 8.35467 95.9492 8.868C96.2199 9.372 96.3552 9.988 96.3552 10.716V11.612H91.3432C91.3619 12.3027 91.5532 12.8393 91.9172 13.222C92.2812 13.5953 92.7852 13.782 93.4292 13.782C93.9239 13.782 94.3626 13.7353 94.7452 13.642C95.1372 13.5393 95.5386 13.3947 95.9492 13.208V14.622C95.5759 14.7993 95.1886 14.93 94.7872 15.014C94.3859 15.098 93.9052 15.14 93.3452 15.14C92.6079 15.14 91.9499 15 91.3712 14.72C90.8019 14.4307 90.3539 13.9967 90.0272 13.418C89.7099 12.8393 89.5512 12.1207 89.5512 11.262C89.5512 10.394 89.6959 9.666 89.9852 9.078C90.2839 8.48067 90.6946 8.03267 91.2172 7.734C91.7399 7.426 92.3512 7.272 93.0512 7.272ZM93.0512 8.574C92.5846 8.574 92.2019 8.728 91.9032 9.036C91.6139 9.33467 91.4412 9.78267 91.3852 10.38H94.6472C94.6472 10.0253 94.5866 9.71267 94.4652 9.442C94.3532 9.17133 94.1806 8.96133 93.9472 8.812C93.7139 8.65333 93.4152 8.574 93.0512 8.574Z" fill="#0F0000"/>
</svg>
