<svg width="613" height="26" viewBox="0 0 613 26" fill="none" xmlns="http://www.w3.org/2000/svg">
<path d="M153.5 1V0.5H153H9C4.30558 0.5 0.5 4.30558 0.5 9V17C0.5 21.6944 4.30558 25.5 9 25.5H153H153.5V25V1Z" fill="#C10000"/>
<path d="M153.5 1V0.5H153H9C4.30558 0.5 0.5 4.30558 0.5 9V17C0.5 21.6944 4.30558 25.5 9 25.5H153H153.5V25V1Z" stroke="#C10000"/>
<path d="M60.2071 19H58.7671V8.84H55.1991V7.576H63.7591V8.84H60.2071V19ZM71.6207 14.696C71.6207 15.4107 71.5247 16.0453 71.3327 16.6C71.1514 17.144 70.8847 17.608 70.5327 17.992C70.1914 18.376 69.77 18.6693 69.2687 18.872C68.778 19.064 68.2287 19.16 67.6207 19.16C67.0554 19.16 66.5327 19.064 66.0527 18.872C65.5727 18.6693 65.1567 18.376 64.8047 17.992C64.4527 17.608 64.1754 17.144 63.9727 16.6C63.7807 16.0453 63.6847 15.4107 63.6847 14.696C63.6847 13.7467 63.8447 12.9467 64.1647 12.296C64.4847 11.6347 64.9434 11.1333 65.5407 10.792C66.138 10.44 66.8474 10.264 67.6687 10.264C68.4474 10.264 69.13 10.44 69.7167 10.792C70.314 11.1333 70.778 11.6347 71.1087 12.296C71.45 12.9467 71.6207 13.7467 71.6207 14.696ZM65.1407 14.696C65.1407 15.368 65.226 15.9547 65.3967 16.456C65.578 16.9467 65.8554 17.3253 66.2287 17.592C66.602 17.8587 67.0767 17.992 67.6527 17.992C68.2287 17.992 68.7034 17.8587 69.0767 17.592C69.45 17.3253 69.722 16.9467 69.8927 16.456C70.074 15.9547 70.1647 15.368 70.1647 14.696C70.1647 14.0133 70.074 13.432 69.8927 12.952C69.7114 12.472 69.434 12.104 69.0607 11.848C68.698 11.5813 68.2234 11.448 67.6367 11.448C66.762 11.448 66.1274 11.736 65.7327 12.312C65.338 12.888 65.1407 13.6827 65.1407 14.696ZM76.8922 19.16C75.8255 19.16 74.9722 18.792 74.3322 18.056C73.6922 17.3093 73.3722 16.2 73.3722 14.728C73.3722 13.256 73.6922 12.1467 74.3322 11.4C74.9829 10.6427 75.8415 10.264 76.9082 10.264C77.3562 10.264 77.7455 10.3227 78.0762 10.44C78.4069 10.5467 78.6949 10.696 78.9402 10.888C79.1855 11.08 79.3935 11.2933 79.5642 11.528H79.6602C79.6495 11.3893 79.6282 11.1867 79.5962 10.92C79.5749 10.6427 79.5642 10.424 79.5642 10.264V6.84H80.9722V19H79.8362L79.6282 17.848H79.5642C79.3935 18.0933 79.1855 18.3173 78.9402 18.52C78.6949 18.712 78.4015 18.8667 78.0602 18.984C77.7295 19.1013 77.3402 19.16 76.8922 19.16ZM77.1162 17.992C78.0229 17.992 78.6575 17.7467 79.0202 17.256C79.3935 16.7547 79.5802 16.0027 79.5802 15V14.744C79.5802 13.6773 79.4042 12.8613 79.0522 12.296C78.7002 11.72 78.0495 11.432 77.1002 11.432C76.3429 11.432 75.7722 11.736 75.3882 12.344C75.0149 12.9413 74.8282 13.7467 74.8282 14.76C74.8282 15.784 75.0149 16.5787 75.3882 17.144C75.7722 17.7093 76.3482 17.992 77.1162 17.992ZM86.9439 10.28C87.9893 10.28 88.7626 10.5093 89.2639 10.968C89.7653 11.4267 90.0159 12.1573 90.0159 13.16V19H88.9919L88.7199 17.784H88.6559C88.4106 18.0933 88.1546 18.3547 87.8879 18.568C87.6319 18.7707 87.3333 18.92 86.9919 19.016C86.6613 19.112 86.2559 19.16 85.7759 19.16C85.2639 19.16 84.7999 19.0693 84.3839 18.888C83.9786 18.7067 83.6586 18.4293 83.4239 18.056C83.1893 17.672 83.0719 17.192 83.0719 16.616C83.0719 15.7627 83.4079 15.1067 84.0799 14.648C84.7519 14.1787 85.7866 13.9227 87.1839 13.88L88.6399 13.832V13.32C88.6399 12.6053 88.4853 12.1093 88.1759 11.832C87.8666 11.5547 87.4293 11.416 86.8639 11.416C86.4159 11.416 85.9893 11.4853 85.5839 11.624C85.1786 11.752 84.7999 11.9013 84.4479 12.072L84.0159 11.016C84.3893 10.8133 84.8319 10.6427 85.3439 10.504C85.8559 10.3547 86.3893 10.28 86.9439 10.28ZM87.3599 14.856C86.2933 14.8987 85.5519 15.0693 85.1359 15.368C84.7306 15.6667 84.5279 16.088 84.5279 16.632C84.5279 17.112 84.6719 17.464 84.9599 17.688C85.2586 17.912 85.6373 18.024 86.0959 18.024C86.8213 18.024 87.4239 17.8267 87.9039 17.432C88.3839 17.0267 88.6239 16.408 88.6239 15.576V14.808L87.3599 14.856ZM98.2487 16.632C98.2487 17.1867 98.11 17.6507 97.8327 18.024C97.5554 18.3973 97.1607 18.68 96.6487 18.872C96.1367 19.064 95.5287 19.16 94.8247 19.16C94.2274 19.16 93.71 19.112 93.2727 19.016C92.846 18.92 92.4674 18.7867 92.1367 18.616V17.336C92.478 17.5067 92.8887 17.6667 93.3687 17.816C93.8594 17.9547 94.3554 18.024 94.8567 18.024C95.5714 18.024 96.0887 17.912 96.4087 17.688C96.7287 17.4533 96.8887 17.144 96.8887 16.76C96.8887 16.5467 96.83 16.3547 96.7127 16.184C96.5954 16.0133 96.382 15.8427 96.0727 15.672C95.774 15.5013 95.342 15.3093 94.7767 15.096C94.222 14.8827 93.7474 14.6693 93.3527 14.456C92.958 14.2427 92.654 13.9867 92.4407 13.688C92.2274 13.3893 92.1207 13.0053 92.1207 12.536C92.1207 11.8107 92.414 11.2507 93.0007 10.856C93.598 10.4613 94.3767 10.264 95.3367 10.264C95.8594 10.264 96.3447 10.3173 96.7927 10.424C97.2514 10.52 97.678 10.6587 98.0727 10.84L97.5927 11.96C97.358 11.8533 97.1074 11.7627 96.8407 11.688C96.5847 11.6027 96.3234 11.5387 96.0567 11.496C95.79 11.4427 95.518 11.416 95.2407 11.416C94.6647 11.416 94.222 11.512 93.9127 11.704C93.614 11.8853 93.4647 12.136 93.4647 12.456C93.4647 12.6907 93.534 12.8933 93.6727 13.064C93.8114 13.224 94.0407 13.384 94.3607 13.544C94.6914 13.6933 95.1287 13.8747 95.6727 14.088C96.2167 14.2907 96.6807 14.4987 97.0647 14.712C97.4487 14.9253 97.742 15.1867 97.9447 15.496C98.1474 15.7947 98.2487 16.1733 98.2487 16.632Z" fill="#FDFCFC"/>
<path d="M154 0.5H153.5V1V25V25.5H154H306H306.5V25V1V0.5H306H154Z" stroke="#C10000"/>
<path d="M199.72 19L198.344 15.464H193.816L192.456 19H191L195.464 7.528H196.76L201.208 19H199.72ZM196.632 10.728C196.6 10.6427 196.547 10.488 196.472 10.264C196.397 10.04 196.323 9.81067 196.248 9.576C196.184 9.33067 196.131 9.144 196.088 9.016C196.035 9.22933 195.976 9.448 195.912 9.672C195.859 9.88533 195.8 10.0827 195.736 10.264C195.683 10.4453 195.635 10.6 195.592 10.728L194.296 14.184H197.912L196.632 10.728ZM206.019 19.16C205.261 19.16 204.584 19.0053 203.987 18.696C203.4 18.3867 202.936 17.9067 202.595 17.256C202.264 16.6053 202.099 15.7733 202.099 14.76C202.099 13.704 202.275 12.8453 202.627 12.184C202.979 11.5227 203.453 11.0373 204.051 10.728C204.659 10.4187 205.347 10.264 206.115 10.264C206.552 10.264 206.973 10.312 207.379 10.408C207.784 10.4933 208.115 10.6 208.371 10.728L207.939 11.896C207.683 11.8 207.384 11.7093 207.043 11.624C206.701 11.5387 206.381 11.496 206.083 11.496C205.507 11.496 205.032 11.6187 204.659 11.864C204.285 12.1093 204.008 12.472 203.827 12.952C203.645 13.432 203.555 14.0293 203.555 14.744C203.555 15.4267 203.645 16.008 203.827 16.488C204.008 16.968 204.28 17.3307 204.643 17.576C205.005 17.8213 205.459 17.944 206.003 17.944C206.472 17.944 206.883 17.896 207.235 17.8C207.597 17.704 207.928 17.5867 208.227 17.448V18.696C207.939 18.8453 207.619 18.9573 207.267 19.032C206.925 19.1173 206.509 19.16 206.019 19.16ZM213.578 10.264C214.314 10.264 214.944 10.424 215.466 10.744C216 11.064 216.405 11.5173 216.682 12.104C216.97 12.68 217.114 13.3573 217.114 14.136V14.984H211.242C211.264 15.9547 211.509 16.696 211.978 17.208C212.458 17.7093 213.125 17.96 213.978 17.96C214.522 17.96 215.002 17.912 215.418 17.816C215.845 17.7093 216.282 17.56 216.73 17.368V18.6C216.293 18.792 215.861 18.9307 215.434 19.016C215.008 19.112 214.501 19.16 213.914 19.16C213.104 19.16 212.384 18.9947 211.754 18.664C211.136 18.3333 210.65 17.8427 210.298 17.192C209.957 16.5307 209.786 15.7253 209.786 14.776C209.786 13.8373 209.941 13.032 210.25 12.36C210.57 11.688 211.013 11.1707 211.578 10.808C212.154 10.4453 212.821 10.264 213.578 10.264ZM213.562 11.416C212.89 11.416 212.357 11.6347 211.962 12.072C211.578 12.4987 211.349 13.096 211.274 13.864H215.642C215.642 13.3733 215.568 12.9467 215.418 12.584C215.269 12.2213 215.04 11.9387 214.73 11.736C214.432 11.5227 214.042 11.416 213.562 11.416ZM223.378 10.264C224.434 10.264 225.282 10.632 225.922 11.368C226.572 12.104 226.898 13.2133 226.898 14.696C226.898 15.6667 226.748 16.488 226.45 17.16C226.161 17.8213 225.751 18.3227 225.218 18.664C224.695 18.9947 224.076 19.16 223.362 19.16C222.924 19.16 222.535 19.1013 222.194 18.984C221.852 18.8667 221.559 18.7173 221.314 18.536C221.079 18.344 220.876 18.136 220.706 17.912H220.61C220.631 18.0933 220.652 18.3227 220.674 18.6C220.695 18.8773 220.706 19.1173 220.706 19.32V22.84H219.298V10.424H220.45L220.642 11.592H220.706C220.876 11.3467 221.079 11.1227 221.314 10.92C221.559 10.7173 221.847 10.5573 222.178 10.44C222.519 10.3227 222.919 10.264 223.378 10.264ZM223.122 11.448C222.546 11.448 222.082 11.56 221.73 11.784C221.378 11.9973 221.122 12.3227 220.962 12.76C220.802 13.1973 220.716 13.752 220.706 14.424V14.696C220.706 15.4 220.78 15.9973 220.93 16.488C221.079 16.9787 221.33 17.352 221.682 17.608C222.044 17.864 222.535 17.992 223.154 17.992C223.676 17.992 224.103 17.848 224.434 17.56C224.775 17.272 225.026 16.8827 225.186 16.392C225.356 15.8907 225.442 15.32 225.442 14.68C225.442 13.6987 225.25 12.9147 224.866 12.328C224.492 11.7413 223.911 11.448 223.122 11.448ZM232.005 18.008C232.219 18.008 232.437 17.992 232.661 17.96C232.885 17.9173 233.067 17.8747 233.205 17.832V18.904C233.056 18.9787 232.843 19.0373 232.565 19.08C232.288 19.1333 232.021 19.16 231.765 19.16C231.317 19.16 230.901 19.0853 230.517 18.936C230.144 18.776 229.84 18.504 229.605 18.12C229.371 17.736 229.253 17.1973 229.253 16.504V11.512H228.037V10.84L229.269 10.28L229.829 8.456H230.661V10.424H233.141V11.512H230.661V16.472C230.661 16.9947 230.784 17.384 231.029 17.64C231.285 17.8853 231.611 18.008 232.005 18.008ZM238.171 10.28C239.216 10.28 239.989 10.5093 240.491 10.968C240.992 11.4267 241.243 12.1573 241.243 13.16V19H240.219L239.947 17.784H239.883C239.637 18.0933 239.381 18.3547 239.115 18.568C238.859 18.7707 238.56 18.92 238.219 19.016C237.888 19.112 237.483 19.16 237.003 19.16C236.491 19.16 236.027 19.0693 235.611 18.888C235.205 18.7067 234.885 18.4293 234.651 18.056C234.416 17.672 234.299 17.192 234.299 16.616C234.299 15.7627 234.635 15.1067 235.307 14.648C235.979 14.1787 237.013 13.9227 238.411 13.88L239.867 13.832V13.32C239.867 12.6053 239.712 12.1093 239.403 11.832C239.093 11.5547 238.656 11.416 238.091 11.416C237.643 11.416 237.216 11.4853 236.811 11.624C236.405 11.752 236.027 11.9013 235.674 12.072L235.243 11.016C235.616 10.8133 236.059 10.6427 236.571 10.504C237.083 10.3547 237.616 10.28 238.171 10.28ZM238.587 14.856C237.52 14.8987 236.779 15.0693 236.363 15.368C235.957 15.6667 235.755 16.088 235.755 16.632C235.755 17.112 235.899 17.464 236.187 17.688C236.485 17.912 236.864 18.024 237.323 18.024C238.048 18.024 238.651 17.8267 239.131 17.432C239.611 17.0267 239.851 16.408 239.851 15.576V14.808L238.587 14.856ZM246.931 19.16C245.865 19.16 245.011 18.792 244.371 18.056C243.731 17.3093 243.411 16.2 243.411 14.728C243.411 13.256 243.731 12.1467 244.371 11.4C245.022 10.6427 245.881 10.264 246.947 10.264C247.395 10.264 247.785 10.3227 248.115 10.44C248.446 10.5467 248.734 10.696 248.979 10.888C249.225 11.08 249.433 11.2933 249.603 11.528H249.699C249.689 11.3893 249.667 11.1867 249.635 10.92C249.614 10.6427 249.603 10.424 249.603 10.264V6.84H251.011V19H249.875L249.667 17.848H249.603C249.433 18.0933 249.225 18.3173 248.979 18.52C248.734 18.712 248.441 18.8667 248.099 18.984C247.769 19.1013 247.379 19.16 246.931 19.16ZM247.155 17.992C248.062 17.992 248.697 17.7467 249.059 17.256C249.433 16.7547 249.619 16.0027 249.619 15V14.744C249.619 13.6773 249.443 12.8613 249.091 12.296C248.739 11.72 248.089 11.432 247.139 11.432C246.382 11.432 245.811 11.736 245.427 12.344C245.054 12.9413 244.867 13.7467 244.867 14.76C244.867 15.784 245.054 16.5787 245.427 17.144C245.811 17.7093 246.387 17.992 247.155 17.992ZM256.983 10.28C258.028 10.28 258.802 10.5093 259.303 10.968C259.804 11.4267 260.055 12.1573 260.055 13.16V19H259.031L258.759 17.784H258.695C258.45 18.0933 258.194 18.3547 257.927 18.568C257.671 18.7707 257.372 18.92 257.031 19.016C256.7 19.112 256.295 19.16 255.815 19.16C255.303 19.16 254.839 19.0693 254.423 18.888C254.018 18.7067 253.698 18.4293 253.463 18.056C253.228 17.672 253.111 17.192 253.111 16.616C253.111 15.7627 253.447 15.1067 254.119 14.648C254.791 14.1787 255.826 13.9227 257.223 13.88L258.679 13.832V13.32C258.679 12.6053 258.524 12.1093 258.215 11.832C257.906 11.5547 257.468 11.416 256.903 11.416C256.455 11.416 256.028 11.4853 255.623 11.624C255.218 11.752 254.839 11.9013 254.487 12.072L254.055 11.016C254.428 10.8133 254.871 10.6427 255.383 10.504C255.895 10.3547 256.428 10.28 256.983 10.28ZM257.399 14.856C256.332 14.8987 255.591 15.0693 255.175 15.368C254.77 15.6667 254.567 16.088 254.567 16.632C254.567 17.112 254.711 17.464 254.999 17.688C255.298 17.912 255.676 18.024 256.135 18.024C256.86 18.024 257.463 17.8267 257.943 17.432C258.423 17.0267 258.663 16.408 258.663 15.576V14.808L257.399 14.856ZM268.288 16.632C268.288 17.1867 268.149 17.6507 267.872 18.024C267.594 18.3973 267.2 18.68 266.688 18.872C266.176 19.064 265.568 19.16 264.864 19.16C264.266 19.16 263.749 19.112 263.312 19.016C262.885 18.92 262.506 18.7867 262.176 18.616V17.336C262.517 17.5067 262.928 17.6667 263.408 17.816C263.898 17.9547 264.394 18.024 264.896 18.024C265.61 18.024 266.128 17.912 266.448 17.688C266.768 17.4533 266.928 17.144 266.928 16.76C266.928 16.5467 266.869 16.3547 266.752 16.184C266.634 16.0133 266.421 15.8427 266.112 15.672C265.813 15.5013 265.381 15.3093 264.816 15.096C264.261 14.8827 263.786 14.6693 263.392 14.456C262.997 14.2427 262.693 13.9867 262.48 13.688C262.266 13.3893 262.16 13.0053 262.16 12.536C262.16 11.8107 262.453 11.2507 263.04 10.856C263.637 10.4613 264.416 10.264 265.376 10.264C265.898 10.264 266.384 10.3173 266.832 10.424C267.29 10.52 267.717 10.6587 268.112 10.84L267.632 11.96C267.397 11.8533 267.146 11.7627 266.88 11.688C266.624 11.6027 266.362 11.5387 266.096 11.496C265.829 11.4427 265.557 11.416 265.28 11.416C264.704 11.416 264.261 11.512 263.952 11.704C263.653 11.8853 263.504 12.136 263.504 12.456C263.504 12.6907 263.573 12.8933 263.712 13.064C263.85 13.224 264.08 13.384 264.4 13.544C264.73 13.6933 265.168 13.8747 265.712 14.088C266.256 14.2907 266.72 14.4987 267.104 14.712C267.488 14.9253 267.781 15.1867 267.984 15.496C268.186 15.7947 268.288 16.1733 268.288 16.632Z" fill="#0F0000"/>
<path d="M307 0.5H306.5V1V25V25.5H307H459H459.5V25V1V0.5H459H307Z" stroke="#C10000"/>
<path d="M343.462 7.576C344.411 7.576 345.19 7.69867 345.798 7.944C346.416 8.17867 346.875 8.536 347.174 9.016C347.472 9.496 347.622 10.0987 347.622 10.824C347.622 11.432 347.51 11.9387 347.286 12.344C347.062 12.7493 346.774 13.0747 346.422 13.32C346.08 13.5547 345.718 13.7413 345.334 13.88L348.47 19H346.79L344.022 14.28H341.75V19H340.31V7.576H343.462ZM343.382 8.824H341.75V13.064H343.462C344.08 13.064 344.587 12.984 344.982 12.824C345.376 12.6533 345.664 12.408 345.846 12.088C346.038 11.768 346.134 11.368 346.134 10.888C346.134 10.3867 346.032 9.98667 345.83 9.688C345.638 9.38933 345.339 9.17067 344.934 9.032C344.528 8.89333 344.011 8.824 343.382 8.824ZM353.383 10.264C354.119 10.264 354.748 10.424 355.271 10.744C355.804 11.064 356.21 11.5173 356.487 12.104C356.775 12.68 356.919 13.3573 356.919 14.136V14.984H351.047C351.068 15.9547 351.314 16.696 351.783 17.208C352.263 17.7093 352.93 17.96 353.783 17.96C354.327 17.96 354.807 17.912 355.223 17.816C355.65 17.7093 356.087 17.56 356.535 17.368V18.6C356.098 18.792 355.666 18.9307 355.239 19.016C354.812 19.112 354.306 19.16 353.719 19.16C352.908 19.16 352.188 18.9947 351.559 18.664C350.94 18.3333 350.455 17.8427 350.103 17.192C349.762 16.5307 349.591 15.7253 349.591 14.776C349.591 13.8373 349.746 13.032 350.055 12.36C350.375 11.688 350.818 11.1707 351.383 10.808C351.959 10.4453 352.626 10.264 353.383 10.264ZM353.367 11.416C352.695 11.416 352.162 11.6347 351.767 12.072C351.383 12.4987 351.154 13.096 351.079 13.864H355.447C355.447 13.3733 355.372 12.9467 355.223 12.584C355.074 12.2213 354.844 11.9387 354.535 11.736C354.236 11.5227 353.847 11.416 353.367 11.416ZM362.542 19.16C361.785 19.16 361.108 19.0053 360.51 18.696C359.924 18.3867 359.46 17.9067 359.118 17.256C358.788 16.6053 358.622 15.7733 358.622 14.76C358.622 13.704 358.798 12.8453 359.15 12.184C359.502 11.5227 359.977 11.0373 360.574 10.728C361.182 10.4187 361.87 10.264 362.638 10.264C363.076 10.264 363.497 10.312 363.902 10.408C364.308 10.4933 364.638 10.6 364.894 10.728L364.462 11.896C364.206 11.8 363.908 11.7093 363.566 11.624C363.225 11.5387 362.905 11.496 362.606 11.496C362.03 11.496 361.556 11.6187 361.182 11.864C360.809 12.1093 360.532 12.472 360.35 12.952C360.169 13.432 360.078 14.0293 360.078 14.744C360.078 15.4267 360.169 16.008 360.35 16.488C360.532 16.968 360.804 17.3307 361.166 17.576C361.529 17.8213 361.982 17.944 362.526 17.944C362.996 17.944 363.406 17.896 363.758 17.8C364.121 17.704 364.452 17.5867 364.75 17.448V18.696C364.462 18.8453 364.142 18.9573 363.79 19.032C363.449 19.1173 363.033 19.16 362.542 19.16ZM368.198 10.408C368.198 10.6107 368.187 10.8187 368.166 11.032C368.155 11.2453 368.139 11.4373 368.118 11.608H368.214C368.395 11.3093 368.624 11.064 368.902 10.872C369.179 10.68 369.488 10.536 369.83 10.44C370.171 10.3333 370.523 10.28 370.886 10.28C371.579 10.28 372.155 10.392 372.614 10.616C373.083 10.8293 373.435 11.1653 373.67 11.624C373.904 12.0827 374.022 12.68 374.022 13.416V19H372.63V13.512C372.63 12.8187 372.475 12.3013 372.166 11.96C371.856 11.6187 371.371 11.448 370.71 11.448C370.07 11.448 369.568 11.5707 369.206 11.816C368.843 12.0507 368.582 12.4027 368.422 12.872C368.272 13.3307 368.198 13.896 368.198 14.568V19H366.79V6.84H368.198V10.408ZM379.928 10.28C380.974 10.28 381.747 10.5093 382.248 10.968C382.75 11.4267 383 12.1573 383 13.16V19H381.976L381.704 17.784H381.64C381.395 18.0933 381.139 18.3547 380.872 18.568C380.616 18.7707 380.318 18.92 379.976 19.016C379.646 19.112 379.24 19.16 378.76 19.16C378.248 19.16 377.784 19.0693 377.368 18.888C376.963 18.7067 376.643 18.4293 376.408 18.056C376.174 17.672 376.056 17.192 376.056 16.616C376.056 15.7627 376.392 15.1067 377.064 14.648C377.736 14.1787 378.771 13.9227 380.168 13.88L381.624 13.832V13.32C381.624 12.6053 381.47 12.1093 381.16 11.832C380.851 11.5547 380.414 11.416 379.848 11.416C379.4 11.416 378.974 11.4853 378.568 11.624C378.163 11.752 377.784 11.9013 377.432 12.072L377 11.016C377.374 10.8133 377.816 10.6427 378.328 10.504C378.84 10.3547 379.374 10.28 379.928 10.28ZM380.344 14.856C379.278 14.8987 378.536 15.0693 378.12 15.368C377.715 15.6667 377.512 16.088 377.512 16.632C377.512 17.112 377.656 17.464 377.944 17.688C378.243 17.912 378.622 18.024 379.08 18.024C379.806 18.024 380.408 17.8267 380.888 17.432C381.368 17.0267 381.608 16.408 381.608 15.576V14.808L380.344 14.856ZM391.185 19H384.913V18.072L389.521 11.512H385.185V10.424H391.073V11.48L386.529 17.912H391.185V19ZM396.413 10.28C397.458 10.28 398.231 10.5093 398.733 10.968C399.234 11.4267 399.485 12.1573 399.485 13.16V19H398.461L398.189 17.784H398.125C397.879 18.0933 397.623 18.3547 397.357 18.568C397.101 18.7707 396.802 18.92 396.461 19.016C396.13 19.112 395.725 19.16 395.245 19.16C394.733 19.16 394.269 19.0693 393.853 18.888C393.447 18.7067 393.127 18.4293 392.893 18.056C392.658 17.672 392.541 17.192 392.541 16.616C392.541 15.7627 392.877 15.1067 393.549 14.648C394.221 14.1787 395.255 13.9227 396.653 13.88L398.109 13.832V13.32C398.109 12.6053 397.954 12.1093 397.645 11.832C397.335 11.5547 396.898 11.416 396.333 11.416C395.885 11.416 395.458 11.4853 395.053 11.624C394.647 11.752 394.269 11.9013 393.917 12.072L393.485 11.016C393.858 10.8133 394.301 10.6427 394.813 10.504C395.325 10.3547 395.858 10.28 396.413 10.28ZM396.829 14.856C395.762 14.8987 395.021 15.0693 394.605 15.368C394.199 15.6667 393.997 16.088 393.997 16.632C393.997 17.112 394.141 17.464 394.429 17.688C394.727 17.912 395.106 18.024 395.565 18.024C396.29 18.024 396.893 17.8267 397.373 17.432C397.853 17.0267 398.093 16.408 398.093 15.576V14.808L396.829 14.856ZM405.173 19.16C404.107 19.16 403.253 18.792 402.613 18.056C401.973 17.3093 401.653 16.2 401.653 14.728C401.653 13.256 401.973 12.1467 402.613 11.4C403.264 10.6427 404.123 10.264 405.189 10.264C405.637 10.264 406.027 10.3227 406.357 10.44C406.688 10.5467 406.976 10.696 407.221 10.888C407.467 11.08 407.675 11.2933 407.845 11.528H407.941C407.931 11.3893 407.909 11.1867 407.877 10.92C407.856 10.6427 407.845 10.424 407.845 10.264V6.84H409.253V19H408.117L407.909 17.848H407.845C407.675 18.0933 407.467 18.3173 407.221 18.52C406.976 18.712 406.683 18.8667 406.341 18.984C406.011 19.1013 405.621 19.16 405.173 19.16ZM405.397 17.992C406.304 17.992 406.939 17.7467 407.301 17.256C407.675 16.7547 407.861 16.0027 407.861 15V14.744C407.861 13.6773 407.685 12.8613 407.333 12.296C406.981 11.72 406.331 11.432 405.381 11.432C404.624 11.432 404.053 11.736 403.669 12.344C403.296 12.9413 403.109 13.7467 403.109 14.76C403.109 15.784 403.296 16.5787 403.669 17.144C404.053 17.7093 404.629 17.992 405.397 17.992ZM415.225 10.28C416.271 10.28 417.044 10.5093 417.545 10.968C418.047 11.4267 418.297 12.1573 418.297 13.16V19H417.273L417.001 17.784H416.937C416.692 18.0933 416.436 18.3547 416.169 18.568C415.913 18.7707 415.615 18.92 415.273 19.016C414.943 19.112 414.537 19.16 414.057 19.16C413.545 19.16 413.081 19.0693 412.665 18.888C412.26 18.7067 411.94 18.4293 411.705 18.056C411.471 17.672 411.353 17.192 411.353 16.616C411.353 15.7627 411.689 15.1067 412.361 14.648C413.033 14.1787 414.068 13.9227 415.465 13.88L416.921 13.832V13.32C416.921 12.6053 416.767 12.1093 416.457 11.832C416.148 11.5547 415.711 11.416 415.145 11.416C414.697 11.416 414.271 11.4853 413.865 11.624C413.46 11.752 413.081 11.9013 412.729 12.072L412.297 11.016C412.671 10.8133 413.113 10.6427 413.625 10.504C414.137 10.3547 414.671 10.28 415.225 10.28ZM415.641 14.856C414.575 14.8987 413.833 15.0693 413.417 15.368C413.012 15.6667 412.809 16.088 412.809 16.632C412.809 17.112 412.953 17.464 413.241 17.688C413.54 17.912 413.919 18.024 414.377 18.024C415.103 18.024 415.705 17.8267 416.185 17.432C416.665 17.0267 416.905 16.408 416.905 15.576V14.808L415.641 14.856ZM426.53 16.632C426.53 17.1867 426.391 17.6507 426.114 18.024C425.837 18.3973 425.442 18.68 424.93 18.872C424.418 19.064 423.81 19.16 423.106 19.16C422.509 19.16 421.991 19.112 421.554 19.016C421.127 18.92 420.749 18.7867 420.418 18.616V17.336C420.759 17.5067 421.17 17.6667 421.65 17.816C422.141 17.9547 422.637 18.024 423.138 18.024C423.853 18.024 424.37 17.912 424.69 17.688C425.01 17.4533 425.17 17.144 425.17 16.76C425.17 16.5467 425.111 16.3547 424.994 16.184C424.877 16.0133 424.663 15.8427 424.354 15.672C424.055 15.5013 423.623 15.3093 423.058 15.096C422.503 14.8827 422.029 14.6693 421.634 14.456C421.239 14.2427 420.935 13.9867 420.722 13.688C420.509 13.3893 420.402 13.0053 420.402 12.536C420.402 11.8107 420.695 11.2507 421.282 10.856C421.879 10.4613 422.658 10.264 423.618 10.264C424.141 10.264 424.626 10.3173 425.074 10.424C425.533 10.52 425.959 10.6587 426.354 10.84L425.874 11.96C425.639 11.8533 425.389 11.7627 425.122 11.688C424.866 11.6027 424.605 11.5387 424.338 11.496C424.071 11.4427 423.799 11.416 423.522 11.416C422.946 11.416 422.503 11.512 422.194 11.704C421.895 11.8853 421.746 12.136 421.746 12.456C421.746 12.6907 421.815 12.8933 421.954 13.064C422.093 13.224 422.322 13.384 422.642 13.544C422.973 13.6933 423.41 13.8747 423.954 14.088C424.498 14.2907 424.962 14.4987 425.346 14.712C425.73 14.9253 426.023 15.1867 426.226 15.496C426.429 15.7947 426.53 16.1733 426.53 16.632Z" fill="#0F0000"/>
<path d="M460 0.5H459.5V1V25V25.5H460H604C608.694 25.5 612.5 21.6944 612.5 17V9C612.5 4.30558 608.694 0.5 604 0.5H460Z" stroke="#C10000"/>
<path d="M498.592 7.576C500.085 7.576 501.173 7.86933 501.856 8.456C502.538 9.04267 502.88 9.86933 502.88 10.936C502.88 11.4053 502.8 11.8587 502.64 12.296C502.49 12.7227 502.24 13.1067 501.888 13.448C501.536 13.7893 501.066 14.0613 500.48 14.264C499.893 14.456 499.173 14.552 498.32 14.552H497.008V19H495.568V7.576H498.592ZM498.464 8.808H497.008V13.32H498.16C498.885 13.32 499.488 13.2453 499.968 13.096C500.448 12.936 500.805 12.6853 501.04 12.344C501.274 12.0027 501.392 11.5547 501.392 11C501.392 10.264 501.157 9.71467 500.688 9.352C500.218 8.98933 499.477 8.808 498.464 8.808ZM508.375 10.264C509.111 10.264 509.74 10.424 510.263 10.744C510.796 11.064 511.202 11.5173 511.479 12.104C511.767 12.68 511.911 13.3573 511.911 14.136V14.984H506.039C506.06 15.9547 506.306 16.696 506.775 17.208C507.255 17.7093 507.922 17.96 508.775 17.96C509.319 17.96 509.799 17.912 510.215 17.816C510.642 17.7093 511.079 17.56 511.527 17.368V18.6C511.09 18.792 510.658 18.9307 510.231 19.016C509.804 19.112 509.298 19.16 508.711 19.16C507.9 19.16 507.18 18.9947 506.551 18.664C505.932 18.3333 505.447 17.8427 505.095 17.192C504.754 16.5307 504.583 15.7253 504.583 14.776C504.583 13.8373 504.738 13.032 505.047 12.36C505.367 11.688 505.81 11.1707 506.375 10.808C506.951 10.4453 507.618 10.264 508.375 10.264ZM508.359 11.416C507.687 11.416 507.154 11.6347 506.759 12.072C506.375 12.4987 506.146 13.096 506.071 13.864H510.439C510.439 13.3733 510.364 12.9467 510.215 12.584C510.066 12.2213 509.836 11.9387 509.527 11.736C509.228 11.5227 508.839 11.416 508.359 11.416ZM518.222 10.264C519.246 10.264 520.02 10.5147 520.542 11.016C521.065 11.5067 521.326 12.3067 521.326 13.416V19H519.934V13.512C519.934 12.8187 519.78 12.3013 519.47 11.96C519.161 11.6187 518.676 11.448 518.014 11.448C517.065 11.448 516.409 11.7147 516.046 12.248C515.684 12.7813 515.502 13.5493 515.502 14.552V19H514.094V10.424H515.23L515.438 11.592H515.518C515.71 11.2933 515.945 11.048 516.222 10.856C516.51 10.6533 516.825 10.504 517.166 10.408C517.508 10.312 517.86 10.264 518.222 10.264ZM527.025 19.16C525.958 19.16 525.105 18.792 524.465 18.056C523.825 17.3093 523.505 16.2 523.505 14.728C523.505 13.256 523.825 12.1467 524.465 11.4C525.116 10.6427 525.974 10.264 527.041 10.264C527.489 10.264 527.878 10.3227 528.209 10.44C528.54 10.5467 528.828 10.696 529.073 10.888C529.318 11.08 529.526 11.2933 529.697 11.528H529.793C529.782 11.3893 529.761 11.1867 529.729 10.92C529.708 10.6427 529.697 10.424 529.697 10.264V6.84H531.105V19H529.969L529.761 17.848H529.697C529.526 18.0933 529.318 18.3173 529.073 18.52C528.828 18.712 528.534 18.8667 528.193 18.984C527.862 19.1013 527.473 19.16 527.025 19.16ZM527.249 17.992C528.156 17.992 528.79 17.7467 529.153 17.256C529.526 16.7547 529.713 16.0027 529.713 15V14.744C529.713 13.6773 529.537 12.8613 529.185 12.296C528.833 11.72 528.182 11.432 527.233 11.432C526.476 11.432 525.905 11.736 525.521 12.344C525.148 12.9413 524.961 13.7467 524.961 14.76C524.961 15.784 525.148 16.5787 525.521 17.144C525.905 17.7093 526.481 17.992 527.249 17.992ZM535.237 10.424V19H533.829V10.424H535.237ZM534.549 7.208C534.762 7.208 534.949 7.28267 535.109 7.432C535.279 7.57067 535.365 7.79467 535.365 8.104C535.365 8.40267 535.279 8.62667 535.109 8.776C534.949 8.92533 534.762 9 534.549 9C534.314 9 534.117 8.92533 533.957 8.776C533.797 8.62667 533.717 8.40267 533.717 8.104C533.717 7.79467 533.797 7.57067 533.957 7.432C534.117 7.28267 534.314 7.208 534.549 7.208ZM541.266 10.264C542.002 10.264 542.631 10.424 543.154 10.744C543.687 11.064 544.092 11.5173 544.37 12.104C544.658 12.68 544.802 13.3573 544.802 14.136V14.984H538.93C538.951 15.9547 539.196 16.696 539.666 17.208C540.146 17.7093 540.812 17.96 541.666 17.96C542.21 17.96 542.69 17.912 543.106 17.816C543.532 17.7093 543.97 17.56 544.418 17.368V18.6C543.98 18.792 543.548 18.9307 543.122 19.016C542.695 19.112 542.188 19.16 541.602 19.16C540.791 19.16 540.071 18.9947 539.442 18.664C538.823 18.3333 538.338 17.8427 537.986 17.192C537.644 16.5307 537.474 15.7253 537.474 14.776C537.474 13.8373 537.628 13.032 537.938 12.36C538.258 11.688 538.7 11.1707 539.266 10.808C539.842 10.4453 540.508 10.264 541.266 10.264ZM541.25 11.416C540.578 11.416 540.044 11.6347 539.65 12.072C539.266 12.4987 539.036 13.096 538.962 13.864H543.33C543.33 13.3733 543.255 12.9467 543.106 12.584C542.956 12.2213 542.727 11.9387 542.418 11.736C542.119 11.5227 541.73 11.416 541.25 11.416ZM551.113 10.264C552.137 10.264 552.91 10.5147 553.433 11.016C553.956 11.5067 554.217 12.3067 554.217 13.416V19H552.825V13.512C552.825 12.8187 552.67 12.3013 552.361 11.96C552.052 11.6187 551.566 11.448 550.905 11.448C549.956 11.448 549.3 11.7147 548.937 12.248C548.574 12.7813 548.393 13.5493 548.393 14.552V19H546.985V10.424H548.121L548.329 11.592H548.409C548.601 11.2933 548.836 11.048 549.113 10.856C549.401 10.6533 549.716 10.504 550.057 10.408C550.398 10.312 550.75 10.264 551.113 10.264ZM559.74 18.008C559.953 18.008 560.172 17.992 560.396 17.96C560.62 17.9173 560.801 17.8747 560.94 17.832V18.904C560.79 18.9787 560.577 19.0373 560.3 19.08C560.022 19.1333 559.756 19.16 559.5 19.16C559.052 19.16 558.636 19.0853 558.252 18.936C557.878 18.776 557.574 18.504 557.34 18.12C557.105 17.736 556.988 17.1973 556.988 16.504V11.512H555.772V10.84L557.004 10.28L557.564 8.456H558.396V10.424H560.876V11.512H558.396V16.472C558.396 16.9947 558.518 17.384 558.764 17.64C559.02 17.8853 559.345 18.008 559.74 18.008ZM565.969 10.264C566.705 10.264 567.334 10.424 567.857 10.744C568.39 11.064 568.796 11.5173 569.073 12.104C569.361 12.68 569.505 13.3573 569.505 14.136V14.984H563.633C563.654 15.9547 563.9 16.696 564.369 17.208C564.849 17.7093 565.516 17.96 566.369 17.96C566.913 17.96 567.393 17.912 567.809 17.816C568.236 17.7093 568.673 17.56 569.121 17.368V18.6C568.684 18.792 568.252 18.9307 567.825 19.016C567.398 19.112 566.892 19.16 566.305 19.16C565.494 19.16 564.774 18.9947 564.145 18.664C563.526 18.3333 563.041 17.8427 562.689 17.192C562.348 16.5307 562.177 15.7253 562.177 14.776C562.177 13.8373 562.332 13.032 562.641 12.36C562.961 11.688 563.404 11.1707 563.969 10.808C564.545 10.4453 565.212 10.264 565.969 10.264ZM565.953 11.416C565.281 11.416 564.748 11.6347 564.353 12.072C563.969 12.4987 563.74 13.096 563.665 13.864H568.033C568.033 13.3733 567.958 12.9467 567.809 12.584C567.66 12.2213 567.43 11.9387 567.121 11.736C566.822 11.5227 566.433 11.416 565.953 11.416ZM577.272 16.632C577.272 17.1867 577.133 17.6507 576.856 18.024C576.579 18.3973 576.184 18.68 575.672 18.872C575.16 19.064 574.552 19.16 573.848 19.16C573.251 19.16 572.733 19.112 572.296 19.016C571.869 18.92 571.491 18.7867 571.16 18.616V17.336C571.501 17.5067 571.912 17.6667 572.392 17.816C572.883 17.9547 573.379 18.024 573.88 18.024C574.595 18.024 575.112 17.912 575.432 17.688C575.752 17.4533 575.912 17.144 575.912 16.76C575.912 16.5467 575.853 16.3547 575.736 16.184C575.619 16.0133 575.405 15.8427 575.096 15.672C574.797 15.5013 574.365 15.3093 573.8 15.096C573.245 14.8827 572.771 14.6693 572.376 14.456C571.981 14.2427 571.677 13.9867 571.464 13.688C571.251 13.3893 571.144 13.0053 571.144 12.536C571.144 11.8107 571.437 11.2507 572.024 10.856C572.621 10.4613 573.4 10.264 574.36 10.264C574.883 10.264 575.368 10.3173 575.816 10.424C576.275 10.52 576.701 10.6587 577.096 10.84L576.616 11.96C576.381 11.8533 576.131 11.7627 575.864 11.688C575.608 11.6027 575.347 11.5387 575.08 11.496C574.813 11.4427 574.541 11.416 574.264 11.416C573.688 11.416 573.245 11.512 572.936 11.704C572.637 11.8853 572.488 12.136 572.488 12.456C572.488 12.6907 572.557 12.8933 572.696 13.064C572.835 13.224 573.064 13.384 573.384 13.544C573.715 13.6933 574.152 13.8747 574.696 14.088C575.24 14.2907 575.704 14.4987 576.088 14.712C576.472 14.9253 576.765 15.1867 576.968 15.496C577.171 15.7947 577.272 16.1733 577.272 16.632Z" fill="#0F0000"/>
</svg>
