<svg width="1046" height="66" viewBox="0 0 1046 66" fill="none" xmlns="http://www.w3.org/2000/svg">
<rect x="0.5" y="0.5" width="1045" height="65" rx="8.5" stroke="#660000"/>
<rect x="17.25" y="17.25" width="31.5" height="31.5" rx="15.75" stroke="#867979" stroke-width="0.5"/>
<path d="M33.0007 31.6667C34.4734 31.6667 35.6673 30.4728 35.6673 29C35.6673 27.5272 34.4734 26.3333 33.0007 26.3333C31.5279 26.3333 30.334 27.5272 30.334 29C30.334 30.4728 31.5279 31.6667 33.0007 31.6667Z" stroke="#0F0000" stroke-width="1.2"/>
<path d="M38.3337 36.6667C38.3337 38.3233 38.3337 39.6667 33.0003 39.6667C27.667 39.6667 27.667 38.3233 27.667 36.6667C27.667 35.01 30.055 33.6667 33.0003 33.6667C35.9457 33.6667 38.3337 35.01 38.3337 36.6667Z" stroke="#0F0000" stroke-width="1.2"/>
<path d="M65.018 43.028C64.718 43.028 64.454 43.004 64.226 42.956C63.998 42.92 63.794 42.866 63.614 42.794V41.174C63.806 41.222 64.01 41.264 64.226 41.3C64.442 41.336 64.67 41.354 64.91 41.354C65.21 41.354 65.492 41.294 65.756 41.174C66.032 41.054 66.248 40.838 66.404 40.526C66.56 40.214 66.638 39.776 66.638 39.212V26.648H68.582V39.122C68.582 40.022 68.432 40.76 68.132 41.336C67.844 41.924 67.43 42.35 66.89 42.614C66.362 42.89 65.738 43.028 65.018 43.028ZM80.2647 34.64C80.2647 35.444 80.1567 36.158 79.9407 36.782C79.7247 37.406 79.4187 37.934 79.0227 38.366C78.6267 38.798 78.1467 39.128 77.5827 39.356C77.0187 39.572 76.3827 39.68 75.6747 39.68C75.0267 39.68 74.4267 39.572 73.8747 39.356C73.3227 39.128 72.8427 38.798 72.4347 38.366C72.0387 37.934 71.7267 37.406 71.4987 36.782C71.2707 36.158 71.1567 35.438 71.1567 34.622C71.1567 33.554 71.3367 32.648 71.6967 31.904C72.0687 31.16 72.5967 30.596 73.2807 30.212C73.9767 29.816 74.7927 29.618 75.7287 29.618C76.6167 29.618 77.3967 29.816 78.0687 30.212C78.7527 30.596 79.2867 31.16 79.6707 31.904C80.0667 32.648 80.2647 33.56 80.2647 34.64ZM73.1187 34.64C73.1187 35.36 73.2087 35.984 73.3887 36.512C73.5687 37.028 73.8507 37.424 74.2347 37.7C74.6187 37.976 75.1107 38.114 75.7107 38.114C76.3107 38.114 76.8027 37.976 77.1867 37.7C77.5707 37.424 77.8527 37.028 78.0327 36.512C78.2127 35.984 78.3027 35.36 78.3027 34.64C78.3027 33.896 78.2067 33.272 78.0147 32.768C77.8347 32.264 77.5527 31.88 77.1687 31.616C76.7967 31.34 76.3047 31.202 75.6927 31.202C74.7927 31.202 74.1387 31.502 73.7307 32.102C73.3227 32.702 73.1187 33.548 73.1187 34.64ZM87.4715 29.618C87.6395 29.618 87.8255 29.63 88.0295 29.654C88.2335 29.666 88.4015 29.684 88.5335 29.708L88.3355 31.49C88.2035 31.454 88.0475 31.424 87.8675 31.4C87.6875 31.376 87.5195 31.364 87.3635 31.364C87.0035 31.364 86.6555 31.436 86.3195 31.58C85.9955 31.712 85.7015 31.91 85.4375 32.174C85.1735 32.426 84.9635 32.738 84.8075 33.11C84.6635 33.482 84.5915 33.908 84.5915 34.388V39.5H82.6835V29.798H84.1955L84.4475 31.526H84.5195C84.7235 31.178 84.9695 30.86 85.2575 30.572C85.5455 30.284 85.8755 30.056 86.2475 29.888C86.6195 29.708 87.0275 29.618 87.4715 29.618ZM93.5022 29.618C94.1262 29.618 94.6902 29.738 95.1942 29.978C95.6982 30.218 96.1242 30.584 96.4722 31.076H96.5622L96.7782 29.798H98.3262V39.626C98.3262 40.538 98.1642 41.306 97.8402 41.93C97.5162 42.554 97.0182 43.022 96.3462 43.334C95.6862 43.658 94.8522 43.82 93.8442 43.82C93.1482 43.82 92.5062 43.772 91.9182 43.676C91.3302 43.58 90.7902 43.43 90.2982 43.226V41.552C90.6462 41.72 91.0122 41.858 91.3962 41.966C91.7802 42.086 92.1882 42.17 92.6202 42.218C93.0522 42.278 93.4962 42.308 93.9522 42.308C94.7442 42.308 95.3562 42.08 95.7882 41.624C96.2202 41.18 96.4362 40.55 96.4362 39.734V39.41C96.4362 39.254 96.4422 39.05 96.4542 38.798C96.4662 38.534 96.4782 38.342 96.4902 38.222H96.4182C96.0822 38.726 95.6682 39.098 95.1762 39.338C94.6962 39.566 94.1382 39.68 93.5022 39.68C92.2782 39.68 91.3182 39.242 90.6222 38.366C89.9382 37.478 89.5962 36.248 89.5962 34.676C89.5962 33.62 89.7522 32.72 90.0642 31.976C90.3762 31.22 90.8202 30.638 91.3962 30.23C91.9842 29.822 92.6862 29.618 93.5022 29.618ZM93.8982 31.202C93.3942 31.202 92.9682 31.34 92.6202 31.616C92.2722 31.88 92.0082 32.27 91.8282 32.786C91.6482 33.302 91.5582 33.938 91.5582 34.694C91.5582 35.822 91.7562 36.68 92.1522 37.268C92.5602 37.856 93.1542 38.15 93.9342 38.15C94.3902 38.15 94.7742 38.09 95.0862 37.97C95.4102 37.85 95.6742 37.664 95.8782 37.412C96.0942 37.16 96.2502 36.842 96.3462 36.458C96.4542 36.062 96.5082 35.588 96.5082 35.036V34.676C96.5082 33.848 96.4122 33.182 96.2202 32.678C96.0402 32.162 95.7582 31.79 95.3742 31.562C94.9902 31.322 94.4982 31.202 93.8982 31.202ZM105.132 29.618C105.984 29.618 106.716 29.798 107.328 30.158C107.94 30.506 108.408 31.01 108.732 31.67C109.068 32.33 109.236 33.11 109.236 34.01V35.054H102.72C102.744 36.05 103.002 36.812 103.494 37.34C103.998 37.868 104.7 38.132 105.6 38.132C106.224 38.132 106.776 38.078 107.256 37.97C107.748 37.85 108.252 37.676 108.768 37.448V39.032C108.288 39.248 107.796 39.41 107.292 39.518C106.8 39.626 106.212 39.68 105.528 39.68C104.592 39.68 103.764 39.494 103.044 39.122C102.324 38.75 101.76 38.198 101.352 37.466C100.956 36.722 100.758 35.81 100.758 34.73C100.758 33.638 100.938 32.714 101.298 31.958C101.67 31.202 102.18 30.626 102.828 30.23C103.488 29.822 104.256 29.618 105.132 29.618ZM105.132 31.094C104.448 31.094 103.896 31.316 103.476 31.76C103.068 32.204 102.828 32.834 102.756 33.65H107.328C107.328 33.146 107.25 32.702 107.094 32.318C106.938 31.934 106.698 31.634 106.374 31.418C106.05 31.202 105.636 31.094 105.132 31.094ZM118.435 39.5H116.509V26.648H123.745V28.304H118.435V32.498H123.403V34.154H118.435V39.5ZM129.619 29.618C130.471 29.618 131.203 29.798 131.815 30.158C132.427 30.506 132.895 31.01 133.219 31.67C133.555 32.33 133.723 33.11 133.723 34.01V35.054H127.207C127.231 36.05 127.489 36.812 127.981 37.34C128.485 37.868 129.187 38.132 130.087 38.132C130.711 38.132 131.263 38.078 131.743 37.97C132.235 37.85 132.739 37.676 133.255 37.448V39.032C132.775 39.248 132.283 39.41 131.779 39.518C131.287 39.626 130.699 39.68 130.015 39.68C129.079 39.68 128.251 39.494 127.531 39.122C126.811 38.75 126.247 38.198 125.839 37.466C125.443 36.722 125.245 35.81 125.245 34.73C125.245 33.638 125.425 32.714 125.785 31.958C126.157 31.202 126.667 30.626 127.315 30.23C127.975 29.822 128.743 29.618 129.619 29.618ZM129.619 31.094C128.935 31.094 128.383 31.316 127.963 31.76C127.555 32.204 127.315 32.834 127.243 33.65H131.815C131.815 33.146 131.737 32.702 131.581 32.318C131.425 31.934 131.185 31.634 130.861 31.418C130.537 31.202 130.123 31.094 129.619 31.094ZM140.891 29.618C141.059 29.618 141.245 29.63 141.449 29.654C141.653 29.666 141.821 29.684 141.953 29.708L141.755 31.49C141.623 31.454 141.467 31.424 141.287 31.4C141.107 31.376 140.939 31.364 140.783 31.364C140.423 31.364 140.075 31.436 139.739 31.58C139.415 31.712 139.121 31.91 138.857 32.174C138.593 32.426 138.383 32.738 138.227 33.11C138.083 33.482 138.011 33.908 138.011 34.388V39.5H136.103V29.798H137.615L137.867 31.526H137.939C138.143 31.178 138.389 30.86 138.677 30.572C138.965 30.284 139.295 30.056 139.667 29.888C140.039 29.708 140.447 29.618 140.891 29.618ZM148.664 29.618C149.792 29.618 150.656 29.9 151.256 30.464C151.856 31.028 152.156 31.934 152.156 33.182V39.5H150.266V33.452C150.266 32.696 150.104 32.132 149.78 31.76C149.468 31.376 148.964 31.184 148.268 31.184C147.284 31.184 146.6 31.478 146.216 32.066C145.844 32.654 145.658 33.5 145.658 34.604V39.5H143.75V29.798H145.262L145.532 31.094H145.64C145.856 30.758 146.12 30.482 146.432 30.266C146.744 30.05 147.092 29.888 147.476 29.78C147.86 29.672 148.256 29.618 148.664 29.618ZM158.85 29.618C160.074 29.618 160.986 29.888 161.586 30.428C162.186 30.956 162.486 31.79 162.486 32.93V39.5H161.136L160.758 38.15H160.686C160.41 38.498 160.122 38.786 159.822 39.014C159.534 39.242 159.198 39.41 158.814 39.518C158.442 39.626 157.986 39.68 157.446 39.68C156.87 39.68 156.348 39.578 155.88 39.374C155.424 39.158 155.064 38.834 154.8 38.402C154.536 37.958 154.404 37.406 154.404 36.746C154.404 35.762 154.776 35.012 155.52 34.496C156.276 33.98 157.422 33.698 158.958 33.65L160.614 33.596V33.056C160.614 32.336 160.452 31.832 160.128 31.544C159.804 31.256 159.348 31.112 158.76 31.112C158.256 31.112 157.776 31.184 157.32 31.328C156.864 31.472 156.432 31.646 156.024 31.85L155.412 30.464C155.868 30.224 156.39 30.026 156.978 29.87C157.578 29.702 158.202 29.618 158.85 29.618ZM159.3 34.874C158.196 34.922 157.428 35.108 156.996 35.432C156.576 35.744 156.366 36.188 156.366 36.764C156.366 37.268 156.516 37.634 156.816 37.862C157.128 38.09 157.518 38.204 157.986 38.204C158.742 38.204 159.366 37.994 159.858 37.574C160.35 37.154 160.596 36.524 160.596 35.684V34.838L159.3 34.874ZM170.338 29.618C171.466 29.618 172.33 29.9 172.93 30.464C173.53 31.028 173.83 31.934 173.83 33.182V39.5H171.94V33.452C171.94 32.696 171.778 32.132 171.454 31.76C171.142 31.376 170.638 31.184 169.942 31.184C168.958 31.184 168.274 31.478 167.89 32.066C167.518 32.654 167.332 33.5 167.332 34.604V39.5H165.424V29.798H166.936L167.206 31.094H167.314C167.53 30.758 167.794 30.482 168.106 30.266C168.418 30.05 168.766 29.888 169.15 29.78C169.534 29.672 169.93 29.618 170.338 29.618ZM180.092 39.68C178.928 39.68 177.986 39.26 177.266 38.42C176.558 37.58 176.204 36.332 176.204 34.676C176.204 33.008 176.564 31.748 177.284 30.896C178.004 30.044 178.952 29.618 180.128 29.618C180.62 29.618 181.046 29.684 181.406 29.816C181.778 29.936 182.096 30.104 182.36 30.32C182.636 30.536 182.87 30.776 183.062 31.04H183.17C183.146 30.872 183.116 30.632 183.08 30.32C183.044 29.996 183.026 29.708 183.026 29.456V25.82H184.934V39.5H183.44L183.116 38.204H183.026C182.846 38.48 182.618 38.732 182.342 38.96C182.078 39.176 181.76 39.35 181.388 39.482C181.016 39.614 180.584 39.68 180.092 39.68ZM180.542 38.114C181.478 38.114 182.138 37.856 182.522 37.34C182.906 36.812 183.098 36.026 183.098 34.982V34.694C183.098 33.554 182.912 32.684 182.54 32.084C182.18 31.484 181.508 31.184 180.524 31.184C179.744 31.184 179.156 31.502 178.76 32.138C178.364 32.762 178.166 33.62 178.166 34.712C178.166 35.804 178.364 36.644 178.76 37.232C179.156 37.82 179.75 38.114 180.542 38.114ZM191.74 29.618C192.592 29.618 193.324 29.798 193.936 30.158C194.548 30.506 195.016 31.01 195.34 31.67C195.676 32.33 195.844 33.11 195.844 34.01V35.054H189.328C189.352 36.05 189.61 36.812 190.102 37.34C190.606 37.868 191.308 38.132 192.208 38.132C192.832 38.132 193.384 38.078 193.864 37.97C194.356 37.85 194.86 37.676 195.376 37.448V39.032C194.896 39.248 194.404 39.41 193.9 39.518C193.408 39.626 192.82 39.68 192.136 39.68C191.2 39.68 190.372 39.494 189.652 39.122C188.932 38.75 188.368 38.198 187.96 37.466C187.564 36.722 187.366 35.81 187.366 34.73C187.366 33.638 187.546 32.714 187.906 31.958C188.278 31.202 188.788 30.626 189.436 30.23C190.096 29.822 190.864 29.618 191.74 29.618ZM191.74 31.094C191.056 31.094 190.504 31.316 190.084 31.76C189.676 32.204 189.436 32.834 189.364 33.65H193.936C193.936 33.146 193.858 32.702 193.702 32.318C193.546 31.934 193.306 31.634 192.982 31.418C192.658 31.202 192.244 31.094 191.74 31.094ZM204.457 39.5H197.185V38.294L202.189 31.274H197.491V29.798H204.313V31.148L199.417 38.024H204.457V39.5ZM210.439 35.486V33.866H214.903V35.486H210.439ZM226.946 39.5H225.056V30.968C225.056 30.668 225.056 30.392 225.056 30.14C225.068 29.876 225.08 29.624 225.092 29.384C225.104 29.132 225.116 28.892 225.128 28.664C224.972 28.82 224.81 28.97 224.642 29.114C224.474 29.258 224.282 29.426 224.066 29.618L222.662 30.752L221.69 29.528L225.362 26.648H226.946V39.5ZM240.001 32.138C240.001 32.87 239.947 33.602 239.839 34.334C239.731 35.054 239.551 35.738 239.299 36.386C239.047 37.022 238.687 37.592 238.219 38.096C237.763 38.588 237.181 38.978 236.473 39.266C235.777 39.542 234.931 39.68 233.935 39.68C233.695 39.68 233.413 39.668 233.089 39.644C232.765 39.62 232.495 39.578 232.279 39.518V37.916C232.507 37.988 232.759 38.042 233.035 38.078C233.323 38.114 233.599 38.132 233.863 38.132C234.691 38.132 235.369 38.012 235.897 37.772C236.437 37.52 236.863 37.172 237.175 36.728C237.499 36.284 237.733 35.768 237.877 35.18C238.021 34.592 238.105 33.968 238.129 33.308H238.021C237.841 33.584 237.619 33.836 237.355 34.064C237.091 34.292 236.767 34.472 236.383 34.604C236.011 34.736 235.561 34.802 235.033 34.802C234.301 34.802 233.653 34.646 233.089 34.334C232.537 34.022 232.111 33.578 231.811 33.002C231.511 32.414 231.361 31.7 231.361 30.86C231.361 29.948 231.529 29.168 231.865 28.52C232.213 27.86 232.699 27.356 233.323 27.008C233.959 26.66 234.697 26.486 235.537 26.486C236.161 26.486 236.743 26.6 237.283 26.828C237.823 27.056 238.297 27.404 238.705 27.872C239.113 28.34 239.431 28.928 239.659 29.636C239.887 30.344 240.001 31.178 240.001 32.138ZM235.555 28.052C234.871 28.052 234.313 28.28 233.881 28.736C233.449 29.192 233.233 29.888 233.233 30.824C233.233 31.592 233.413 32.198 233.773 32.642C234.145 33.086 234.715 33.308 235.483 33.308C236.011 33.308 236.467 33.2 236.851 32.984C237.235 32.756 237.535 32.48 237.751 32.156C237.967 31.82 238.075 31.472 238.075 31.112C238.075 30.752 238.021 30.392 237.913 30.032C237.805 29.672 237.649 29.342 237.445 29.042C237.241 28.742 236.977 28.502 236.653 28.322C236.341 28.142 235.975 28.052 235.555 28.052ZM247.62 26.648L242.832 39.5H241.014L245.802 26.648H247.62ZM257.246 33.056C257.246 34.1 257.162 35.03 256.994 35.846C256.838 36.662 256.586 37.358 256.238 37.934C255.902 38.498 255.452 38.93 254.888 39.23C254.336 39.53 253.67 39.68 252.89 39.68C251.906 39.68 251.096 39.416 250.46 38.888C249.824 38.36 249.35 37.604 249.038 36.62C248.726 35.624 248.57 34.436 248.57 33.056C248.57 31.664 248.708 30.476 248.984 29.492C249.272 28.508 249.734 27.758 250.37 27.242C251.006 26.714 251.846 26.45 252.89 26.45C253.874 26.45 254.684 26.714 255.32 27.242C255.968 27.758 256.448 28.508 256.76 29.492C257.084 30.476 257.246 31.664 257.246 33.056ZM250.478 33.056C250.478 34.172 250.556 35.102 250.712 35.846C250.868 36.59 251.12 37.148 251.468 37.52C251.828 37.892 252.302 38.078 252.89 38.078C253.478 38.078 253.946 37.898 254.294 37.538C254.654 37.166 254.912 36.608 255.068 35.864C255.236 35.108 255.32 34.172 255.32 33.056C255.32 31.94 255.236 31.016 255.068 30.284C254.912 29.54 254.654 28.982 254.294 28.61C253.946 28.238 253.478 28.052 252.89 28.052C252.302 28.052 251.828 28.238 251.468 28.61C251.12 28.982 250.868 29.54 250.712 30.284C250.556 31.016 250.478 31.94 250.478 33.056ZM264.757 39.5H262.867V30.968C262.867 30.668 262.867 30.392 262.867 30.14C262.879 29.876 262.891 29.624 262.903 29.384C262.915 29.132 262.927 28.892 262.939 28.664C262.783 28.82 262.621 28.97 262.453 29.114C262.285 29.258 262.093 29.426 261.877 29.618L260.473 30.752L259.501 29.528L263.173 26.648H264.757V39.5ZM275.129 26.648L270.341 39.5H268.523L273.311 26.648H275.129ZM284.738 39.5H276.098V38.024L279.41 34.658C280.058 33.998 280.598 33.428 281.03 32.948C281.462 32.456 281.786 31.988 282.002 31.544C282.218 31.088 282.326 30.596 282.326 30.068C282.326 29.408 282.134 28.916 281.75 28.592C281.366 28.256 280.868 28.088 280.256 28.088C279.668 28.088 279.14 28.202 278.672 28.43C278.204 28.646 277.718 28.952 277.214 29.348L276.188 28.07C276.536 27.77 276.908 27.5 277.304 27.26C277.712 27.02 278.162 26.828 278.654 26.684C279.158 26.54 279.71 26.468 280.31 26.468C281.126 26.468 281.828 26.612 282.416 26.9C283.004 27.176 283.454 27.572 283.766 28.088C284.09 28.604 284.252 29.21 284.252 29.906C284.252 30.422 284.174 30.908 284.018 31.364C283.862 31.808 283.634 32.246 283.334 32.678C283.046 33.11 282.692 33.548 282.272 33.992C281.852 34.436 281.39 34.904 280.886 35.396L278.492 37.718V37.808H284.738V39.5ZM295.524 36.656H293.742V39.5H291.888V36.656H285.93V35.144L291.852 26.594H293.742V35.036H295.524V36.656ZM291.888 31.544C291.888 31.256 291.888 30.98 291.888 30.716C291.9 30.452 291.912 30.2 291.924 29.96C291.936 29.708 291.942 29.48 291.942 29.276C291.954 29.06 291.966 28.868 291.978 28.7H291.906C291.81 28.94 291.69 29.186 291.546 29.438C291.414 29.69 291.276 29.912 291.132 30.104L287.73 35.036H291.888V31.544Z" fill="#0F0000"/>
<path d="M368.5 31C370.709 31 372.5 29.2091 372.5 27C372.5 24.7909 370.709 23 368.5 23C366.291 23 364.5 24.7909 364.5 27C364.5 29.2091 366.291 31 368.5 31Z" stroke="#0F0000" stroke-width="1.8"/>
<path d="M376.5 38.5C376.5 40.985 376.5 43 368.5 43C360.5 43 360.5 40.985 360.5 38.5C360.5 36.015 364.082 34 368.5 34C372.918 34 376.5 36.015 376.5 38.5Z" stroke="#0F0000" stroke-width="1.8"/>
<path d="M393.076 28.076C394.569 28.076 395.657 28.3693 396.34 28.956C397.023 29.5427 397.364 30.3693 397.364 31.436C397.364 31.9053 397.284 32.3587 397.124 32.796C396.975 33.2227 396.724 33.6067 396.372 33.948C396.02 34.2893 395.551 34.5613 394.964 34.764C394.377 34.956 393.657 35.052 392.804 35.052H391.492V39.5H390.052V28.076H393.076ZM392.948 29.308H391.492V33.82H392.644C393.369 33.82 393.972 33.7453 394.452 33.596C394.932 33.436 395.289 33.1853 395.524 32.844C395.759 32.5027 395.876 32.0547 395.876 31.5C395.876 30.764 395.641 30.2147 395.172 29.852C394.703 29.4893 393.961 29.308 392.948 29.308ZM402.796 30.78C403.841 30.78 404.614 31.0093 405.116 31.468C405.617 31.9267 405.868 32.6573 405.868 33.66V39.5H404.844L404.572 38.284H404.508C404.262 38.5933 404.006 38.8547 403.74 39.068C403.484 39.2707 403.185 39.42 402.844 39.516C402.513 39.612 402.108 39.66 401.628 39.66C401.116 39.66 400.652 39.5693 400.236 39.388C399.83 39.2067 399.51 38.9293 399.276 38.556C399.041 38.172 398.924 37.692 398.924 37.116C398.924 36.2627 399.26 35.6067 399.932 35.148C400.604 34.6787 401.638 34.4227 403.036 34.38L404.492 34.332V33.82C404.492 33.1053 404.337 32.6093 404.028 32.332C403.718 32.0547 403.281 31.916 402.716 31.916C402.268 31.916 401.841 31.9853 401.436 32.124C401.03 32.252 400.652 32.4013 400.299 32.572L399.868 31.516C400.241 31.3133 400.684 31.1427 401.196 31.004C401.708 30.8547 402.241 30.78 402.796 30.78ZM403.212 35.356C402.145 35.3987 401.404 35.5693 400.988 35.868C400.582 36.1667 400.38 36.588 400.38 37.132C400.38 37.612 400.524 37.964 400.812 38.188C401.11 38.412 401.489 38.524 401.948 38.524C402.673 38.524 403.276 38.3267 403.756 37.932C404.236 37.5267 404.476 36.908 404.476 36.076V35.308L403.212 35.356ZM409.924 39.5H408.516V27.34H409.924V39.5ZM420.097 35.196C420.097 35.9107 420.001 36.5453 419.809 37.1C419.628 37.644 419.361 38.108 419.009 38.492C418.668 38.876 418.247 39.1693 417.745 39.372C417.255 39.564 416.705 39.66 416.097 39.66C415.532 39.66 415.009 39.564 414.529 39.372C414.049 39.1693 413.633 38.876 413.281 38.492C412.929 38.108 412.652 37.644 412.449 37.1C412.257 36.5453 412.161 35.9107 412.161 35.196C412.161 34.2467 412.321 33.4467 412.641 32.796C412.961 32.1347 413.42 31.6333 414.017 31.292C414.615 30.94 415.324 30.764 416.145 30.764C416.924 30.764 417.607 30.94 418.193 31.292C418.791 31.6333 419.255 32.1347 419.585 32.796C419.927 33.4467 420.097 34.2467 420.097 35.196ZM413.617 35.196C413.617 35.868 413.703 36.4547 413.873 36.956C414.055 37.4467 414.332 37.8253 414.705 38.092C415.079 38.3587 415.553 38.492 416.129 38.492C416.705 38.492 417.18 38.3587 417.553 38.092C417.927 37.8253 418.199 37.4467 418.369 36.956C418.551 36.4547 418.641 35.868 418.641 35.196C418.641 34.5133 418.551 33.932 418.369 33.452C418.188 32.972 417.911 32.604 417.537 32.348C417.175 32.0813 416.7 31.948 416.113 31.948C415.239 31.948 414.604 32.236 414.209 32.812C413.815 33.388 413.617 34.1827 413.617 35.196ZM431.737 30.764C432.707 30.764 433.433 31.0147 433.913 31.516C434.393 32.0067 434.633 32.8067 434.633 33.916V39.5H433.241V33.98C433.241 33.308 433.097 32.8013 432.809 32.46C432.531 32.1187 432.094 31.948 431.497 31.948C430.665 31.948 430.067 32.188 429.705 32.668C429.353 33.148 429.177 33.8467 429.177 34.764V39.5H427.785V33.98C427.785 33.532 427.721 33.1587 427.593 32.86C427.465 32.5507 427.273 32.3213 427.017 32.172C426.761 32.0227 426.43 31.948 426.025 31.948C425.449 31.948 424.995 32.0707 424.665 32.316C424.334 32.5507 424.094 32.8973 423.945 33.356C423.806 33.8147 423.737 34.38 423.737 35.052V39.5H422.329V30.924H423.465L423.673 32.092H423.753C423.934 31.7933 424.153 31.548 424.409 31.356C424.675 31.1533 424.969 31.004 425.289 30.908C425.609 30.812 425.939 30.764 426.281 30.764C426.942 30.764 427.491 30.8813 427.929 31.116C428.377 31.3507 428.702 31.7133 428.905 32.204H428.985C429.273 31.7133 429.662 31.3507 430.153 31.116C430.654 30.8813 431.182 30.764 431.737 30.764ZM440.53 30.78C441.575 30.78 442.349 31.0093 442.85 31.468C443.351 31.9267 443.602 32.6573 443.602 33.66V39.5H442.578L442.306 38.284H442.242C441.997 38.5933 441.741 38.8547 441.474 39.068C441.218 39.2707 440.919 39.42 440.578 39.516C440.247 39.612 439.842 39.66 439.362 39.66C438.85 39.66 438.386 39.5693 437.97 39.388C437.565 39.2067 437.245 38.9293 437.01 38.556C436.775 38.172 436.658 37.692 436.658 37.116C436.658 36.2627 436.994 35.6067 437.666 35.148C438.338 34.6787 439.373 34.4227 440.77 34.38L442.226 34.332V33.82C442.226 33.1053 442.071 32.6093 441.762 32.332C441.453 32.0547 441.015 31.916 440.45 31.916C440.002 31.916 439.575 31.9853 439.17 32.124C438.765 32.252 438.386 32.4013 438.034 32.572L437.602 31.516C437.975 31.3133 438.418 31.1427 438.93 31.004C439.442 30.8547 439.975 30.78 440.53 30.78ZM440.946 35.356C439.879 35.3987 439.138 35.5693 438.722 35.868C438.317 36.1667 438.114 36.588 438.114 37.132C438.114 37.612 438.258 37.964 438.546 38.188C438.845 38.412 439.223 38.524 439.682 38.524C440.407 38.524 441.01 38.3267 441.49 37.932C441.97 37.5267 442.21 36.908 442.21 36.076V35.308L440.946 35.356ZM460.567 33.772C460.567 34.6573 460.455 35.4627 460.231 36.188C460.007 36.9027 459.671 37.5213 459.223 38.044C458.786 38.5667 458.236 38.9667 457.575 39.244C456.924 39.5213 456.167 39.66 455.303 39.66C454.407 39.66 453.628 39.5213 452.967 39.244C452.306 38.956 451.756 38.556 451.319 38.044C450.882 37.5213 450.556 36.8973 450.343 36.172C450.13 35.4467 450.023 34.6413 450.023 33.756C450.023 32.5827 450.215 31.5587 450.599 30.684C450.983 29.8093 451.564 29.1267 452.343 28.636C453.132 28.1453 454.124 27.9 455.319 27.9C456.46 27.9 457.42 28.1453 458.199 28.636C458.978 29.116 459.564 29.7987 459.959 30.684C460.364 31.5587 460.567 32.588 460.567 33.772ZM451.543 33.772C451.543 34.732 451.676 35.5587 451.943 36.252C452.21 36.9453 452.62 37.4787 453.175 37.852C453.74 38.2253 454.45 38.412 455.303 38.412C456.167 38.412 456.871 38.2253 457.415 37.852C457.97 37.4787 458.38 36.9453 458.647 36.252C458.914 35.5587 459.047 34.732 459.047 33.772C459.047 32.332 458.748 31.2067 458.151 30.396C457.554 29.5747 456.61 29.164 455.319 29.164C454.455 29.164 453.74 29.3507 453.175 29.724C452.62 30.0867 452.21 30.6147 451.943 31.308C451.676 31.9907 451.543 32.812 451.543 33.772ZM466.347 39.66C465.59 39.66 464.912 39.5053 464.315 39.196C463.728 38.8867 463.264 38.4067 462.923 37.756C462.592 37.1053 462.427 36.2733 462.427 35.26C462.427 34.204 462.603 33.3453 462.955 32.684C463.307 32.0227 463.782 31.5373 464.379 31.228C464.987 30.9187 465.675 30.764 466.443 30.764C466.88 30.764 467.302 30.812 467.707 30.908C468.112 30.9933 468.443 31.1 468.699 31.228L468.267 32.396C468.011 32.3 467.712 32.2093 467.371 32.124C467.03 32.0387 466.71 31.996 466.411 31.996C465.835 31.996 465.36 32.1187 464.987 32.364C464.614 32.6093 464.336 32.972 464.155 33.452C463.974 33.932 463.883 34.5293 463.883 35.244C463.883 35.9267 463.974 36.508 464.155 36.988C464.336 37.468 464.608 37.8307 464.971 38.076C465.334 38.3213 465.787 38.444 466.331 38.444C466.8 38.444 467.211 38.396 467.563 38.3C467.926 38.204 468.256 38.0867 468.555 37.948V39.196C468.267 39.3453 467.947 39.4573 467.595 39.532C467.254 39.6173 466.838 39.66 466.347 39.66ZM473.842 30.78C474.888 30.78 475.661 31.0093 476.162 31.468C476.664 31.9267 476.914 32.6573 476.914 33.66V39.5H475.89L475.618 38.284H475.554C475.309 38.5933 475.053 38.8547 474.786 39.068C474.53 39.2707 474.232 39.42 473.89 39.516C473.56 39.612 473.154 39.66 472.674 39.66C472.162 39.66 471.698 39.5693 471.282 39.388C470.877 39.2067 470.557 38.9293 470.322 38.556C470.088 38.172 469.97 37.692 469.97 37.116C469.97 36.2627 470.306 35.6067 470.978 35.148C471.65 34.6787 472.685 34.4227 474.082 34.38L475.538 34.332V33.82C475.538 33.1053 475.384 32.6093 475.074 32.332C474.765 32.0547 474.328 31.916 473.762 31.916C473.314 31.916 472.888 31.9853 472.482 32.124C472.077 32.252 471.698 32.4013 471.346 32.572L470.914 31.516C471.288 31.3133 471.73 31.1427 472.242 31.004C472.754 30.8547 473.288 30.78 473.842 30.78ZM474.258 35.356C473.192 35.3987 472.45 35.5693 472.034 35.868C471.629 36.1667 471.426 36.588 471.426 37.132C471.426 37.612 471.57 37.964 471.858 38.188C472.157 38.412 472.536 38.524 472.994 38.524C473.72 38.524 474.322 38.3267 474.802 37.932C475.282 37.5267 475.522 36.908 475.522 36.076V35.308L474.258 35.356ZM483.691 30.764C484.715 30.764 485.488 31.0147 486.011 31.516C486.534 32.0067 486.795 32.8067 486.795 33.916V39.5H485.403V34.012C485.403 33.3187 485.248 32.8013 484.939 32.46C484.63 32.1187 484.144 31.948 483.483 31.948C482.534 31.948 481.878 32.2147 481.515 32.748C481.152 33.2813 480.971 34.0493 480.971 35.052V39.5H479.563V30.924H480.699L480.907 32.092H480.987C481.179 31.7933 481.414 31.548 481.691 31.356C481.979 31.1533 482.294 31.004 482.635 30.908C482.976 30.812 483.328 30.764 483.691 30.764ZM490.862 30.908C490.862 31.1107 490.851 31.3187 490.83 31.532C490.819 31.7453 490.803 31.9373 490.782 32.108H490.878C491.059 31.8093 491.288 31.564 491.566 31.372C491.843 31.18 492.152 31.036 492.494 30.94C492.835 30.8333 493.187 30.78 493.55 30.78C494.243 30.78 494.819 30.892 495.278 31.116C495.747 31.3293 496.099 31.6653 496.334 32.124C496.568 32.5827 496.686 33.18 496.686 33.916V39.5H495.294V34.012C495.294 33.3187 495.139 32.8013 494.83 32.46C494.52 32.1187 494.035 31.948 493.374 31.948C492.734 31.948 492.232 32.0707 491.87 32.316C491.507 32.5507 491.246 32.9027 491.086 33.372C490.936 33.8307 490.862 34.396 490.862 35.068V39.5H489.454V27.34H490.862V30.908ZM502.592 30.78C503.638 30.78 504.411 31.0093 504.912 31.468C505.414 31.9267 505.664 32.6573 505.664 33.66V39.5H504.64L504.368 38.284H504.304C504.059 38.5933 503.803 38.8547 503.536 39.068C503.28 39.2707 502.982 39.42 502.64 39.516C502.31 39.612 501.904 39.66 501.424 39.66C500.912 39.66 500.448 39.5693 500.032 39.388C499.627 39.2067 499.307 38.9293 499.072 38.556C498.838 38.172 498.72 37.692 498.72 37.116C498.72 36.2627 499.056 35.6067 499.728 35.148C500.4 34.6787 501.435 34.4227 502.832 34.38L504.288 34.332V33.82C504.288 33.1053 504.134 32.6093 503.824 32.332C503.515 32.0547 503.078 31.916 502.512 31.916C502.064 31.916 501.638 31.9853 501.232 32.124C500.827 32.252 500.448 32.4013 500.096 32.572L499.664 31.516C500.038 31.3133 500.48 31.1427 500.992 31.004C501.504 30.8547 502.038 30.78 502.592 30.78ZM503.008 35.356C501.942 35.3987 501.2 35.5693 500.784 35.868C500.379 36.1667 500.176 36.588 500.176 37.132C500.176 37.612 500.32 37.964 500.608 38.188C500.907 38.412 501.286 38.524 501.744 38.524C502.47 38.524 503.072 38.3267 503.552 37.932C504.032 37.5267 504.272 36.908 504.272 36.076V35.308L503.008 35.356Z" fill="#0F0000"/>
<circle cx="937.5" cy="33" r="9.5" fill="#CFC9C9"/>
<path d="M959.776 28.504C961.074 28.504 962.016 28.7747 962.604 29.316C963.202 29.8573 963.5 30.604 963.5 31.556C963.5 31.9853 963.435 32.396 963.304 32.788C963.174 33.1707 962.954 33.516 962.646 33.824C962.338 34.132 961.932 34.3747 961.428 34.552C960.934 34.7293 960.318 34.818 959.58 34.818H958.586V38.5H956.794V28.504H959.776ZM959.664 29.988H958.586V33.334H959.398C959.884 33.334 960.294 33.278 960.63 33.166C960.976 33.0447 961.237 32.858 961.414 32.606C961.592 32.354 961.68 32.0273 961.68 31.626C961.68 31.0753 961.517 30.6647 961.19 30.394C960.864 30.1233 960.355 29.988 959.664 29.988ZM968.346 30.772C969.027 30.772 969.611 30.912 970.096 31.192C970.591 31.4627 970.973 31.8547 971.244 32.368C971.515 32.872 971.65 33.488 971.65 34.216V35.112H966.638C966.657 35.8027 966.848 36.3393 967.212 36.722C967.576 37.0953 968.08 37.282 968.724 37.282C969.219 37.282 969.657 37.2353 970.04 37.142C970.432 37.0393 970.833 36.8947 971.244 36.708V38.122C970.871 38.2993 970.483 38.43 970.082 38.514C969.681 38.598 969.2 38.64 968.64 38.64C967.903 38.64 967.245 38.5 966.666 38.22C966.097 37.9307 965.649 37.4967 965.322 36.918C965.005 36.3393 964.846 35.6207 964.846 34.762C964.846 33.894 964.991 33.166 965.28 32.578C965.579 31.9807 965.989 31.5327 966.512 31.234C967.035 30.926 967.646 30.772 968.346 30.772ZM968.346 32.074C967.879 32.074 967.497 32.228 967.198 32.536C966.909 32.8347 966.736 33.2827 966.68 33.88H969.942C969.942 33.5253 969.881 33.2127 969.76 32.942C969.648 32.6713 969.475 32.4613 969.242 32.312C969.009 32.1533 968.71 32.074 968.346 32.074ZM977.489 30.772C978.338 30.772 979.001 30.9913 979.477 31.43C979.962 31.8687 980.205 32.578 980.205 33.558V38.5H978.441V33.908C978.441 33.3387 978.329 32.914 978.105 32.634C977.881 32.3447 977.526 32.2 977.041 32.2C976.332 32.2 975.846 32.424 975.585 32.872C975.324 33.3107 975.193 33.95 975.193 34.79V38.5H973.429V30.912H974.787L975.039 31.906H975.137C975.305 31.6447 975.51 31.43 975.753 31.262C975.996 31.094 976.266 30.9727 976.565 30.898C976.864 30.814 977.172 30.772 977.489 30.772ZM984.917 38.64C984.04 38.64 983.326 38.3133 982.775 37.66C982.234 36.9973 981.963 36.0173 981.963 34.72C981.963 33.4227 982.239 32.4427 982.789 31.78C983.34 31.108 984.063 30.772 984.959 30.772C985.333 30.772 985.659 30.8233 985.939 30.926C986.229 31.0193 986.476 31.15 986.681 31.318C986.887 31.486 987.059 31.6727 987.199 31.878H987.283C987.255 31.7473 987.227 31.5467 987.199 31.276C987.171 31.0053 987.157 30.7533 987.157 30.52V27.86H988.921V38.5H987.549L987.227 37.506H987.157C987.017 37.7113 986.845 37.9027 986.639 38.08C986.434 38.248 986.191 38.3833 985.911 38.486C985.631 38.5887 985.3 38.64 984.917 38.64ZM985.449 37.212C986.103 37.212 986.565 37.0253 986.835 36.652C987.106 36.2787 987.241 35.714 987.241 34.958V34.734C987.241 33.9127 987.111 33.2873 986.849 32.858C986.597 32.4287 986.121 32.214 985.421 32.214C984.889 32.214 984.479 32.438 984.189 32.886C983.9 33.3247 983.755 33.9453 983.755 34.748C983.755 35.5507 983.9 36.162 984.189 36.582C984.479 37.002 984.899 37.212 985.449 37.212ZM992.939 30.912V38.5H991.175V30.912H992.939ZM992.057 27.986C992.318 27.986 992.547 28.056 992.743 28.196C992.939 28.3267 993.037 28.5647 993.037 28.91C993.037 29.246 992.939 29.4887 992.743 29.638C992.547 29.778 992.318 29.848 992.057 29.848C991.786 29.848 991.553 29.778 991.357 29.638C991.17 29.4887 991.077 29.246 991.077 28.91C991.077 28.5647 991.17 28.3267 991.357 28.196C991.553 28.056 991.786 27.986 992.057 27.986ZM998.247 30.772C998.928 30.772 999.511 30.912 999.997 31.192C1000.49 31.4627 1000.87 31.8547 1001.14 32.368C1001.42 32.872 1001.55 33.488 1001.55 34.216V35.112H996.539C996.557 35.8027 996.749 36.3393 997.113 36.722C997.477 37.0953 997.981 37.282 998.625 37.282C999.119 37.282 999.558 37.2353 999.941 37.142C1000.33 37.0393 1000.73 36.8947 1001.14 36.708V38.122C1000.77 38.2993 1000.38 38.43 999.983 38.514C999.581 38.598 999.101 38.64 998.541 38.64C997.803 38.64 997.145 38.5 996.567 38.22C995.997 37.9307 995.549 37.4967 995.223 36.918C994.905 36.3393 994.747 35.6207 994.747 34.762C994.747 33.894 994.891 33.166 995.181 32.578C995.479 31.9807 995.89 31.5327 996.413 31.234C996.935 30.926 997.547 30.772 998.247 30.772ZM998.247 32.074C997.78 32.074 997.397 32.228 997.099 32.536C996.809 32.8347 996.637 33.2827 996.581 33.88H999.843C999.843 33.5253 999.782 33.2127 999.661 32.942C999.549 32.6713 999.376 32.4613 999.143 32.312C998.909 32.1533 998.611 32.074 998.247 32.074ZM1007.39 30.772C1008.24 30.772 1008.9 30.9913 1009.38 31.43C1009.86 31.8687 1010.11 32.578 1010.11 33.558V38.5H1008.34V33.908C1008.34 33.3387 1008.23 32.914 1008.01 32.634C1007.78 32.3447 1007.43 32.2 1006.94 32.2C1006.23 32.2 1005.75 32.424 1005.49 32.872C1005.22 33.3107 1005.09 33.95 1005.09 34.79V38.5H1003.33V30.912H1004.69L1004.94 31.906H1005.04C1005.21 31.6447 1005.41 31.43 1005.65 31.262C1005.9 31.094 1006.17 30.9727 1006.47 30.898C1006.76 30.814 1007.07 30.772 1007.39 30.772ZM1015.25 37.226C1015.48 37.226 1015.69 37.2073 1015.9 37.17C1016.1 37.1233 1016.29 37.072 1016.47 37.016V38.332C1016.28 38.416 1016.04 38.486 1015.74 38.542C1015.44 38.6073 1015.13 38.64 1014.8 38.64C1014.37 38.64 1013.98 38.57 1013.63 38.43C1013.28 38.2807 1013 38.0287 1012.79 37.674C1012.58 37.3193 1012.48 36.8247 1012.48 36.19V32.242H1011.46V31.472L1012.58 30.856L1013.14 29.246H1014.24V30.912H1016.4V32.242H1014.24V36.176C1014.24 36.5307 1014.34 36.7967 1014.52 36.974C1014.71 37.142 1014.95 37.226 1015.25 37.226ZM1021.05 30.772C1021.73 30.772 1022.32 30.912 1022.8 31.192C1023.3 31.4627 1023.68 31.8547 1023.95 32.368C1024.22 32.872 1024.36 33.488 1024.36 34.216V35.112H1019.34C1019.36 35.8027 1019.55 36.3393 1019.92 36.722C1020.28 37.0953 1020.79 37.282 1021.43 37.282C1021.92 37.282 1022.36 37.2353 1022.75 37.142C1023.14 37.0393 1023.54 36.8947 1023.95 36.708V38.122C1023.58 38.2993 1023.19 38.43 1022.79 38.514C1022.39 38.598 1021.91 38.64 1021.35 38.64C1020.61 38.64 1019.95 38.5 1019.37 38.22C1018.8 37.9307 1018.35 37.4967 1018.03 36.918C1017.71 36.3393 1017.55 35.6207 1017.55 34.762C1017.55 33.894 1017.7 33.166 1017.99 32.578C1018.28 31.9807 1018.69 31.5327 1019.22 31.234C1019.74 30.926 1020.35 30.772 1021.05 30.772ZM1021.05 32.074C1020.58 32.074 1020.2 32.228 1019.9 32.536C1019.61 32.8347 1019.44 33.2827 1019.39 33.88H1022.65C1022.65 33.5253 1022.59 33.2127 1022.47 32.942C1022.35 32.6713 1022.18 32.4613 1021.95 32.312C1021.71 32.1533 1021.42 32.074 1021.05 32.074Z" fill="#0F0000"/>
</svg>
