<svg width="1046" height="66" viewBox="0 0 1046 66" fill="none" xmlns="http://www.w3.org/2000/svg">
<rect x="0.5" y="0.5" width="1045" height="65" rx="8.5" stroke="#660000"/>
<rect x="17.25" y="17.25" width="31.5" height="31.5" rx="15.75" stroke="#867979" stroke-width="0.5"/>
<path d="M33.0007 31.6667C34.4734 31.6667 35.6673 30.4728 35.6673 29C35.6673 27.5272 34.4734 26.3333 33.0007 26.3333C31.5279 26.3333 30.334 27.5272 30.334 29C30.334 30.4728 31.5279 31.6667 33.0007 31.6667Z" stroke="#0F0000" stroke-width="1.2"/>
<path d="M38.3337 36.6667C38.3337 38.3233 38.3337 39.6667 33.0003 39.6667C27.667 39.6667 27.667 38.3233 27.667 36.6667C27.667 35.01 30.055 33.6667 33.0003 33.6667C35.9457 33.6667 38.3337 35.01 38.3337 36.6667Z" stroke="#0F0000" stroke-width="1.2"/>
<path d="M68.636 39.5H66.71V26.648H73.946V28.304H68.636V32.498H73.604V34.154H68.636V39.5ZM80.7918 29.618C80.9598 29.618 81.1458 29.63 81.3498 29.654C81.5538 29.666 81.7218 29.684 81.8538 29.708L81.6558 31.49C81.5238 31.454 81.3678 31.424 81.1878 31.4C81.0078 31.376 80.8398 31.364 80.6838 31.364C80.3238 31.364 79.9758 31.436 79.6398 31.58C79.3158 31.712 79.0218 31.91 78.7578 32.174C78.4938 32.426 78.2838 32.738 78.1278 33.11C77.9838 33.482 77.9118 33.908 77.9118 34.388V39.5H76.0038V29.798H77.5158L77.7678 31.526H77.8398C78.0438 31.178 78.2898 30.86 78.5778 30.572C78.8658 30.284 79.1958 30.056 79.5678 29.888C79.9398 29.708 80.3478 29.618 80.7918 29.618ZM87.0607 29.618C88.2847 29.618 89.1967 29.888 89.7967 30.428C90.3967 30.956 90.6967 31.79 90.6967 32.93V39.5H89.3467L88.9687 38.15H88.8967C88.6207 38.498 88.3327 38.786 88.0327 39.014C87.7447 39.242 87.4087 39.41 87.0247 39.518C86.6527 39.626 86.1967 39.68 85.6567 39.68C85.0807 39.68 84.5587 39.578 84.0907 39.374C83.6347 39.158 83.2747 38.834 83.0107 38.402C82.7467 37.958 82.6147 37.406 82.6147 36.746C82.6147 35.762 82.9867 35.012 83.7307 34.496C84.4867 33.98 85.6327 33.698 87.1687 33.65L88.8247 33.596V33.056C88.8247 32.336 88.6627 31.832 88.3387 31.544C88.0147 31.256 87.5587 31.112 86.9707 31.112C86.4667 31.112 85.9867 31.184 85.5307 31.328C85.0747 31.472 84.6427 31.646 84.2347 31.85L83.6227 30.464C84.0787 30.224 84.6007 30.026 85.1887 29.87C85.7887 29.702 86.4127 29.618 87.0607 29.618ZM87.5107 34.874C86.4067 34.922 85.6387 35.108 85.2067 35.432C84.7867 35.744 84.5767 36.188 84.5767 36.764C84.5767 37.268 84.7267 37.634 85.0267 37.862C85.3387 38.09 85.7287 38.204 86.1967 38.204C86.9527 38.204 87.5767 37.994 88.0687 37.574C88.5607 37.154 88.8067 36.524 88.8067 35.684V34.838L87.5107 34.874ZM98.5486 29.618C99.6766 29.618 100.541 29.9 101.141 30.464C101.741 31.028 102.041 31.934 102.041 33.182V39.5H100.151V33.452C100.151 32.696 99.9886 32.132 99.6646 31.76C99.3526 31.376 98.8486 31.184 98.1526 31.184C97.1686 31.184 96.4846 31.478 96.1006 32.066C95.7286 32.654 95.5426 33.5 95.5426 34.604V39.5H93.6346V29.798H95.1466L95.4166 31.094H95.5246C95.7406 30.758 96.0046 30.482 96.3166 30.266C96.6286 30.05 96.9766 29.888 97.3606 29.78C97.7446 29.672 98.1406 29.618 98.5486 29.618ZM108.879 39.68C107.991 39.68 107.211 39.506 106.539 39.158C105.867 38.81 105.345 38.27 104.973 37.538C104.601 36.794 104.415 35.852 104.415 34.712C104.415 33.512 104.613 32.54 105.009 31.796C105.417 31.052 105.963 30.506 106.647 30.158C107.343 29.798 108.135 29.618 109.023 29.618C109.563 29.618 110.067 29.678 110.535 29.798C111.015 29.906 111.411 30.032 111.723 30.176L111.147 31.724C110.811 31.592 110.451 31.478 110.067 31.382C109.695 31.286 109.341 31.238 109.005 31.238C108.405 31.238 107.907 31.37 107.511 31.634C107.127 31.886 106.839 32.27 106.647 32.786C106.467 33.29 106.377 33.926 106.377 34.694C106.377 35.426 106.473 36.044 106.665 36.548C106.857 37.052 107.139 37.436 107.511 37.7C107.895 37.952 108.369 38.078 108.933 38.078C109.473 38.078 109.947 38.018 110.355 37.898C110.763 37.778 111.147 37.622 111.507 37.43V39.086C111.159 39.29 110.781 39.44 110.373 39.536C109.965 39.632 109.467 39.68 108.879 39.68ZM115.705 29.798V39.5H113.797V29.798H115.705ZM114.769 26.108C115.057 26.108 115.309 26.192 115.525 26.36C115.741 26.528 115.849 26.81 115.849 27.206C115.849 27.59 115.741 27.872 115.525 28.052C115.309 28.22 115.057 28.304 114.769 28.304C114.457 28.304 114.193 28.22 113.977 28.052C113.773 27.872 113.671 27.59 113.671 27.206C113.671 26.81 113.773 26.528 113.977 26.36C114.193 26.192 114.457 26.108 114.769 26.108ZM125.145 36.764C125.145 37.4 124.989 37.934 124.677 38.366C124.365 38.798 123.915 39.128 123.327 39.356C122.739 39.572 122.031 39.68 121.203 39.68C120.519 39.68 119.931 39.626 119.439 39.518C118.959 39.422 118.515 39.278 118.107 39.086V37.412C118.539 37.616 119.037 37.802 119.601 37.97C120.165 38.126 120.717 38.204 121.257 38.204C121.977 38.204 122.493 38.09 122.805 37.862C123.129 37.634 123.291 37.328 123.291 36.944C123.291 36.728 123.231 36.536 123.111 36.368C122.991 36.188 122.763 36.008 122.427 35.828C122.103 35.636 121.623 35.42 120.987 35.18C120.375 34.928 119.853 34.682 119.421 34.442C118.989 34.19 118.659 33.896 118.431 33.56C118.203 33.212 118.089 32.768 118.089 32.228C118.089 31.388 118.425 30.746 119.097 30.302C119.781 29.846 120.681 29.618 121.797 29.618C122.385 29.618 122.937 29.678 123.453 29.798C123.981 29.906 124.491 30.074 124.983 30.302L124.353 31.76C124.077 31.628 123.789 31.52 123.489 31.436C123.201 31.34 122.907 31.262 122.607 31.202C122.319 31.142 122.019 31.112 121.707 31.112C121.131 31.112 120.693 31.202 120.393 31.382C120.093 31.562 119.943 31.814 119.943 32.138C119.943 32.366 120.009 32.564 120.141 32.732C120.285 32.9 120.531 33.068 120.879 33.236C121.227 33.404 121.701 33.608 122.301 33.848C122.901 34.076 123.411 34.31 123.831 34.55C124.263 34.79 124.587 35.084 124.803 35.432C125.031 35.78 125.145 36.224 125.145 36.764ZM131.326 39.68C130.438 39.68 129.658 39.506 128.986 39.158C128.314 38.81 127.792 38.27 127.42 37.538C127.048 36.794 126.862 35.852 126.862 34.712C126.862 33.512 127.06 32.54 127.456 31.796C127.864 31.052 128.41 30.506 129.094 30.158C129.79 29.798 130.582 29.618 131.47 29.618C132.01 29.618 132.514 29.678 132.982 29.798C133.462 29.906 133.858 30.032 134.17 30.176L133.594 31.724C133.258 31.592 132.898 31.478 132.514 31.382C132.142 31.286 131.788 31.238 131.452 31.238C130.852 31.238 130.354 31.37 129.958 31.634C129.574 31.886 129.286 32.27 129.094 32.786C128.914 33.29 128.824 33.926 128.824 34.694C128.824 35.426 128.92 36.044 129.112 36.548C129.304 37.052 129.586 37.436 129.958 37.7C130.342 37.952 130.816 38.078 131.38 38.078C131.92 38.078 132.394 38.018 132.802 37.898C133.21 37.778 133.594 37.622 133.954 37.43V39.086C133.606 39.29 133.228 39.44 132.82 39.536C132.412 39.632 131.914 39.68 131.326 39.68ZM144.794 34.64C144.794 35.444 144.686 36.158 144.47 36.782C144.254 37.406 143.948 37.934 143.552 38.366C143.156 38.798 142.676 39.128 142.112 39.356C141.548 39.572 140.912 39.68 140.204 39.68C139.556 39.68 138.956 39.572 138.404 39.356C137.852 39.128 137.372 38.798 136.964 38.366C136.568 37.934 136.256 37.406 136.028 36.782C135.8 36.158 135.686 35.438 135.686 34.622C135.686 33.554 135.866 32.648 136.226 31.904C136.598 31.16 137.126 30.596 137.81 30.212C138.506 29.816 139.322 29.618 140.258 29.618C141.146 29.618 141.926 29.816 142.598 30.212C143.282 30.596 143.816 31.16 144.2 31.904C144.596 32.648 144.794 33.56 144.794 34.64ZM137.648 34.64C137.648 35.36 137.738 35.984 137.918 36.512C138.098 37.028 138.38 37.424 138.764 37.7C139.148 37.976 139.64 38.114 140.24 38.114C140.84 38.114 141.332 37.976 141.716 37.7C142.1 37.424 142.382 37.028 142.562 36.512C142.742 35.984 142.832 35.36 142.832 34.64C142.832 33.896 142.736 33.272 142.544 32.768C142.364 32.264 142.082 31.88 141.698 31.616C141.326 31.34 140.834 31.202 140.222 31.202C139.322 31.202 138.668 31.502 138.26 32.102C137.852 32.702 137.648 33.548 137.648 34.64ZM161.465 26.648L156.929 39.5H154.913L150.395 26.648H152.393L155.147 34.712C155.255 35 155.357 35.312 155.453 35.648C155.549 35.972 155.639 36.296 155.723 36.62C155.807 36.944 155.873 37.25 155.921 37.538C155.981 37.25 156.047 36.944 156.119 36.62C156.203 36.296 156.293 35.966 156.389 35.63C156.497 35.294 156.599 34.982 156.695 34.694L159.449 26.648H161.465ZM164.871 29.798V39.5H162.963V29.798H164.871ZM163.935 26.108C164.223 26.108 164.475 26.192 164.691 26.36C164.907 26.528 165.015 26.81 165.015 27.206C165.015 27.59 164.907 27.872 164.691 28.052C164.475 28.22 164.223 28.304 163.935 28.304C163.623 28.304 163.359 28.22 163.143 28.052C162.939 27.872 162.837 27.59 162.837 27.206C162.837 26.81 162.939 26.528 163.143 26.36C163.359 26.192 163.623 26.108 163.935 26.108ZM170.045 39.5L166.373 29.798H168.389L170.405 35.468C170.489 35.708 170.573 35.978 170.657 36.278C170.753 36.578 170.837 36.866 170.909 37.142C170.981 37.418 171.029 37.658 171.053 37.862H171.125C171.161 37.658 171.215 37.418 171.287 37.142C171.371 36.854 171.461 36.566 171.557 36.278C171.653 35.978 171.737 35.708 171.809 35.468L173.825 29.798H175.841L172.151 39.5H170.045ZM181.104 29.618C182.328 29.618 183.24 29.888 183.84 30.428C184.44 30.956 184.74 31.79 184.74 32.93V39.5H183.39L183.012 38.15H182.94C182.664 38.498 182.376 38.786 182.076 39.014C181.788 39.242 181.452 39.41 181.068 39.518C180.696 39.626 180.24 39.68 179.7 39.68C179.124 39.68 178.602 39.578 178.134 39.374C177.678 39.158 177.318 38.834 177.054 38.402C176.79 37.958 176.658 37.406 176.658 36.746C176.658 35.762 177.03 35.012 177.774 34.496C178.53 33.98 179.676 33.698 181.212 33.65L182.868 33.596V33.056C182.868 32.336 182.706 31.832 182.382 31.544C182.058 31.256 181.602 31.112 181.014 31.112C180.51 31.112 180.03 31.184 179.574 31.328C179.118 31.472 178.686 31.646 178.278 31.85L177.666 30.464C178.122 30.224 178.644 30.026 179.232 29.87C179.832 29.702 180.456 29.618 181.104 29.618ZM181.554 34.874C180.45 34.922 179.682 35.108 179.25 35.432C178.83 35.744 178.62 36.188 178.62 36.764C178.62 37.268 178.77 37.634 179.07 37.862C179.382 38.09 179.772 38.204 180.24 38.204C180.996 38.204 181.62 37.994 182.112 37.574C182.604 37.154 182.85 36.524 182.85 35.684V34.838L181.554 34.874ZM194.122 36.764C194.122 37.4 193.966 37.934 193.654 38.366C193.342 38.798 192.892 39.128 192.304 39.356C191.716 39.572 191.008 39.68 190.18 39.68C189.496 39.68 188.908 39.626 188.416 39.518C187.936 39.422 187.492 39.278 187.084 39.086V37.412C187.516 37.616 188.014 37.802 188.578 37.97C189.142 38.126 189.694 38.204 190.234 38.204C190.954 38.204 191.47 38.09 191.782 37.862C192.106 37.634 192.268 37.328 192.268 36.944C192.268 36.728 192.208 36.536 192.088 36.368C191.968 36.188 191.74 36.008 191.404 35.828C191.08 35.636 190.6 35.42 189.964 35.18C189.352 34.928 188.83 34.682 188.398 34.442C187.966 34.19 187.636 33.896 187.408 33.56C187.18 33.212 187.066 32.768 187.066 32.228C187.066 31.388 187.402 30.746 188.074 30.302C188.758 29.846 189.658 29.618 190.774 29.618C191.362 29.618 191.914 29.678 192.43 29.798C192.958 29.906 193.468 30.074 193.96 30.302L193.33 31.76C193.054 31.628 192.766 31.52 192.466 31.436C192.178 31.34 191.884 31.262 191.584 31.202C191.296 31.142 190.996 31.112 190.684 31.112C190.108 31.112 189.67 31.202 189.37 31.382C189.07 31.562 188.92 31.814 188.92 32.138C188.92 32.366 188.986 32.564 189.118 32.732C189.262 32.9 189.508 33.068 189.856 33.236C190.204 33.404 190.678 33.608 191.278 33.848C191.878 34.076 192.388 34.31 192.808 34.55C193.24 34.79 193.564 35.084 193.78 35.432C194.008 35.78 194.122 36.224 194.122 36.764ZM200.244 35.486V33.866H204.708V35.486H200.244ZM216.751 39.5H214.861V30.968C214.861 30.668 214.861 30.392 214.861 30.14C214.873 29.876 214.885 29.624 214.897 29.384C214.909 29.132 214.921 28.892 214.933 28.664C214.777 28.82 214.615 28.97 214.447 29.114C214.279 29.258 214.087 29.426 213.871 29.618L212.467 30.752L211.495 29.528L215.167 26.648H216.751V39.5ZM225.485 26.468C226.241 26.468 226.913 26.588 227.501 26.828C228.089 27.056 228.551 27.398 228.887 27.854C229.235 28.31 229.409 28.88 229.409 29.564C229.409 30.08 229.301 30.53 229.085 30.914C228.869 31.298 228.581 31.64 228.221 31.94C227.861 32.228 227.459 32.48 227.015 32.696C227.519 32.948 227.981 33.236 228.401 33.56C228.833 33.872 229.175 34.238 229.427 34.658C229.691 35.078 229.823 35.582 229.823 36.17C229.823 36.89 229.643 37.514 229.283 38.042C228.935 38.558 228.437 38.96 227.789 39.248C227.141 39.536 226.385 39.68 225.521 39.68C224.597 39.68 223.805 39.542 223.145 39.266C222.497 38.99 222.005 38.6 221.669 38.096C221.333 37.58 221.165 36.956 221.165 36.224C221.165 35.636 221.285 35.126 221.525 34.694C221.765 34.262 222.083 33.89 222.479 33.578C222.875 33.266 223.307 33.002 223.775 32.786C223.367 32.546 222.995 32.276 222.659 31.976C222.323 31.664 222.059 31.31 221.867 30.914C221.675 30.518 221.579 30.062 221.579 29.546C221.579 28.874 221.753 28.316 222.101 27.872C222.449 27.416 222.917 27.068 223.505 26.828C224.105 26.588 224.765 26.468 225.485 26.468ZM223.001 36.188C223.001 36.776 223.205 37.262 223.613 37.646C224.021 38.018 224.645 38.204 225.485 38.204C226.037 38.204 226.493 38.12 226.853 37.952C227.225 37.772 227.507 37.532 227.699 37.232C227.891 36.92 227.987 36.566 227.987 36.17C227.987 35.774 227.879 35.426 227.663 35.126C227.459 34.826 227.171 34.562 226.799 34.334C226.439 34.094 226.019 33.878 225.539 33.686L225.269 33.578C224.777 33.782 224.363 34.01 224.027 34.262C223.691 34.514 223.433 34.796 223.253 35.108C223.085 35.42 223.001 35.78 223.001 36.188ZM225.467 27.962C224.879 27.962 224.387 28.106 223.991 28.394C223.607 28.682 223.415 29.102 223.415 29.654C223.415 30.05 223.511 30.386 223.703 30.662C223.895 30.938 224.153 31.178 224.477 31.382C224.801 31.574 225.155 31.76 225.539 31.94C225.923 31.772 226.265 31.592 226.565 31.4C226.865 31.196 227.105 30.956 227.285 30.68C227.465 30.392 227.555 30.05 227.555 29.654C227.555 29.102 227.363 28.682 226.979 28.394C226.595 28.106 226.091 27.962 225.467 27.962ZM237.424 26.648L232.636 39.5H230.818L235.606 26.648H237.424ZM247.05 33.056C247.05 34.1 246.966 35.03 246.798 35.846C246.642 36.662 246.39 37.358 246.042 37.934C245.706 38.498 245.256 38.93 244.692 39.23C244.14 39.53 243.474 39.68 242.694 39.68C241.71 39.68 240.9 39.416 240.264 38.888C239.628 38.36 239.154 37.604 238.842 36.62C238.53 35.624 238.374 34.436 238.374 33.056C238.374 31.664 238.512 30.476 238.788 29.492C239.076 28.508 239.538 27.758 240.174 27.242C240.81 26.714 241.65 26.45 242.694 26.45C243.678 26.45 244.488 26.714 245.124 27.242C245.772 27.758 246.252 28.508 246.564 29.492C246.888 30.476 247.05 31.664 247.05 33.056ZM240.282 33.056C240.282 34.172 240.36 35.102 240.516 35.846C240.672 36.59 240.924 37.148 241.272 37.52C241.632 37.892 242.106 38.078 242.694 38.078C243.282 38.078 243.75 37.898 244.098 37.538C244.458 37.166 244.716 36.608 244.872 35.864C245.04 35.108 245.124 34.172 245.124 33.056C245.124 31.94 245.04 31.016 244.872 30.284C244.716 29.54 244.458 28.982 244.098 28.61C243.75 28.238 243.282 28.052 242.694 28.052C242.106 28.052 241.632 28.238 241.272 28.61C240.924 28.982 240.672 29.54 240.516 30.284C240.36 31.016 240.282 31.94 240.282 33.056ZM254.561 39.5H252.671V30.968C252.671 30.668 252.671 30.392 252.671 30.14C252.683 29.876 252.695 29.624 252.707 29.384C252.719 29.132 252.731 28.892 252.743 28.664C252.587 28.82 252.425 28.97 252.257 29.114C252.089 29.258 251.897 29.426 251.681 29.618L250.277 30.752L249.305 29.528L252.977 26.648H254.561V39.5ZM264.934 26.648L260.146 39.5H258.328L263.116 26.648H264.934ZM274.542 39.5H265.902V38.024L269.214 34.658C269.862 33.998 270.402 33.428 270.834 32.948C271.266 32.456 271.59 31.988 271.806 31.544C272.022 31.088 272.13 30.596 272.13 30.068C272.13 29.408 271.938 28.916 271.554 28.592C271.17 28.256 270.672 28.088 270.06 28.088C269.472 28.088 268.944 28.202 268.476 28.43C268.008 28.646 267.522 28.952 267.018 29.348L265.992 28.07C266.34 27.77 266.712 27.5 267.108 27.26C267.516 27.02 267.966 26.828 268.458 26.684C268.962 26.54 269.514 26.468 270.114 26.468C270.93 26.468 271.632 26.612 272.22 26.9C272.808 27.176 273.258 27.572 273.57 28.088C273.894 28.604 274.056 29.21 274.056 29.906C274.056 30.422 273.978 30.908 273.822 31.364C273.666 31.808 273.438 32.246 273.138 32.678C272.85 33.11 272.496 33.548 272.076 33.992C271.656 34.436 271.194 34.904 270.69 35.396L268.296 37.718V37.808H274.542V39.5ZM285.329 36.656H283.547V39.5H281.693V36.656H275.735V35.144L281.657 26.594H283.547V35.036H285.329V36.656ZM281.693 31.544C281.693 31.256 281.693 30.98 281.693 30.716C281.705 30.452 281.717 30.2 281.729 29.96C281.741 29.708 281.747 29.48 281.747 29.276C281.759 29.06 281.771 28.868 281.783 28.7H281.711C281.615 28.94 281.495 29.186 281.351 29.438C281.219 29.69 281.081 29.912 280.937 30.104L277.535 35.036H281.693V31.544Z" fill="#0F0000"/>
<path d="M368.5 31C370.709 31 372.5 29.2091 372.5 27C372.5 24.7909 370.709 23 368.5 23C366.291 23 364.5 24.7909 364.5 27C364.5 29.2091 366.291 31 368.5 31Z" stroke="#0F0000" stroke-width="1.8"/>
<path d="M376.5 38.5C376.5 40.985 376.5 43 368.5 43C360.5 43 360.5 40.985 360.5 38.5C360.5 36.015 364.082 34 368.5 34C372.918 34 376.5 36.015 376.5 38.5Z" stroke="#0F0000" stroke-width="1.8"/>
<path d="M397.22 39.5L395.844 35.964H391.316L389.956 39.5H388.5L392.964 28.028H394.26L398.708 39.5H397.22ZM394.132 31.228C394.1 31.1427 394.047 30.988 393.972 30.764C393.897 30.54 393.823 30.3107 393.748 30.076C393.684 29.8307 393.631 29.644 393.588 29.516C393.535 29.7293 393.476 29.948 393.412 30.172C393.359 30.3853 393.3 30.5827 393.236 30.764C393.183 30.9453 393.135 31.1 393.092 31.228L391.796 34.684H395.412L394.132 31.228ZM404.207 30.764C405.231 30.764 406.004 31.0147 406.527 31.516C407.049 32.0067 407.311 32.8067 407.311 33.916V39.5H405.919V34.012C405.919 33.3187 405.764 32.8013 405.455 32.46C405.145 32.1187 404.66 31.948 403.999 31.948C403.049 31.948 402.393 32.2147 402.031 32.748C401.668 33.2813 401.487 34.0493 401.487 35.052V39.5H400.079V30.924H401.215L401.423 32.092H401.503C401.695 31.7933 401.929 31.548 402.207 31.356C402.495 31.1533 402.809 31.004 403.151 30.908C403.492 30.812 403.844 30.764 404.207 30.764ZM413.009 39.66C411.943 39.66 411.089 39.292 410.449 38.556C409.809 37.8093 409.489 36.7 409.489 35.228C409.489 33.756 409.809 32.6467 410.449 31.9C411.1 31.1427 411.959 30.764 413.025 30.764C413.473 30.764 413.863 30.8227 414.193 30.94C414.524 31.0467 414.812 31.196 415.057 31.388C415.303 31.58 415.511 31.7933 415.681 32.028H415.777C415.767 31.8893 415.745 31.6867 415.713 31.42C415.692 31.1427 415.681 30.924 415.681 30.764V27.34H417.089V39.5H415.953L415.745 38.348H415.681C415.511 38.5933 415.303 38.8173 415.057 39.02C414.812 39.212 414.519 39.3667 414.177 39.484C413.847 39.6013 413.457 39.66 413.009 39.66ZM413.233 38.492C414.14 38.492 414.775 38.2467 415.137 37.756C415.511 37.2547 415.697 36.5027 415.697 35.5V35.244C415.697 34.1773 415.521 33.3613 415.169 32.796C414.817 32.22 414.167 31.932 413.217 31.932C412.46 31.932 411.889 32.236 411.505 32.844C411.132 33.4413 410.945 34.2467 410.945 35.26C410.945 36.284 411.132 37.0787 411.505 37.644C411.889 38.2093 412.465 38.492 413.233 38.492ZM423.813 30.764C423.973 30.764 424.144 30.7747 424.325 30.796C424.517 30.8067 424.682 30.828 424.821 30.86L424.645 32.156C424.506 32.124 424.352 32.0973 424.181 32.076C424.021 32.0547 423.866 32.044 423.717 32.044C423.386 32.044 423.072 32.1133 422.773 32.252C422.474 32.3907 422.208 32.588 421.973 32.844C421.738 33.0893 421.552 33.388 421.413 33.74C421.285 34.092 421.221 34.4867 421.221 34.924V39.5H419.813V30.924H420.965L421.125 32.492H421.189C421.37 32.172 421.589 31.884 421.845 31.628C422.101 31.3613 422.394 31.1533 422.725 31.004C423.056 30.844 423.418 30.764 423.813 30.764ZM429.422 30.764C430.158 30.764 430.787 30.924 431.31 31.244C431.843 31.564 432.249 32.0173 432.526 32.604C432.814 33.18 432.958 33.8573 432.958 34.636V35.484H427.086C427.107 36.4547 427.353 37.196 427.822 37.708C428.302 38.2093 428.969 38.46 429.822 38.46C430.366 38.46 430.846 38.412 431.262 38.316C431.689 38.2093 432.126 38.06 432.574 37.868V39.1C432.137 39.292 431.705 39.4307 431.278 39.516C430.851 39.612 430.345 39.66 429.758 39.66C428.947 39.66 428.227 39.4947 427.598 39.164C426.979 38.8333 426.494 38.3427 426.142 37.692C425.801 37.0307 425.63 36.2253 425.63 35.276C425.63 34.3373 425.785 33.532 426.094 32.86C426.414 32.188 426.857 31.6707 427.422 31.308C427.998 30.9453 428.665 30.764 429.422 30.764ZM429.406 31.916C428.734 31.916 428.201 32.1347 427.806 32.572C427.422 32.9987 427.193 33.596 427.118 34.364H431.486C431.486 33.8733 431.411 33.4467 431.262 33.084C431.113 32.7213 430.883 32.4387 430.574 32.236C430.275 32.0227 429.886 31.916 429.406 31.916ZM438.389 30.78C439.435 30.78 440.208 31.0093 440.709 31.468C441.211 31.9267 441.461 32.6573 441.461 33.66V39.5H440.437L440.165 38.284H440.101C439.856 38.5933 439.6 38.8547 439.333 39.068C439.077 39.2707 438.779 39.42 438.437 39.516C438.107 39.612 437.701 39.66 437.221 39.66C436.709 39.66 436.245 39.5693 435.829 39.388C435.424 39.2067 435.104 38.9293 434.869 38.556C434.635 38.172 434.517 37.692 434.517 37.116C434.517 36.2627 434.853 35.6067 435.525 35.148C436.197 34.6787 437.232 34.4227 438.629 34.38L440.085 34.332V33.82C440.085 33.1053 439.931 32.6093 439.621 32.332C439.312 32.0547 438.875 31.916 438.309 31.916C437.861 31.916 437.435 31.9853 437.029 32.124C436.624 32.252 436.245 32.4013 435.893 32.572L435.461 31.516C435.835 31.3133 436.277 31.1427 436.789 31.004C437.301 30.8547 437.835 30.78 438.389 30.78ZM438.805 35.356C437.739 35.3987 436.997 35.5693 436.581 35.868C436.176 36.1667 435.973 36.588 435.973 37.132C435.973 37.612 436.117 37.964 436.405 38.188C436.704 38.412 437.083 38.524 437.541 38.524C438.267 38.524 438.869 38.3267 439.349 37.932C439.829 37.5267 440.069 36.908 440.069 36.076V35.308L438.805 35.356ZM457.61 33.676C457.61 34.956 457.37 36.028 456.89 36.892C456.421 37.756 455.744 38.4067 454.858 38.844C453.973 39.2813 452.901 39.5 451.642 39.5H448.458V28.076H451.978C453.13 28.076 454.128 28.2893 454.97 28.716C455.813 29.1427 456.464 29.772 456.922 30.604C457.381 31.4253 457.61 32.4493 457.61 33.676ZM456.09 33.724C456.09 32.7107 455.92 31.8787 455.578 31.228C455.248 30.5773 454.757 30.0973 454.106 29.788C453.466 29.468 452.688 29.308 451.77 29.308H449.898V38.268H451.45C452.997 38.268 454.154 37.8893 454.922 37.132C455.701 36.364 456.09 35.228 456.09 33.724ZM463.266 30.764C464.002 30.764 464.631 30.924 465.154 31.244C465.687 31.564 466.092 32.0173 466.37 32.604C466.658 33.18 466.802 33.8573 466.802 34.636V35.484H460.93C460.951 36.4547 461.196 37.196 461.666 37.708C462.146 38.2093 462.812 38.46 463.666 38.46C464.21 38.46 464.69 38.412 465.106 38.316C465.532 38.2093 465.97 38.06 466.418 37.868V39.1C465.98 39.292 465.548 39.4307 465.122 39.516C464.695 39.612 464.188 39.66 463.602 39.66C462.791 39.66 462.071 39.4947 461.442 39.164C460.823 38.8333 460.338 38.3427 459.986 37.692C459.644 37.0307 459.474 36.2253 459.474 35.276C459.474 34.3373 459.628 33.532 459.938 32.86C460.258 32.188 460.7 31.6707 461.266 31.308C461.842 30.9453 462.508 30.764 463.266 30.764ZM463.25 31.916C462.578 31.916 462.044 32.1347 461.65 32.572C461.266 32.9987 461.036 33.596 460.962 34.364H465.33C465.33 33.8733 465.255 33.4467 465.106 33.084C464.956 32.7213 464.727 32.4387 464.418 32.236C464.119 32.0227 463.73 31.916 463.25 31.916ZM474.569 37.132C474.569 37.6867 474.43 38.1507 474.153 38.524C473.876 38.8973 473.481 39.18 472.969 39.372C472.457 39.564 471.849 39.66 471.145 39.66C470.548 39.66 470.03 39.612 469.593 39.516C469.166 39.42 468.788 39.2867 468.457 39.116V37.836C468.798 38.0067 469.209 38.1667 469.689 38.316C470.18 38.4547 470.676 38.524 471.177 38.524C471.892 38.524 472.409 38.412 472.729 38.188C473.049 37.9533 473.209 37.644 473.209 37.26C473.209 37.0467 473.15 36.8547 473.033 36.684C472.916 36.5133 472.702 36.3427 472.393 36.172C472.094 36.0013 471.662 35.8093 471.097 35.596C470.542 35.3827 470.068 35.1693 469.673 34.956C469.278 34.7427 468.974 34.4867 468.761 34.188C468.548 33.8893 468.441 33.5053 468.441 33.036C468.441 32.3107 468.734 31.7507 469.321 31.356C469.918 30.9613 470.697 30.764 471.657 30.764C472.18 30.764 472.665 30.8173 473.113 30.924C473.572 31.02 473.998 31.1587 474.393 31.34L473.913 32.46C473.678 32.3533 473.428 32.2627 473.161 32.188C472.905 32.1027 472.644 32.0387 472.377 31.996C472.11 31.9427 471.838 31.916 471.561 31.916C470.985 31.916 470.542 32.012 470.233 32.204C469.934 32.3853 469.785 32.636 469.785 32.956C469.785 33.1907 469.854 33.3933 469.993 33.564C470.132 33.724 470.361 33.884 470.681 34.044C471.012 34.1933 471.449 34.3747 471.993 34.588C472.537 34.7907 473.001 34.9987 473.385 35.212C473.769 35.4253 474.062 35.6867 474.265 35.996C474.468 36.2947 474.569 36.6733 474.569 37.132ZM478.033 33.692C478.033 33.8627 478.023 34.0867 478.001 34.364C477.991 34.6413 477.98 34.8813 477.969 35.084H478.033C478.097 34.9987 478.193 34.876 478.321 34.716C478.449 34.556 478.577 34.396 478.705 34.236C478.844 34.0653 478.961 33.9267 479.057 33.82L481.793 30.924H483.441L479.969 34.588L483.681 39.5H481.985L479.009 35.5L478.033 36.348V39.5H476.641V27.34H478.033V33.692ZM492.644 35.196C492.644 35.9107 492.548 36.5453 492.356 37.1C492.175 37.644 491.908 38.108 491.556 38.492C491.215 38.876 490.793 39.1693 490.292 39.372C489.801 39.564 489.252 39.66 488.644 39.66C488.079 39.66 487.556 39.564 487.076 39.372C486.596 39.1693 486.18 38.876 485.828 38.492C485.476 38.108 485.199 37.644 484.996 37.1C484.804 36.5453 484.708 35.9107 484.708 35.196C484.708 34.2467 484.868 33.4467 485.188 32.796C485.508 32.1347 485.967 31.6333 486.564 31.292C487.161 30.94 487.871 30.764 488.692 30.764C489.471 30.764 490.153 30.94 490.74 31.292C491.337 31.6333 491.801 32.1347 492.132 32.796C492.473 33.4467 492.644 34.2467 492.644 35.196ZM486.164 35.196C486.164 35.868 486.249 36.4547 486.42 36.956C486.601 37.4467 486.879 37.8253 487.252 38.092C487.625 38.3587 488.1 38.492 488.676 38.492C489.252 38.492 489.727 38.3587 490.1 38.092C490.473 37.8253 490.745 37.4467 490.916 36.956C491.097 36.4547 491.188 35.868 491.188 35.196C491.188 34.5133 491.097 33.932 490.916 33.452C490.735 32.972 490.457 32.604 490.084 32.348C489.721 32.0813 489.247 31.948 488.66 31.948C487.785 31.948 487.151 32.236 486.756 32.812C486.361 33.388 486.164 34.1827 486.164 35.196ZM496.451 39.5L493.203 30.924H494.707L496.531 35.98C496.616 36.2147 496.707 36.476 496.803 36.764C496.899 37.052 496.984 37.3293 497.059 37.596C497.134 37.852 497.187 38.0707 497.219 38.252H497.283C497.326 38.0707 497.384 37.8467 497.459 37.58C497.544 37.3133 497.635 37.036 497.731 36.748C497.838 36.46 497.928 36.204 498.003 35.98L499.827 30.924H501.331L498.067 39.5H496.451ZM504.096 30.924V39.5H502.688V30.924H504.096ZM503.408 27.708C503.621 27.708 503.808 27.7827 503.968 27.932C504.139 28.0707 504.224 28.2947 504.224 28.604C504.224 28.9027 504.139 29.1267 503.968 29.276C503.808 29.4253 503.621 29.5 503.408 29.5C503.173 29.5 502.976 29.4253 502.816 29.276C502.656 29.1267 502.576 28.9027 502.576 28.604C502.576 28.2947 502.656 28.0707 502.816 27.932C502.976 27.7827 503.173 27.708 503.408 27.708ZM510.253 39.66C509.496 39.66 508.818 39.5053 508.221 39.196C507.634 38.8867 507.17 38.4067 506.829 37.756C506.498 37.1053 506.333 36.2733 506.333 35.26C506.333 34.204 506.509 33.3453 506.861 32.684C507.213 32.0227 507.688 31.5373 508.285 31.228C508.893 30.9187 509.581 30.764 510.349 30.764C510.786 30.764 511.208 30.812 511.613 30.908C512.018 30.9933 512.349 31.1 512.605 31.228L512.173 32.396C511.917 32.3 511.618 32.2093 511.277 32.124C510.936 32.0387 510.616 31.996 510.317 31.996C509.741 31.996 509.266 32.1187 508.893 32.364C508.52 32.6093 508.242 32.972 508.061 33.452C507.88 33.932 507.789 34.5293 507.789 35.244C507.789 35.9267 507.88 36.508 508.061 36.988C508.242 37.468 508.514 37.8307 508.877 38.076C509.24 38.3213 509.693 38.444 510.237 38.444C510.706 38.444 511.117 38.396 511.469 38.3C511.832 38.204 512.162 38.0867 512.461 37.948V39.196C512.173 39.3453 511.853 39.4573 511.501 39.532C511.16 39.6173 510.744 39.66 510.253 39.66Z" fill="#0F0000"/>
<circle cx="937.5" cy="33" r="9.5" fill="#FF1E10"/>
<path d="M959.767 28.504C960.644 28.504 961.368 28.6113 961.937 28.826C962.506 29.0407 962.931 29.3673 963.211 29.806C963.491 30.2353 963.631 30.7813 963.631 31.444C963.631 31.9293 963.538 32.3447 963.351 32.69C963.174 33.0353 962.94 33.3247 962.651 33.558C962.362 33.782 962.049 33.964 961.713 34.104L964.583 38.5H962.567L960.173 34.552H958.717V38.5H956.925V28.504H959.767ZM959.655 30.002H958.717V33.082H959.711C960.206 33.082 960.607 33.0213 960.915 32.9C961.223 32.7787 961.447 32.6013 961.587 32.368C961.736 32.1347 961.811 31.8453 961.811 31.5C961.811 31.136 961.732 30.8467 961.573 30.632C961.414 30.408 961.176 30.2493 960.859 30.156C960.551 30.0533 960.15 30.002 959.655 30.002ZM968.86 30.772C969.541 30.772 970.124 30.912 970.61 31.192C971.104 31.4627 971.487 31.8547 971.758 32.368C972.028 32.872 972.164 33.488 972.164 34.216V35.112H967.152C967.17 35.8027 967.362 36.3393 967.726 36.722C968.09 37.0953 968.594 37.282 969.238 37.282C969.732 37.282 970.171 37.2353 970.554 37.142C970.946 37.0393 971.347 36.8947 971.758 36.708V38.122C971.384 38.2993 970.997 38.43 970.596 38.514C970.194 38.598 969.714 38.64 969.154 38.64C968.416 38.64 967.758 38.5 967.18 38.22C966.61 37.9307 966.162 37.4967 965.836 36.918C965.518 36.3393 965.36 35.6207 965.36 34.762C965.36 33.894 965.504 33.166 965.794 32.578C966.092 31.9807 966.503 31.5327 967.026 31.234C967.548 30.926 968.16 30.772 968.86 30.772ZM968.86 32.074C968.393 32.074 968.01 32.228 967.712 32.536C967.422 32.8347 967.25 33.2827 967.194 33.88H970.456C970.456 33.5253 970.395 33.2127 970.274 32.942C970.162 32.6713 969.989 32.4613 969.756 32.312C969.522 32.1533 969.224 32.074 968.86 32.074ZM977.009 38.64C976.29 38.64 975.665 38.5047 975.133 38.234C974.61 37.954 974.204 37.5293 973.915 36.96C973.635 36.3813 973.495 35.644 973.495 34.748C973.495 33.8147 973.649 33.0587 973.957 32.48C974.274 31.892 974.708 31.4627 975.259 31.192C975.809 30.912 976.439 30.772 977.149 30.772C977.625 30.772 978.049 30.8187 978.423 30.912C978.796 31.0053 979.113 31.1173 979.375 31.248L978.857 32.634C978.567 32.522 978.278 32.4287 977.989 32.354C977.699 32.27 977.419 32.228 977.149 32.228C976.729 32.228 976.379 32.3213 976.099 32.508C975.828 32.6947 975.627 32.9747 975.497 33.348C975.366 33.712 975.301 34.174 975.301 34.734C975.301 35.2753 975.366 35.728 975.497 36.092C975.637 36.456 975.842 36.7313 976.113 36.918C976.383 37.0953 976.719 37.184 977.121 37.184C977.55 37.184 977.928 37.1327 978.255 37.03C978.581 36.9273 978.889 36.7873 979.179 36.61V38.136C978.889 38.3133 978.577 38.4393 978.241 38.514C977.914 38.598 977.503 38.64 977.009 38.64ZM982.72 30.394C982.72 30.6927 982.706 30.9867 982.678 31.276C982.66 31.556 982.641 31.766 982.622 31.906H982.734C982.893 31.6447 983.089 31.4347 983.322 31.276C983.556 31.108 983.812 30.982 984.092 30.898C984.382 30.814 984.68 30.772 984.988 30.772C985.558 30.772 986.048 30.87 986.458 31.066C986.869 31.262 987.182 31.5653 987.396 31.976C987.62 32.3773 987.732 32.9047 987.732 33.558V38.5H985.968V33.908C985.968 33.3293 985.856 32.9 985.632 32.62C985.408 32.34 985.054 32.2 984.568 32.2C984.102 32.2 983.733 32.3027 983.462 32.508C983.192 32.704 983 32.998 982.888 33.39C982.776 33.7727 982.72 34.244 982.72 34.804V38.5H980.956V27.86H982.72V30.394ZM992.963 30.772C993.943 30.772 994.685 30.9867 995.189 31.416C995.702 31.836 995.959 32.4987 995.959 33.404V38.5H994.713L994.363 37.45H994.307C994.092 37.7207 993.868 37.9493 993.635 38.136C993.411 38.3133 993.149 38.4393 992.851 38.514C992.561 38.598 992.207 38.64 991.787 38.64C991.339 38.64 990.933 38.556 990.569 38.388C990.214 38.22 989.934 37.9633 989.729 37.618C989.523 37.2633 989.421 36.82 989.421 36.288C989.421 35.504 989.705 34.916 990.275 34.524C990.853 34.1227 991.726 33.9033 992.893 33.866L994.209 33.824V33.446C994.209 32.9607 994.092 32.6153 993.859 32.41C993.625 32.2047 993.299 32.102 992.879 32.102C992.496 32.102 992.127 32.158 991.773 32.27C991.418 32.382 991.073 32.5127 990.737 32.662L990.177 31.43C990.55 31.234 990.975 31.0753 991.451 30.954C991.936 30.8327 992.44 30.772 992.963 30.772ZM993.285 34.944C992.51 34.972 991.973 35.1073 991.675 35.35C991.376 35.5833 991.227 35.9007 991.227 36.302C991.227 36.6567 991.334 36.9133 991.549 37.072C991.763 37.2307 992.039 37.31 992.375 37.31C992.888 37.31 993.322 37.1653 993.677 36.876C994.031 36.5773 994.209 36.1387 994.209 35.56V34.916L993.285 34.944ZM1003.31 38.5H997.483V37.422L1001.21 32.256H997.693V30.912H1003.2V32.102L999.541 37.142H1003.31V38.5ZM1007.93 30.772C1008.91 30.772 1009.66 30.9867 1010.16 31.416C1010.67 31.836 1010.93 32.4987 1010.93 33.404V38.5H1009.68L1009.33 37.45H1009.28C1009.06 37.7207 1008.84 37.9493 1008.61 38.136C1008.38 38.3133 1008.12 38.4393 1007.82 38.514C1007.53 38.598 1007.18 38.64 1006.76 38.64C1006.31 38.64 1005.9 38.556 1005.54 38.388C1005.18 38.22 1004.9 37.9633 1004.7 37.618C1004.49 37.2633 1004.39 36.82 1004.39 36.288C1004.39 35.504 1004.68 34.916 1005.25 34.524C1005.82 34.1227 1006.7 33.9033 1007.86 33.866L1009.18 33.824V33.446C1009.18 32.9607 1009.06 32.6153 1008.83 32.41C1008.6 32.2047 1008.27 32.102 1007.85 32.102C1007.47 32.102 1007.1 32.158 1006.74 32.27C1006.39 32.382 1006.04 32.5127 1005.71 32.662L1005.15 31.43C1005.52 31.234 1005.95 31.0753 1006.42 30.954C1006.91 30.8327 1007.41 30.772 1007.93 30.772ZM1008.26 34.944C1007.48 34.972 1006.94 35.1073 1006.65 35.35C1006.35 35.5833 1006.2 35.9007 1006.2 36.302C1006.2 36.6567 1006.3 36.9133 1006.52 37.072C1006.73 37.2307 1007.01 37.31 1007.35 37.31C1007.86 37.31 1008.29 37.1653 1008.65 36.876C1009 36.5773 1009.18 36.1387 1009.18 35.56V34.916L1008.26 34.944ZM1015.65 38.64C1014.77 38.64 1014.05 38.3133 1013.5 37.66C1012.96 36.9973 1012.69 36.0173 1012.69 34.72C1012.69 33.4227 1012.97 32.4427 1013.52 31.78C1014.07 31.108 1014.79 30.772 1015.69 30.772C1016.06 30.772 1016.39 30.8233 1016.67 30.926C1016.96 31.0193 1017.2 31.15 1017.41 31.318C1017.62 31.486 1017.79 31.6727 1017.93 31.878H1018.01C1017.98 31.7473 1017.96 31.5467 1017.93 31.276C1017.9 31.0053 1017.89 30.7533 1017.89 30.52V27.86H1019.65V38.5H1018.28L1017.96 37.506H1017.89C1017.75 37.7113 1017.57 37.9027 1017.37 38.08C1017.16 38.248 1016.92 38.3833 1016.64 38.486C1016.36 38.5887 1016.03 38.64 1015.65 38.64ZM1016.18 37.212C1016.83 37.212 1017.29 37.0253 1017.56 36.652C1017.83 36.2787 1017.97 35.714 1017.97 34.958V34.734C1017.97 33.9127 1017.84 33.2873 1017.58 32.858C1017.33 32.4287 1016.85 32.214 1016.15 32.214C1015.62 32.214 1015.21 32.438 1014.92 32.886C1014.63 33.3247 1014.48 33.9453 1014.48 34.748C1014.48 35.5507 1014.63 36.162 1014.92 36.582C1015.21 37.002 1015.63 37.212 1016.18 37.212ZM1024.93 30.772C1025.91 30.772 1026.65 30.9867 1027.15 31.416C1027.67 31.836 1027.92 32.4987 1027.92 33.404V38.5H1026.68L1026.33 37.45H1026.27C1026.06 37.7207 1025.83 37.9493 1025.6 38.136C1025.38 38.3133 1025.11 38.4393 1024.82 38.514C1024.53 38.598 1024.17 38.64 1023.75 38.64C1023.3 38.64 1022.9 38.556 1022.53 38.388C1022.18 38.22 1021.9 37.9633 1021.69 37.618C1021.49 37.2633 1021.39 36.82 1021.39 36.288C1021.39 35.504 1021.67 34.916 1022.24 34.524C1022.82 34.1227 1023.69 33.9033 1024.86 33.866L1026.17 33.824V33.446C1026.17 32.9607 1026.06 32.6153 1025.82 32.41C1025.59 32.2047 1025.26 32.102 1024.84 32.102C1024.46 32.102 1024.09 32.158 1023.74 32.27C1023.38 32.382 1023.04 32.5127 1022.7 32.662L1022.14 31.43C1022.51 31.234 1022.94 31.0753 1023.42 30.954C1023.9 30.8327 1024.4 30.772 1024.93 30.772ZM1025.25 34.944C1024.47 34.972 1023.94 35.1073 1023.64 35.35C1023.34 35.5833 1023.19 35.9007 1023.19 36.302C1023.19 36.6567 1023.3 36.9133 1023.51 37.072C1023.73 37.2307 1024 37.31 1024.34 37.31C1024.85 37.31 1025.29 37.1653 1025.64 36.876C1026 36.5773 1026.17 36.1387 1026.17 35.56V34.916L1025.25 34.944Z" fill="#0F0000"/>
</svg>
