<svg width="1046" height="66" viewBox="0 0 1046 66" fill="none" xmlns="http://www.w3.org/2000/svg">
<rect x="0.5" y="0.5" width="1045" height="65" rx="8.5" stroke="#660000"/>
<rect x="17.25" y="17.25" width="31.5" height="31.5" rx="15.75" stroke="#867979" stroke-width="0.5"/>
<path d="M33.0007 31.6667C34.4734 31.6667 35.6673 30.4728 35.6673 29C35.6673 27.5272 34.4734 26.3333 33.0007 26.3333C31.5279 26.3333 30.334 27.5272 30.334 29C30.334 30.4728 31.5279 31.6667 33.0007 31.6667Z" stroke="#0F0000" stroke-width="1.2"/>
<path d="M38.3337 36.6667C38.3337 38.3233 38.3337 39.6667 33.0003 39.6667C27.667 39.6667 27.667 38.3233 27.667 36.6667C27.667 35.01 30.055 33.6667 33.0003 33.6667C35.9457 33.6667 38.3337 35.01 38.3337 36.6667Z" stroke="#0F0000" stroke-width="1.2"/>
<path d="M66.71 39.5V26.648H68.654V37.826H74.144V39.5H66.71ZM84.4964 29.798V39.5H82.9664L82.6964 38.222H82.6064C82.4024 38.558 82.1384 38.834 81.8144 39.05C81.4904 39.266 81.1364 39.422 80.7524 39.518C80.3684 39.626 79.9724 39.68 79.5644 39.68C78.8084 39.68 78.1664 39.56 77.6384 39.32C77.1224 39.068 76.7264 38.684 76.4504 38.168C76.1864 37.64 76.0544 36.968 76.0544 36.152V29.798H77.9804V35.864C77.9804 36.62 78.1364 37.184 78.4484 37.556C78.7724 37.928 79.2704 38.114 79.9424 38.114C80.6144 38.114 81.1424 37.982 81.5264 37.718C81.9104 37.454 82.1804 37.07 82.3364 36.566C82.5044 36.05 82.5884 35.432 82.5884 34.712V29.798H84.4964ZM91.3883 39.68C90.5003 39.68 89.7203 39.506 89.0483 39.158C88.3763 38.81 87.8543 38.27 87.4823 37.538C87.1103 36.794 86.9243 35.852 86.9243 34.712C86.9243 33.512 87.1223 32.54 87.5183 31.796C87.9263 31.052 88.4723 30.506 89.1563 30.158C89.8523 29.798 90.6443 29.618 91.5323 29.618C92.0723 29.618 92.5763 29.678 93.0443 29.798C93.5243 29.906 93.9203 30.032 94.2323 30.176L93.6563 31.724C93.3203 31.592 92.9603 31.478 92.5763 31.382C92.2043 31.286 91.8503 31.238 91.5143 31.238C90.9143 31.238 90.4163 31.37 90.0203 31.634C89.6363 31.886 89.3483 32.27 89.1563 32.786C88.9763 33.29 88.8863 33.926 88.8863 34.694C88.8863 35.426 88.9823 36.044 89.1743 36.548C89.3663 37.052 89.6483 37.436 90.0203 37.7C90.4043 37.952 90.8783 38.078 91.4423 38.078C91.9823 38.078 92.4563 38.018 92.8643 37.898C93.2723 37.778 93.6563 37.622 94.0163 37.43V39.086C93.6683 39.29 93.2903 39.44 92.8823 39.536C92.4743 39.632 91.9763 39.68 91.3883 39.68ZM98.2145 39.5H96.3065V29.798H98.2145V39.5ZM100.267 25.892C100.135 26.06 99.9545 26.264 99.7265 26.504C99.5105 26.744 99.2645 26.996 98.9885 27.26C98.7245 27.512 98.4605 27.758 98.1965 27.998C97.9325 28.226 97.6925 28.424 97.4765 28.592H96.2165V28.376C96.3965 28.148 96.6005 27.878 96.8285 27.566C97.0565 27.254 97.2785 26.936 97.4945 26.612C97.7105 26.276 97.8905 25.976 98.0345 25.712H100.267V25.892ZM104.973 29.618C106.197 29.618 107.109 29.888 107.709 30.428C108.309 30.956 108.609 31.79 108.609 32.93V39.5H107.259L106.881 38.15H106.809C106.533 38.498 106.245 38.786 105.945 39.014C105.657 39.242 105.321 39.41 104.937 39.518C104.565 39.626 104.109 39.68 103.569 39.68C102.993 39.68 102.471 39.578 102.003 39.374C101.547 39.158 101.187 38.834 100.923 38.402C100.659 37.958 100.527 37.406 100.527 36.746C100.527 35.762 100.899 35.012 101.643 34.496C102.399 33.98 103.545 33.698 105.081 33.65L106.737 33.596V33.056C106.737 32.336 106.575 31.832 106.251 31.544C105.927 31.256 105.471 31.112 104.883 31.112C104.379 31.112 103.899 31.184 103.443 31.328C102.987 31.472 102.555 31.646 102.147 31.85L101.535 30.464C101.991 30.224 102.513 30.026 103.101 29.87C103.701 29.702 104.325 29.618 104.973 29.618ZM105.423 34.874C104.319 34.922 103.551 35.108 103.119 35.432C102.699 35.744 102.489 36.188 102.489 36.764C102.489 37.268 102.639 37.634 102.939 37.862C103.251 38.09 103.641 38.204 104.109 38.204C104.865 38.204 105.489 37.994 105.981 37.574C106.473 37.154 106.719 36.524 106.719 35.684V34.838L105.423 34.874ZM118.365 39.5H116.439V26.648H123.675V28.304H118.365V32.498H123.333V34.154H118.365V39.5ZM134.282 34.64C134.282 35.444 134.174 36.158 133.958 36.782C133.742 37.406 133.436 37.934 133.04 38.366C132.644 38.798 132.164 39.128 131.6 39.356C131.036 39.572 130.4 39.68 129.692 39.68C129.044 39.68 128.444 39.572 127.892 39.356C127.34 39.128 126.86 38.798 126.452 38.366C126.056 37.934 125.744 37.406 125.516 36.782C125.288 36.158 125.174 35.438 125.174 34.622C125.174 33.554 125.354 32.648 125.714 31.904C126.086 31.16 126.614 30.596 127.298 30.212C127.994 29.816 128.81 29.618 129.746 29.618C130.634 29.618 131.414 29.816 132.086 30.212C132.77 30.596 133.304 31.16 133.688 31.904C134.084 32.648 134.282 33.56 134.282 34.64ZM127.136 34.64C127.136 35.36 127.226 35.984 127.406 36.512C127.586 37.028 127.868 37.424 128.252 37.7C128.636 37.976 129.128 38.114 129.728 38.114C130.328 38.114 130.82 37.976 131.204 37.7C131.588 37.424 131.87 37.028 132.05 36.512C132.23 35.984 132.32 35.36 132.32 34.64C132.32 33.896 132.224 33.272 132.032 32.768C131.852 32.264 131.57 31.88 131.186 31.616C130.814 31.34 130.322 31.202 129.71 31.202C128.81 31.202 128.156 31.502 127.748 32.102C127.34 32.702 127.136 33.548 127.136 34.64ZM141.615 29.618C142.743 29.618 143.607 29.9 144.207 30.464C144.807 31.028 145.107 31.934 145.107 33.182V39.5H143.217V33.452C143.217 32.696 143.055 32.132 142.731 31.76C142.419 31.376 141.915 31.184 141.219 31.184C140.235 31.184 139.551 31.478 139.167 32.066C138.795 32.654 138.609 33.5 138.609 34.604V39.5H136.701V29.798H138.213L138.483 31.094H138.591C138.807 30.758 139.071 30.482 139.383 30.266C139.695 30.05 140.043 29.888 140.427 29.78C140.811 29.672 141.207 29.618 141.615 29.618ZM151.531 38.132C151.783 38.132 152.041 38.108 152.305 38.06C152.569 38.012 152.797 37.958 152.989 37.898V39.338C152.785 39.434 152.509 39.512 152.161 39.572C151.813 39.644 151.465 39.68 151.117 39.68C150.589 39.68 150.103 39.59 149.659 39.41C149.227 39.23 148.879 38.918 148.615 38.474C148.351 38.03 148.219 37.412 148.219 36.62V31.256H146.869V30.392L148.291 29.672L148.957 27.62H150.127V29.798H152.899V31.256H150.127V36.584C150.127 37.112 150.253 37.502 150.505 37.754C150.769 38.006 151.111 38.132 151.531 38.132ZM158.692 29.618C159.916 29.618 160.828 29.888 161.428 30.428C162.028 30.956 162.328 31.79 162.328 32.93V39.5H160.978L160.6 38.15H160.528C160.252 38.498 159.964 38.786 159.664 39.014C159.376 39.242 159.04 39.41 158.656 39.518C158.284 39.626 157.828 39.68 157.288 39.68C156.712 39.68 156.19 39.578 155.722 39.374C155.266 39.158 154.906 38.834 154.642 38.402C154.378 37.958 154.246 37.406 154.246 36.746C154.246 35.762 154.618 35.012 155.362 34.496C156.118 33.98 157.264 33.698 158.8 33.65L160.456 33.596V33.056C160.456 32.336 160.294 31.832 159.97 31.544C159.646 31.256 159.19 31.112 158.602 31.112C158.098 31.112 157.618 31.184 157.162 31.328C156.706 31.472 156.274 31.646 155.866 31.85L155.254 30.464C155.71 30.224 156.232 30.026 156.82 29.87C157.42 29.702 158.044 29.618 158.692 29.618ZM159.142 34.874C158.038 34.922 157.27 35.108 156.838 35.432C156.418 35.744 156.208 36.188 156.208 36.764C156.208 37.268 156.358 37.634 156.658 37.862C156.97 38.09 157.36 38.204 157.828 38.204C158.584 38.204 159.208 37.994 159.7 37.574C160.192 37.154 160.438 36.524 160.438 35.684V34.838L159.142 34.874ZM170.179 29.618C171.307 29.618 172.171 29.9 172.771 30.464C173.371 31.028 173.671 31.934 173.671 33.182V39.5H171.781V33.452C171.781 32.696 171.619 32.132 171.295 31.76C170.983 31.376 170.479 31.184 169.783 31.184C168.799 31.184 168.115 31.478 167.731 32.066C167.359 32.654 167.173 33.5 167.173 34.604V39.5H165.265V29.798H166.777L167.047 31.094H167.155C167.371 30.758 167.635 30.482 167.947 30.266C168.259 30.05 168.607 29.888 168.991 29.78C169.375 29.672 169.771 29.618 170.179 29.618ZM180.365 29.618C181.589 29.618 182.501 29.888 183.101 30.428C183.701 30.956 184.001 31.79 184.001 32.93V39.5H182.651L182.273 38.15H182.201C181.925 38.498 181.637 38.786 181.337 39.014C181.049 39.242 180.713 39.41 180.329 39.518C179.957 39.626 179.501 39.68 178.961 39.68C178.385 39.68 177.863 39.578 177.395 39.374C176.939 39.158 176.579 38.834 176.315 38.402C176.051 37.958 175.919 37.406 175.919 36.746C175.919 35.762 176.291 35.012 177.035 34.496C177.791 33.98 178.937 33.698 180.473 33.65L182.129 33.596V33.056C182.129 32.336 181.967 31.832 181.643 31.544C181.319 31.256 180.863 31.112 180.275 31.112C179.771 31.112 179.291 31.184 178.835 31.328C178.379 31.472 177.947 31.646 177.539 31.85L176.927 30.464C177.383 30.224 177.905 30.026 178.493 29.87C179.093 29.702 179.717 29.618 180.365 29.618ZM180.815 34.874C179.711 34.922 178.943 35.108 178.511 35.432C178.091 35.744 177.881 36.188 177.881 36.764C177.881 37.268 178.031 37.634 178.331 37.862C178.643 38.09 179.033 38.204 179.501 38.204C180.257 38.204 180.881 37.994 181.373 37.574C181.865 37.154 182.111 36.524 182.111 35.684V34.838L180.815 34.874ZM190.787 35.486V33.866H195.251V35.486H190.787ZM207.294 39.5H205.404V30.968C205.404 30.668 205.404 30.392 205.404 30.14C205.416 29.876 205.428 29.624 205.44 29.384C205.452 29.132 205.464 28.892 205.476 28.664C205.32 28.82 205.158 28.97 204.99 29.114C204.822 29.258 204.63 29.426 204.414 29.618L203.01 30.752L202.038 29.528L205.71 26.648H207.294V39.5ZM216.028 26.468C216.784 26.468 217.456 26.588 218.044 26.828C218.632 27.056 219.094 27.398 219.43 27.854C219.778 28.31 219.952 28.88 219.952 29.564C219.952 30.08 219.844 30.53 219.628 30.914C219.412 31.298 219.124 31.64 218.764 31.94C218.404 32.228 218.002 32.48 217.558 32.696C218.062 32.948 218.524 33.236 218.944 33.56C219.376 33.872 219.718 34.238 219.97 34.658C220.234 35.078 220.366 35.582 220.366 36.17C220.366 36.89 220.186 37.514 219.826 38.042C219.478 38.558 218.98 38.96 218.332 39.248C217.684 39.536 216.928 39.68 216.064 39.68C215.14 39.68 214.348 39.542 213.688 39.266C213.04 38.99 212.548 38.6 212.212 38.096C211.876 37.58 211.708 36.956 211.708 36.224C211.708 35.636 211.828 35.126 212.068 34.694C212.308 34.262 212.626 33.89 213.022 33.578C213.418 33.266 213.85 33.002 214.318 32.786C213.91 32.546 213.538 32.276 213.202 31.976C212.866 31.664 212.602 31.31 212.41 30.914C212.218 30.518 212.122 30.062 212.122 29.546C212.122 28.874 212.296 28.316 212.644 27.872C212.992 27.416 213.46 27.068 214.048 26.828C214.648 26.588 215.308 26.468 216.028 26.468ZM213.544 36.188C213.544 36.776 213.748 37.262 214.156 37.646C214.564 38.018 215.188 38.204 216.028 38.204C216.58 38.204 217.036 38.12 217.396 37.952C217.768 37.772 218.05 37.532 218.242 37.232C218.434 36.92 218.53 36.566 218.53 36.17C218.53 35.774 218.422 35.426 218.206 35.126C218.002 34.826 217.714 34.562 217.342 34.334C216.982 34.094 216.562 33.878 216.082 33.686L215.812 33.578C215.32 33.782 214.906 34.01 214.57 34.262C214.234 34.514 213.976 34.796 213.796 35.108C213.628 35.42 213.544 35.78 213.544 36.188ZM216.01 27.962C215.422 27.962 214.93 28.106 214.534 28.394C214.15 28.682 213.958 29.102 213.958 29.654C213.958 30.05 214.054 30.386 214.246 30.662C214.438 30.938 214.696 31.178 215.02 31.382C215.344 31.574 215.698 31.76 216.082 31.94C216.466 31.772 216.808 31.592 217.108 31.4C217.408 31.196 217.648 30.956 217.828 30.68C218.008 30.392 218.098 30.05 218.098 29.654C218.098 29.102 217.906 28.682 217.522 28.394C217.138 28.106 216.634 27.962 216.01 27.962ZM227.967 26.648L223.179 39.5H221.361L226.149 26.648H227.967ZM237.593 33.056C237.593 34.1 237.509 35.03 237.341 35.846C237.185 36.662 236.933 37.358 236.585 37.934C236.249 38.498 235.799 38.93 235.235 39.23C234.683 39.53 234.017 39.68 233.237 39.68C232.253 39.68 231.443 39.416 230.807 38.888C230.171 38.36 229.697 37.604 229.385 36.62C229.073 35.624 228.917 34.436 228.917 33.056C228.917 31.664 229.055 30.476 229.331 29.492C229.619 28.508 230.081 27.758 230.717 27.242C231.353 26.714 232.193 26.45 233.237 26.45C234.221 26.45 235.031 26.714 235.667 27.242C236.315 27.758 236.795 28.508 237.107 29.492C237.431 30.476 237.593 31.664 237.593 33.056ZM230.825 33.056C230.825 34.172 230.903 35.102 231.059 35.846C231.215 36.59 231.467 37.148 231.815 37.52C232.175 37.892 232.649 38.078 233.237 38.078C233.825 38.078 234.293 37.898 234.641 37.538C235.001 37.166 235.259 36.608 235.415 35.864C235.583 35.108 235.667 34.172 235.667 33.056C235.667 31.94 235.583 31.016 235.415 30.284C235.259 29.54 235.001 28.982 234.641 28.61C234.293 28.238 233.825 28.052 233.237 28.052C232.649 28.052 232.175 28.238 231.815 28.61C231.467 28.982 231.215 29.54 231.059 30.284C230.903 31.016 230.825 31.94 230.825 33.056ZM245.104 39.5H243.214V30.968C243.214 30.668 243.214 30.392 243.214 30.14C243.226 29.876 243.238 29.624 243.25 29.384C243.262 29.132 243.274 28.892 243.286 28.664C243.13 28.82 242.968 28.97 242.8 29.114C242.632 29.258 242.44 29.426 242.224 29.618L240.82 30.752L239.848 29.528L243.52 26.648H245.104V39.5ZM255.477 26.648L250.689 39.5H248.871L253.659 26.648H255.477ZM265.085 39.5H256.445V38.024L259.757 34.658C260.405 33.998 260.945 33.428 261.377 32.948C261.809 32.456 262.133 31.988 262.349 31.544C262.565 31.088 262.673 30.596 262.673 30.068C262.673 29.408 262.481 28.916 262.097 28.592C261.713 28.256 261.215 28.088 260.603 28.088C260.015 28.088 259.487 28.202 259.019 28.43C258.551 28.646 258.065 28.952 257.561 29.348L256.535 28.07C256.883 27.77 257.255 27.5 257.651 27.26C258.059 27.02 258.509 26.828 259.001 26.684C259.505 26.54 260.057 26.468 260.657 26.468C261.473 26.468 262.175 26.612 262.763 26.9C263.351 27.176 263.801 27.572 264.113 28.088C264.437 28.604 264.599 29.21 264.599 29.906C264.599 30.422 264.521 30.908 264.365 31.364C264.209 31.808 263.981 32.246 263.681 32.678C263.393 33.11 263.039 33.548 262.619 33.992C262.199 34.436 261.737 34.904 261.233 35.396L258.839 37.718V37.808H265.085V39.5ZM275.872 36.656H274.09V39.5H272.236V36.656H266.278V35.144L272.2 26.594H274.09V35.036H275.872V36.656ZM272.236 31.544C272.236 31.256 272.236 30.98 272.236 30.716C272.248 30.452 272.26 30.2 272.272 29.96C272.284 29.708 272.29 29.48 272.29 29.276C272.302 29.06 272.314 28.868 272.326 28.7H272.254C272.158 28.94 272.038 29.186 271.894 29.438C271.762 29.69 271.624 29.912 271.48 30.104L268.078 35.036H272.236V31.544Z" fill="#0F0000"/>
<path d="M368.5 31C370.709 31 372.5 29.2091 372.5 27C372.5 24.7909 370.709 23 368.5 23C366.291 23 364.5 24.7909 364.5 27C364.5 29.2091 366.291 31 368.5 31Z" stroke="#0F0000" stroke-width="1.8"/>
<path d="M376.5 38.5C376.5 40.985 376.5 43 368.5 43C360.5 43 360.5 40.985 360.5 38.5C360.5 36.015 364.082 34 368.5 34C372.918 34 376.5 36.015 376.5 38.5Z" stroke="#0F0000" stroke-width="1.8"/>
<path d="M393.076 28.076C394.569 28.076 395.657 28.3693 396.34 28.956C397.023 29.5427 397.364 30.3693 397.364 31.436C397.364 31.9053 397.284 32.3587 397.124 32.796C396.975 33.2227 396.724 33.6067 396.372 33.948C396.02 34.2893 395.551 34.5613 394.964 34.764C394.377 34.956 393.657 35.052 392.804 35.052H391.492V39.5H390.052V28.076H393.076ZM392.948 29.308H391.492V33.82H392.644C393.369 33.82 393.972 33.7453 394.452 33.596C394.932 33.436 395.289 33.1853 395.524 32.844C395.759 32.5027 395.876 32.0547 395.876 31.5C395.876 30.764 395.641 30.2147 395.172 29.852C394.703 29.4893 393.961 29.308 392.948 29.308ZM402.796 30.78C403.841 30.78 404.614 31.0093 405.116 31.468C405.617 31.9267 405.868 32.6573 405.868 33.66V39.5H404.844L404.572 38.284H404.508C404.262 38.5933 404.006 38.8547 403.74 39.068C403.484 39.2707 403.185 39.42 402.844 39.516C402.513 39.612 402.108 39.66 401.628 39.66C401.116 39.66 400.652 39.5693 400.236 39.388C399.83 39.2067 399.51 38.9293 399.276 38.556C399.041 38.172 398.924 37.692 398.924 37.116C398.924 36.2627 399.26 35.6067 399.932 35.148C400.604 34.6787 401.638 34.4227 403.036 34.38L404.492 34.332V33.82C404.492 33.1053 404.337 32.6093 404.028 32.332C403.718 32.0547 403.281 31.916 402.716 31.916C402.268 31.916 401.841 31.9853 401.436 32.124C401.03 32.252 400.652 32.4013 400.299 32.572L399.868 31.516C400.241 31.3133 400.684 31.1427 401.196 31.004C401.708 30.8547 402.241 30.78 402.796 30.78ZM403.212 35.356C402.145 35.3987 401.404 35.5693 400.988 35.868C400.582 36.1667 400.38 36.588 400.38 37.132C400.38 37.612 400.524 37.964 400.812 38.188C401.11 38.412 401.489 38.524 401.948 38.524C402.673 38.524 403.276 38.3267 403.756 37.932C404.236 37.5267 404.476 36.908 404.476 36.076V35.308L403.212 35.356ZM409.924 39.5H408.516V27.34H409.924V39.5ZM420.097 35.196C420.097 35.9107 420.001 36.5453 419.809 37.1C419.628 37.644 419.361 38.108 419.009 38.492C418.668 38.876 418.247 39.1693 417.745 39.372C417.255 39.564 416.705 39.66 416.097 39.66C415.532 39.66 415.009 39.564 414.529 39.372C414.049 39.1693 413.633 38.876 413.281 38.492C412.929 38.108 412.652 37.644 412.449 37.1C412.257 36.5453 412.161 35.9107 412.161 35.196C412.161 34.2467 412.321 33.4467 412.641 32.796C412.961 32.1347 413.42 31.6333 414.017 31.292C414.615 30.94 415.324 30.764 416.145 30.764C416.924 30.764 417.607 30.94 418.193 31.292C418.791 31.6333 419.255 32.1347 419.585 32.796C419.927 33.4467 420.097 34.2467 420.097 35.196ZM413.617 35.196C413.617 35.868 413.703 36.4547 413.873 36.956C414.055 37.4467 414.332 37.8253 414.705 38.092C415.079 38.3587 415.553 38.492 416.129 38.492C416.705 38.492 417.18 38.3587 417.553 38.092C417.927 37.8253 418.199 37.4467 418.369 36.956C418.551 36.4547 418.641 35.868 418.641 35.196C418.641 34.5133 418.551 33.932 418.369 33.452C418.188 32.972 417.911 32.604 417.537 32.348C417.175 32.0813 416.7 31.948 416.113 31.948C415.239 31.948 414.604 32.236 414.209 32.812C413.815 33.388 413.617 34.1827 413.617 35.196ZM431.737 30.764C432.707 30.764 433.433 31.0147 433.913 31.516C434.393 32.0067 434.633 32.8067 434.633 33.916V39.5H433.241V33.98C433.241 33.308 433.097 32.8013 432.809 32.46C432.531 32.1187 432.094 31.948 431.497 31.948C430.665 31.948 430.067 32.188 429.705 32.668C429.353 33.148 429.177 33.8467 429.177 34.764V39.5H427.785V33.98C427.785 33.532 427.721 33.1587 427.593 32.86C427.465 32.5507 427.273 32.3213 427.017 32.172C426.761 32.0227 426.43 31.948 426.025 31.948C425.449 31.948 424.995 32.0707 424.665 32.316C424.334 32.5507 424.094 32.8973 423.945 33.356C423.806 33.8147 423.737 34.38 423.737 35.052V39.5H422.329V30.924H423.465L423.673 32.092H423.753C423.934 31.7933 424.153 31.548 424.409 31.356C424.675 31.1533 424.969 31.004 425.289 30.908C425.609 30.812 425.939 30.764 426.281 30.764C426.942 30.764 427.491 30.8813 427.929 31.116C428.377 31.3507 428.702 31.7133 428.905 32.204H428.985C429.273 31.7133 429.662 31.3507 430.153 31.116C430.654 30.8813 431.182 30.764 431.737 30.764ZM440.53 30.78C441.575 30.78 442.349 31.0093 442.85 31.468C443.351 31.9267 443.602 32.6573 443.602 33.66V39.5H442.578L442.306 38.284H442.242C441.997 38.5933 441.741 38.8547 441.474 39.068C441.218 39.2707 440.919 39.42 440.578 39.516C440.247 39.612 439.842 39.66 439.362 39.66C438.85 39.66 438.386 39.5693 437.97 39.388C437.565 39.2067 437.245 38.9293 437.01 38.556C436.775 38.172 436.658 37.692 436.658 37.116C436.658 36.2627 436.994 35.6067 437.666 35.148C438.338 34.6787 439.373 34.4227 440.77 34.38L442.226 34.332V33.82C442.226 33.1053 442.071 32.6093 441.762 32.332C441.453 32.0547 441.015 31.916 440.45 31.916C440.002 31.916 439.575 31.9853 439.17 32.124C438.765 32.252 438.386 32.4013 438.034 32.572L437.602 31.516C437.975 31.3133 438.418 31.1427 438.93 31.004C439.442 30.8547 439.975 30.78 440.53 30.78ZM440.946 35.356C439.879 35.3987 439.138 35.5693 438.722 35.868C438.317 36.1667 438.114 36.588 438.114 37.132C438.114 37.612 438.258 37.964 438.546 38.188C438.845 38.412 439.223 38.524 439.682 38.524C440.407 38.524 441.01 38.3267 441.49 37.932C441.97 37.5267 442.21 36.908 442.21 36.076V35.308L440.946 35.356ZM460.567 33.772C460.567 34.6573 460.455 35.4627 460.231 36.188C460.007 36.9027 459.671 37.5213 459.223 38.044C458.786 38.5667 458.236 38.9667 457.575 39.244C456.924 39.5213 456.167 39.66 455.303 39.66C454.407 39.66 453.628 39.5213 452.967 39.244C452.306 38.956 451.756 38.556 451.319 38.044C450.882 37.5213 450.556 36.8973 450.343 36.172C450.13 35.4467 450.023 34.6413 450.023 33.756C450.023 32.5827 450.215 31.5587 450.599 30.684C450.983 29.8093 451.564 29.1267 452.343 28.636C453.132 28.1453 454.124 27.9 455.319 27.9C456.46 27.9 457.42 28.1453 458.199 28.636C458.978 29.116 459.564 29.7987 459.959 30.684C460.364 31.5587 460.567 32.588 460.567 33.772ZM451.543 33.772C451.543 34.732 451.676 35.5587 451.943 36.252C452.21 36.9453 452.62 37.4787 453.175 37.852C453.74 38.2253 454.45 38.412 455.303 38.412C456.167 38.412 456.871 38.2253 457.415 37.852C457.97 37.4787 458.38 36.9453 458.647 36.252C458.914 35.5587 459.047 34.732 459.047 33.772C459.047 32.332 458.748 31.2067 458.151 30.396C457.554 29.5747 456.61 29.164 455.319 29.164C454.455 29.164 453.74 29.3507 453.175 29.724C452.62 30.0867 452.21 30.6147 451.943 31.308C451.676 31.9907 451.543 32.812 451.543 33.772ZM466.347 39.66C465.59 39.66 464.912 39.5053 464.315 39.196C463.728 38.8867 463.264 38.4067 462.923 37.756C462.592 37.1053 462.427 36.2733 462.427 35.26C462.427 34.204 462.603 33.3453 462.955 32.684C463.307 32.0227 463.782 31.5373 464.379 31.228C464.987 30.9187 465.675 30.764 466.443 30.764C466.88 30.764 467.302 30.812 467.707 30.908C468.112 30.9933 468.443 31.1 468.699 31.228L468.267 32.396C468.011 32.3 467.712 32.2093 467.371 32.124C467.03 32.0387 466.71 31.996 466.411 31.996C465.835 31.996 465.36 32.1187 464.987 32.364C464.614 32.6093 464.336 32.972 464.155 33.452C463.974 33.932 463.883 34.5293 463.883 35.244C463.883 35.9267 463.974 36.508 464.155 36.988C464.336 37.468 464.608 37.8307 464.971 38.076C465.334 38.3213 465.787 38.444 466.331 38.444C466.8 38.444 467.211 38.396 467.563 38.3C467.926 38.204 468.256 38.0867 468.555 37.948V39.196C468.267 39.3453 467.947 39.4573 467.595 39.532C467.254 39.6173 466.838 39.66 466.347 39.66ZM473.842 30.78C474.888 30.78 475.661 31.0093 476.162 31.468C476.664 31.9267 476.914 32.6573 476.914 33.66V39.5H475.89L475.618 38.284H475.554C475.309 38.5933 475.053 38.8547 474.786 39.068C474.53 39.2707 474.232 39.42 473.89 39.516C473.56 39.612 473.154 39.66 472.674 39.66C472.162 39.66 471.698 39.5693 471.282 39.388C470.877 39.2067 470.557 38.9293 470.322 38.556C470.088 38.172 469.97 37.692 469.97 37.116C469.97 36.2627 470.306 35.6067 470.978 35.148C471.65 34.6787 472.685 34.4227 474.082 34.38L475.538 34.332V33.82C475.538 33.1053 475.384 32.6093 475.074 32.332C474.765 32.0547 474.328 31.916 473.762 31.916C473.314 31.916 472.888 31.9853 472.482 32.124C472.077 32.252 471.698 32.4013 471.346 32.572L470.914 31.516C471.288 31.3133 471.73 31.1427 472.242 31.004C472.754 30.8547 473.288 30.78 473.842 30.78ZM474.258 35.356C473.192 35.3987 472.45 35.5693 472.034 35.868C471.629 36.1667 471.426 36.588 471.426 37.132C471.426 37.612 471.57 37.964 471.858 38.188C472.157 38.412 472.536 38.524 472.994 38.524C473.72 38.524 474.322 38.3267 474.802 37.932C475.282 37.5267 475.522 36.908 475.522 36.076V35.308L474.258 35.356ZM483.691 30.764C484.715 30.764 485.488 31.0147 486.011 31.516C486.534 32.0067 486.795 32.8067 486.795 33.916V39.5H485.403V34.012C485.403 33.3187 485.248 32.8013 484.939 32.46C484.63 32.1187 484.144 31.948 483.483 31.948C482.534 31.948 481.878 32.2147 481.515 32.748C481.152 33.2813 480.971 34.0493 480.971 35.052V39.5H479.563V30.924H480.699L480.907 32.092H480.987C481.179 31.7933 481.414 31.548 481.691 31.356C481.979 31.1533 482.294 31.004 482.635 30.908C482.976 30.812 483.328 30.764 483.691 30.764ZM490.862 30.908C490.862 31.1107 490.851 31.3187 490.83 31.532C490.819 31.7453 490.803 31.9373 490.782 32.108H490.878C491.059 31.8093 491.288 31.564 491.566 31.372C491.843 31.18 492.152 31.036 492.494 30.94C492.835 30.8333 493.187 30.78 493.55 30.78C494.243 30.78 494.819 30.892 495.278 31.116C495.747 31.3293 496.099 31.6653 496.334 32.124C496.568 32.5827 496.686 33.18 496.686 33.916V39.5H495.294V34.012C495.294 33.3187 495.139 32.8013 494.83 32.46C494.52 32.1187 494.035 31.948 493.374 31.948C492.734 31.948 492.232 32.0707 491.87 32.316C491.507 32.5507 491.246 32.9027 491.086 33.372C490.936 33.8307 490.862 34.396 490.862 35.068V39.5H489.454V27.34H490.862V30.908ZM502.592 30.78C503.638 30.78 504.411 31.0093 504.912 31.468C505.414 31.9267 505.664 32.6573 505.664 33.66V39.5H504.64L504.368 38.284H504.304C504.059 38.5933 503.803 38.8547 503.536 39.068C503.28 39.2707 502.982 39.42 502.64 39.516C502.31 39.612 501.904 39.66 501.424 39.66C500.912 39.66 500.448 39.5693 500.032 39.388C499.627 39.2067 499.307 38.9293 499.072 38.556C498.838 38.172 498.72 37.692 498.72 37.116C498.72 36.2627 499.056 35.6067 499.728 35.148C500.4 34.6787 501.435 34.4227 502.832 34.38L504.288 34.332V33.82C504.288 33.1053 504.134 32.6093 503.824 32.332C503.515 32.0547 503.078 31.916 502.512 31.916C502.064 31.916 501.638 31.9853 501.232 32.124C500.827 32.252 500.448 32.4013 500.096 32.572L499.664 31.516C500.038 31.3133 500.48 31.1427 500.992 31.004C501.504 30.8547 502.038 30.78 502.592 30.78ZM503.008 35.356C501.942 35.3987 501.2 35.5693 500.784 35.868C500.379 36.1667 500.176 36.588 500.176 37.132C500.176 37.612 500.32 37.964 500.608 38.188C500.907 38.412 501.286 38.524 501.744 38.524C502.47 38.524 503.072 38.3267 503.552 37.932C504.032 37.5267 504.272 36.908 504.272 36.076V35.308L503.008 35.356Z" fill="#0F0000"/>
<circle cx="937.5" cy="33" r="9.5" fill="#04C000"/>
<path d="M963.259 38.5L962.349 35.854H958.583L957.687 38.5H955.783L959.451 28.462H961.495L965.163 38.5H963.259ZM961.019 31.738C960.982 31.6073 960.926 31.43 960.851 31.206C960.777 30.982 960.702 30.7533 960.627 30.52C960.562 30.2773 960.511 30.0767 960.473 29.918C960.427 30.1047 960.366 30.3193 960.291 30.562C960.226 30.8047 960.161 31.0333 960.095 31.248C960.039 31.4627 959.993 31.626 959.955 31.738L959.073 34.314H961.887L961.019 31.738ZM969.376 38.64C968.657 38.64 968.032 38.5047 967.5 38.234C966.977 37.954 966.571 37.5293 966.282 36.96C966.002 36.3813 965.862 35.644 965.862 34.748C965.862 33.8147 966.016 33.0587 966.324 32.48C966.641 31.892 967.075 31.4627 967.626 31.192C968.176 30.912 968.806 30.772 969.516 30.772C969.992 30.772 970.416 30.8187 970.79 30.912C971.163 31.0053 971.48 31.1173 971.742 31.248L971.224 32.634C970.934 32.522 970.645 32.4287 970.356 32.354C970.066 32.27 969.786 32.228 969.516 32.228C969.096 32.228 968.746 32.3213 968.466 32.508C968.195 32.6947 967.994 32.9747 967.864 33.348C967.733 33.712 967.668 34.174 967.668 34.734C967.668 35.2753 967.733 35.728 967.864 36.092C968.004 36.456 968.209 36.7313 968.48 36.918C968.75 37.0953 969.086 37.184 969.488 37.184C969.917 37.184 970.295 37.1327 970.622 37.03C970.948 36.9273 971.256 36.7873 971.546 36.61V38.136C971.256 38.3133 970.944 38.4393 970.608 38.514C970.281 38.598 969.87 38.64 969.376 38.64ZM976.375 30.772C977.057 30.772 977.64 30.912 978.125 31.192C978.62 31.4627 979.003 31.8547 979.273 32.368C979.544 32.872 979.679 33.488 979.679 34.216V35.112H974.667C974.686 35.8027 974.877 36.3393 975.241 36.722C975.605 37.0953 976.109 37.282 976.753 37.282C977.248 37.282 977.687 37.2353 978.069 37.142C978.461 37.0393 978.863 36.8947 979.273 36.708V38.122C978.9 38.2993 978.513 38.43 978.111 38.514C977.71 38.598 977.229 38.64 976.669 38.64C975.932 38.64 975.274 38.5 974.695 38.22C974.126 37.9307 973.678 37.4967 973.351 36.918C973.034 36.3393 972.875 35.6207 972.875 34.762C972.875 33.894 973.02 33.166 973.309 32.578C973.608 31.9807 974.019 31.5327 974.541 31.234C975.064 30.926 975.675 30.772 976.375 30.772ZM976.375 32.074C975.909 32.074 975.526 32.228 975.227 32.536C974.938 32.8347 974.765 33.2827 974.709 33.88H977.971C977.971 33.5253 977.911 33.2127 977.789 32.942C977.677 32.6713 977.505 32.4613 977.271 32.312C977.038 32.1533 976.739 32.074 976.375 32.074ZM985.448 30.772C986.335 30.772 987.049 31.1033 987.59 31.766C988.132 32.4193 988.402 33.3947 988.402 34.692C988.402 35.5507 988.276 36.274 988.024 36.862C987.772 37.45 987.422 37.8933 986.974 38.192C986.526 38.4907 986.004 38.64 985.406 38.64C985.042 38.64 984.72 38.5933 984.44 38.5C984.16 38.3973 983.922 38.2713 983.726 38.122C983.53 37.9633 983.362 37.7953 983.222 37.618H983.11C983.148 37.786 983.176 37.9773 983.194 38.192C983.213 38.3973 983.222 38.5933 983.222 38.78V41.86H981.458V30.912H982.886L983.138 31.92H983.222C983.362 31.7053 983.53 31.514 983.726 31.346C983.932 31.1687 984.174 31.0287 984.454 30.926C984.744 30.8233 985.075 30.772 985.448 30.772ZM984.944 32.2C984.534 32.2 984.202 32.284 983.95 32.452C983.698 32.6107 983.516 32.858 983.404 33.194C983.292 33.53 983.232 33.95 983.222 34.454V34.678C983.222 35.2193 983.274 35.6767 983.376 36.05C983.488 36.4233 983.67 36.708 983.922 36.904C984.184 37.1 984.534 37.198 984.972 37.198C985.346 37.198 985.649 37.0953 985.882 36.89C986.125 36.6847 986.302 36.3953 986.414 36.022C986.536 35.6393 986.596 35.1867 986.596 34.664C986.596 33.88 986.461 33.2733 986.19 32.844C985.929 32.4147 985.514 32.2 984.944 32.2ZM993.162 37.226C993.386 37.226 993.601 37.2073 993.806 37.17C994.011 37.1233 994.203 37.072 994.38 37.016V38.332C994.193 38.416 993.951 38.486 993.652 38.542C993.353 38.6073 993.041 38.64 992.714 38.64C992.285 38.64 991.893 38.57 991.538 38.43C991.193 38.2807 990.913 38.0287 990.698 37.674C990.493 37.3193 990.39 36.8247 990.39 36.19V32.242H989.368V31.472L990.488 30.856L991.048 29.246H992.154V30.912H994.31V32.242H992.154V36.176C992.154 36.5307 992.247 36.7967 992.434 36.974C992.621 37.142 992.863 37.226 993.162 37.226ZM998.933 30.772C999.913 30.772 1000.66 30.9867 1001.16 31.416C1001.67 31.836 1001.93 32.4987 1001.93 33.404V38.5H1000.68L1000.33 37.45H1000.28C1000.06 37.7207 999.839 37.9493 999.605 38.136C999.381 38.3133 999.12 38.4393 998.821 38.514C998.532 38.598 998.177 38.64 997.757 38.64C997.309 38.64 996.903 38.556 996.539 38.388C996.185 38.22 995.905 37.9633 995.699 37.618C995.494 37.2633 995.391 36.82 995.391 36.288C995.391 35.504 995.676 34.916 996.245 34.524C996.824 34.1227 997.697 33.9033 998.863 33.866L1000.18 33.824V33.446C1000.18 32.9607 1000.06 32.6153 999.829 32.41C999.596 32.2047 999.269 32.102 998.849 32.102C998.467 32.102 998.098 32.158 997.743 32.27C997.389 32.382 997.043 32.5127 996.707 32.662L996.147 31.43C996.521 31.234 996.945 31.0753 997.421 30.954C997.907 30.8327 998.411 30.772 998.933 30.772ZM999.255 34.944C998.481 34.972 997.944 35.1073 997.645 35.35C997.347 35.5833 997.197 35.9007 997.197 36.302C997.197 36.6567 997.305 36.9133 997.519 37.072C997.734 37.2307 998.009 37.31 998.345 37.31C998.859 37.31 999.293 37.1653 999.647 36.876C1000 36.5773 1000.18 36.1387 1000.18 35.56V34.916L999.255 34.944ZM1006.65 38.64C1005.77 38.64 1005.05 38.3133 1004.5 37.66C1003.96 36.9973 1003.69 36.0173 1003.69 34.72C1003.69 33.4227 1003.97 32.4427 1004.52 31.78C1005.07 31.108 1005.79 30.772 1006.69 30.772C1007.06 30.772 1007.39 30.8233 1007.67 30.926C1007.96 31.0193 1008.2 31.15 1008.41 31.318C1008.62 31.486 1008.79 31.6727 1008.93 31.878H1009.01C1008.98 31.7473 1008.96 31.5467 1008.93 31.276C1008.9 31.0053 1008.89 30.7533 1008.89 30.52V27.86H1010.65V38.5H1009.28L1008.96 37.506H1008.89C1008.75 37.7113 1008.57 37.9027 1008.37 38.08C1008.16 38.248 1007.92 38.3833 1007.64 38.486C1007.36 38.5887 1007.03 38.64 1006.65 38.64ZM1007.18 37.212C1007.83 37.212 1008.29 37.0253 1008.56 36.652C1008.83 36.2787 1008.97 35.714 1008.97 34.958V34.734C1008.97 33.9127 1008.84 33.2873 1008.58 32.858C1008.33 32.4287 1007.85 32.214 1007.15 32.214C1006.62 32.214 1006.21 32.438 1005.92 32.886C1005.63 33.3247 1005.48 33.9453 1005.48 34.748C1005.48 35.5507 1005.63 36.162 1005.92 36.582C1006.21 37.002 1006.63 37.212 1007.18 37.212ZM1015.93 30.772C1016.91 30.772 1017.65 30.9867 1018.15 31.416C1018.67 31.836 1018.92 32.4987 1018.92 33.404V38.5H1017.68L1017.33 37.45H1017.27C1017.06 37.7207 1016.83 37.9493 1016.6 38.136C1016.38 38.3133 1016.11 38.4393 1015.82 38.514C1015.53 38.598 1015.17 38.64 1014.75 38.64C1014.3 38.64 1013.9 38.556 1013.53 38.388C1013.18 38.22 1012.9 37.9633 1012.69 37.618C1012.49 37.2633 1012.39 36.82 1012.39 36.288C1012.39 35.504 1012.67 34.916 1013.24 34.524C1013.82 34.1227 1014.69 33.9033 1015.86 33.866L1017.17 33.824V33.446C1017.17 32.9607 1017.06 32.6153 1016.82 32.41C1016.59 32.2047 1016.26 32.102 1015.84 32.102C1015.46 32.102 1015.09 32.158 1014.74 32.27C1014.38 32.382 1014.04 32.5127 1013.7 32.662L1013.14 31.43C1013.51 31.234 1013.94 31.0753 1014.42 30.954C1014.9 30.8327 1015.4 30.772 1015.93 30.772ZM1016.25 34.944C1015.47 34.972 1014.94 35.1073 1014.64 35.35C1014.34 35.5833 1014.19 35.9007 1014.19 36.302C1014.19 36.6567 1014.3 36.9133 1014.51 37.072C1014.73 37.2307 1015 37.31 1015.34 37.31C1015.85 37.31 1016.29 37.1653 1016.64 36.876C1017 36.5773 1017.17 36.1387 1017.17 35.56V34.916L1016.25 34.944Z" fill="#0F0000"/>
</svg>
