<svg width="1046" height="66" viewBox="0 0 1046 66" fill="none" xmlns="http://www.w3.org/2000/svg">
<rect x="0.5" y="0.5" width="1045" height="65" rx="8.5" stroke="#660000"/>
<rect x="17.25" y="17.25" width="31.5" height="31.5" rx="15.75" stroke="#867979" stroke-width="0.5"/>
<path d="M33.0007 31.6667C34.4734 31.6667 35.6673 30.4728 35.6673 29C35.6673 27.5272 34.4734 26.3333 33.0007 26.3333C31.5279 26.3333 30.334 27.5272 30.334 29C30.334 30.4728 31.5279 31.6667 33.0007 31.6667Z" stroke="#0F0000" stroke-width="1.2"/>
<path d="M38.3337 36.6667C38.3337 38.3233 38.3337 39.6667 33.0003 39.6667C27.667 39.6667 27.667 38.3233 27.667 36.6667C27.667 35.01 30.055 33.6667 33.0003 33.6667C35.9457 33.6667 38.3337 35.01 38.3337 36.6667Z" stroke="#0F0000" stroke-width="1.2"/>
<path d="M72.308 39.5L68.42 28.574H68.348C68.36 28.814 68.378 29.138 68.402 29.546C68.426 29.954 68.444 30.392 68.456 30.86C68.468 31.328 68.474 31.79 68.474 32.246V39.5H66.71V26.648H69.482L73.172 36.962H73.244L77.042 26.648H79.814V39.5H77.924V32.138C77.924 31.718 77.93 31.286 77.942 30.842C77.966 30.386 77.984 29.96 77.996 29.564C78.02 29.168 78.038 28.844 78.05 28.592H77.978L73.982 39.5H72.308ZM86.7794 29.618C88.0034 29.618 88.9154 29.888 89.5154 30.428C90.1154 30.956 90.4154 31.79 90.4154 32.93V39.5H89.0654L88.6874 38.15H88.6154C88.3394 38.498 88.0514 38.786 87.7514 39.014C87.4634 39.242 87.1274 39.41 86.7434 39.518C86.3714 39.626 85.9154 39.68 85.3754 39.68C84.7994 39.68 84.2774 39.578 83.8094 39.374C83.3534 39.158 82.9934 38.834 82.7294 38.402C82.4654 37.958 82.3334 37.406 82.3334 36.746C82.3334 35.762 82.7054 35.012 83.4494 34.496C84.2054 33.98 85.3514 33.698 86.8874 33.65L88.5434 33.596V33.056C88.5434 32.336 88.3814 31.832 88.0574 31.544C87.7334 31.256 87.2774 31.112 86.6894 31.112C86.1854 31.112 85.7054 31.184 85.2494 31.328C84.7934 31.472 84.3614 31.646 83.9534 31.85L83.3414 30.464C83.7974 30.224 84.3194 30.026 84.9074 29.87C85.5074 29.702 86.1314 29.618 86.7794 29.618ZM87.2294 34.874C86.1254 34.922 85.3574 35.108 84.9254 35.432C84.5054 35.744 84.2954 36.188 84.2954 36.764C84.2954 37.268 84.4454 37.634 84.7454 37.862C85.0574 38.09 85.4474 38.204 85.9154 38.204C86.6714 38.204 87.2954 37.994 87.7874 37.574C88.2794 37.154 88.5254 36.524 88.5254 35.684V34.838L87.2294 34.874ZM98.1414 29.618C98.3094 29.618 98.4954 29.63 98.6994 29.654C98.9034 29.666 99.0714 29.684 99.2034 29.708L99.0054 31.49C98.8734 31.454 98.7174 31.424 98.5374 31.4C98.3574 31.376 98.1894 31.364 98.0334 31.364C97.6734 31.364 97.3254 31.436 96.9894 31.58C96.6654 31.712 96.3714 31.91 96.1074 32.174C95.8434 32.426 95.6334 32.738 95.4774 33.11C95.3334 33.482 95.2614 33.908 95.2614 34.388V39.5H93.3534V29.798H94.8654L95.1174 31.526H95.1894C95.3934 31.178 95.6394 30.86 95.9274 30.572C96.2154 30.284 96.5454 30.056 96.9174 29.888C97.2894 29.708 97.6974 29.618 98.1414 29.618ZM102.908 39.5H101V29.798H102.908V39.5ZM104.96 25.892C104.828 26.06 104.648 26.264 104.42 26.504C104.204 26.744 103.958 26.996 103.682 27.26C103.418 27.512 103.154 27.758 102.89 27.998C102.626 28.226 102.386 28.424 102.17 28.592H100.91V28.376C101.09 28.148 101.294 27.878 101.522 27.566C101.75 27.254 101.972 26.936 102.188 26.612C102.404 26.276 102.584 25.976 102.728 25.712H104.96V25.892ZM109.666 29.618C110.89 29.618 111.802 29.888 112.402 30.428C113.002 30.956 113.302 31.79 113.302 32.93V39.5H111.952L111.574 38.15H111.502C111.226 38.498 110.938 38.786 110.638 39.014C110.35 39.242 110.014 39.41 109.63 39.518C109.258 39.626 108.802 39.68 108.262 39.68C107.686 39.68 107.164 39.578 106.696 39.374C106.24 39.158 105.88 38.834 105.616 38.402C105.352 37.958 105.22 37.406 105.22 36.746C105.22 35.762 105.592 35.012 106.336 34.496C107.092 33.98 108.238 33.698 109.774 33.65L111.43 33.596V33.056C111.43 32.336 111.268 31.832 110.944 31.544C110.62 31.256 110.164 31.112 109.576 31.112C109.072 31.112 108.592 31.184 108.136 31.328C107.68 31.472 107.248 31.646 106.84 31.85L106.228 30.464C106.684 30.224 107.206 30.026 107.794 29.87C108.394 29.702 109.018 29.618 109.666 29.618ZM110.116 34.874C109.012 34.922 108.244 35.108 107.812 35.432C107.392 35.744 107.182 36.188 107.182 36.764C107.182 37.268 107.332 37.634 107.632 37.862C107.944 38.09 108.334 38.204 108.802 38.204C109.558 38.204 110.182 37.994 110.674 37.574C111.166 37.154 111.412 36.524 111.412 35.684V34.838L110.116 34.874ZM124.732 26.648C125.836 26.648 126.742 26.786 127.45 27.062C128.158 27.338 128.686 27.752 129.034 28.304C129.382 28.844 129.556 29.528 129.556 30.356C129.556 31.016 129.43 31.574 129.178 32.03C128.938 32.474 128.626 32.84 128.242 33.128C127.858 33.404 127.456 33.626 127.036 33.794L130.636 39.5H128.404L125.308 34.298H123.076V39.5H121.132V26.648H124.732ZM124.606 28.304H123.076V32.678H124.696C125.356 32.678 125.896 32.594 126.316 32.426C126.748 32.258 127.06 32.006 127.252 31.67C127.456 31.334 127.558 30.92 127.558 30.428C127.558 29.912 127.45 29.504 127.234 29.204C127.03 28.892 126.706 28.664 126.262 28.52C125.83 28.376 125.278 28.304 124.606 28.304ZM140.857 34.64C140.857 35.444 140.749 36.158 140.533 36.782C140.317 37.406 140.011 37.934 139.615 38.366C139.219 38.798 138.739 39.128 138.175 39.356C137.611 39.572 136.975 39.68 136.267 39.68C135.619 39.68 135.019 39.572 134.467 39.356C133.915 39.128 133.435 38.798 133.027 38.366C132.631 37.934 132.319 37.406 132.091 36.782C131.863 36.158 131.749 35.438 131.749 34.622C131.749 33.554 131.929 32.648 132.289 31.904C132.661 31.16 133.189 30.596 133.873 30.212C134.569 29.816 135.385 29.618 136.321 29.618C137.209 29.618 137.989 29.816 138.661 30.212C139.345 30.596 139.879 31.16 140.263 31.904C140.659 32.648 140.857 33.56 140.857 34.64ZM133.711 34.64C133.711 35.36 133.801 35.984 133.981 36.512C134.161 37.028 134.443 37.424 134.827 37.7C135.211 37.976 135.703 38.114 136.303 38.114C136.903 38.114 137.395 37.976 137.779 37.7C138.163 37.424 138.445 37.028 138.625 36.512C138.805 35.984 138.895 35.36 138.895 34.64C138.895 33.896 138.799 33.272 138.607 32.768C138.427 32.264 138.145 31.88 137.761 31.616C137.389 31.34 136.897 31.202 136.285 31.202C135.385 31.202 134.731 31.502 134.323 32.102C133.915 32.702 133.711 33.548 133.711 34.64ZM146.605 39.68C145.441 39.68 144.499 39.26 143.779 38.42C143.071 37.58 142.717 36.332 142.717 34.676C142.717 33.008 143.077 31.748 143.797 30.896C144.517 30.044 145.465 29.618 146.641 29.618C147.133 29.618 147.559 29.684 147.919 29.816C148.291 29.936 148.609 30.104 148.873 30.32C149.149 30.536 149.383 30.776 149.575 31.04H149.683C149.659 30.872 149.629 30.632 149.593 30.32C149.557 29.996 149.539 29.708 149.539 29.456V25.82H151.447V39.5H149.953L149.629 38.204H149.539C149.359 38.48 149.131 38.732 148.855 38.96C148.591 39.176 148.273 39.35 147.901 39.482C147.529 39.614 147.097 39.68 146.605 39.68ZM147.055 38.114C147.991 38.114 148.651 37.856 149.035 37.34C149.419 36.812 149.611 36.026 149.611 34.982V34.694C149.611 33.554 149.425 32.684 149.053 32.084C148.693 31.484 148.021 31.184 147.037 31.184C146.257 31.184 145.669 31.502 145.273 32.138C144.877 32.762 144.679 33.62 144.679 34.712C144.679 35.804 144.877 36.644 145.273 37.232C145.669 37.82 146.263 38.114 147.055 38.114ZM159.225 29.618C159.393 29.618 159.579 29.63 159.783 29.654C159.987 29.666 160.155 29.684 160.287 29.708L160.089 31.49C159.957 31.454 159.801 31.424 159.621 31.4C159.441 31.376 159.273 31.364 159.117 31.364C158.757 31.364 158.409 31.436 158.073 31.58C157.749 31.712 157.455 31.91 157.191 32.174C156.927 32.426 156.717 32.738 156.561 33.11C156.417 33.482 156.345 33.908 156.345 34.388V39.5H154.437V29.798H155.949L156.201 31.526H156.273C156.477 31.178 156.723 30.86 157.011 30.572C157.299 30.284 157.629 30.056 158.001 29.888C158.373 29.708 158.781 29.618 159.225 29.618ZM163.992 29.798V39.5H162.084V29.798H163.992ZM163.056 26.108C163.344 26.108 163.596 26.192 163.812 26.36C164.028 26.528 164.136 26.81 164.136 27.206C164.136 27.59 164.028 27.872 163.812 28.052C163.596 28.22 163.344 28.304 163.056 28.304C162.744 28.304 162.48 28.22 162.264 28.052C162.06 27.872 161.958 27.59 161.958 27.206C161.958 26.81 162.06 26.528 162.264 26.36C162.48 26.192 162.744 26.108 163.056 26.108ZM170.336 29.618C170.96 29.618 171.524 29.738 172.028 29.978C172.532 30.218 172.958 30.584 173.306 31.076H173.396L173.612 29.798H175.16V39.626C175.16 40.538 174.998 41.306 174.674 41.93C174.35 42.554 173.852 43.022 173.18 43.334C172.52 43.658 171.686 43.82 170.678 43.82C169.982 43.82 169.34 43.772 168.752 43.676C168.164 43.58 167.624 43.43 167.132 43.226V41.552C167.48 41.72 167.846 41.858 168.23 41.966C168.614 42.086 169.022 42.17 169.454 42.218C169.886 42.278 170.33 42.308 170.786 42.308C171.578 42.308 172.19 42.08 172.622 41.624C173.054 41.18 173.27 40.55 173.27 39.734V39.41C173.27 39.254 173.276 39.05 173.288 38.798C173.3 38.534 173.312 38.342 173.324 38.222H173.252C172.916 38.726 172.502 39.098 172.01 39.338C171.53 39.566 170.972 39.68 170.336 39.68C169.112 39.68 168.152 39.242 167.456 38.366C166.772 37.478 166.43 36.248 166.43 34.676C166.43 33.62 166.586 32.72 166.898 31.976C167.21 31.22 167.654 30.638 168.23 30.23C168.818 29.822 169.52 29.618 170.336 29.618ZM170.732 31.202C170.228 31.202 169.802 31.34 169.454 31.616C169.106 31.88 168.842 32.27 168.662 32.786C168.482 33.302 168.392 33.938 168.392 34.694C168.392 35.822 168.59 36.68 168.986 37.268C169.394 37.856 169.988 38.15 170.768 38.15C171.224 38.15 171.608 38.09 171.92 37.97C172.244 37.85 172.508 37.664 172.712 37.412C172.928 37.16 173.084 36.842 173.18 36.458C173.288 36.062 173.342 35.588 173.342 35.036V34.676C173.342 33.848 173.246 33.182 173.054 32.678C172.874 32.162 172.592 31.79 172.208 31.562C171.824 31.322 171.332 31.202 170.732 31.202ZM186.502 29.798V39.5H184.972L184.702 38.222H184.612C184.408 38.558 184.144 38.834 183.82 39.05C183.496 39.266 183.142 39.422 182.758 39.518C182.374 39.626 181.978 39.68 181.57 39.68C180.814 39.68 180.172 39.56 179.644 39.32C179.128 39.068 178.732 38.684 178.456 38.168C178.192 37.64 178.06 36.968 178.06 36.152V29.798H179.986V35.864C179.986 36.62 180.142 37.184 180.454 37.556C180.778 37.928 181.276 38.114 181.948 38.114C182.62 38.114 183.148 37.982 183.532 37.718C183.916 37.454 184.186 37.07 184.342 36.566C184.51 36.05 184.594 35.432 184.594 34.712V29.798H186.502ZM193.304 29.618C194.156 29.618 194.888 29.798 195.5 30.158C196.112 30.506 196.58 31.01 196.904 31.67C197.24 32.33 197.408 33.11 197.408 34.01V35.054H190.892C190.916 36.05 191.174 36.812 191.666 37.34C192.17 37.868 192.872 38.132 193.772 38.132C194.396 38.132 194.948 38.078 195.428 37.97C195.92 37.85 196.424 37.676 196.94 37.448V39.032C196.46 39.248 195.968 39.41 195.464 39.518C194.972 39.626 194.384 39.68 193.7 39.68C192.764 39.68 191.936 39.494 191.216 39.122C190.496 38.75 189.932 38.198 189.524 37.466C189.128 36.722 188.93 35.81 188.93 34.73C188.93 33.638 189.11 32.714 189.47 31.958C189.842 31.202 190.352 30.626 191 30.23C191.66 29.822 192.428 29.618 193.304 29.618ZM193.304 31.094C192.62 31.094 192.068 31.316 191.648 31.76C191.24 32.204 191 32.834 190.928 33.65H195.5C195.5 33.146 195.422 32.702 195.266 32.318C195.11 31.934 194.87 31.634 194.546 31.418C194.222 31.202 193.808 31.094 193.304 31.094ZM206.021 39.5H198.749V38.294L203.753 31.274H199.055V29.798H205.877V31.148L200.981 38.024H206.021V39.5ZM212.004 35.486V33.866H216.468V35.486H212.004ZM228.51 39.5H226.62V30.968C226.62 30.668 226.62 30.392 226.62 30.14C226.632 29.876 226.644 29.624 226.656 29.384C226.668 29.132 226.68 28.892 226.692 28.664C226.536 28.82 226.374 28.97 226.206 29.114C226.038 29.258 225.846 29.426 225.63 29.618L224.226 30.752L223.254 29.528L226.926 26.648H228.51V39.5ZM241.565 32.138C241.565 32.87 241.511 33.602 241.403 34.334C241.295 35.054 241.115 35.738 240.863 36.386C240.611 37.022 240.251 37.592 239.783 38.096C239.327 38.588 238.745 38.978 238.037 39.266C237.341 39.542 236.495 39.68 235.499 39.68C235.259 39.68 234.977 39.668 234.653 39.644C234.329 39.62 234.059 39.578 233.843 39.518V37.916C234.071 37.988 234.323 38.042 234.599 38.078C234.887 38.114 235.163 38.132 235.427 38.132C236.255 38.132 236.933 38.012 237.461 37.772C238.001 37.52 238.427 37.172 238.739 36.728C239.063 36.284 239.297 35.768 239.441 35.18C239.585 34.592 239.669 33.968 239.693 33.308H239.585C239.405 33.584 239.183 33.836 238.919 34.064C238.655 34.292 238.331 34.472 237.947 34.604C237.575 34.736 237.125 34.802 236.597 34.802C235.865 34.802 235.217 34.646 234.653 34.334C234.101 34.022 233.675 33.578 233.375 33.002C233.075 32.414 232.925 31.7 232.925 30.86C232.925 29.948 233.093 29.168 233.429 28.52C233.777 27.86 234.263 27.356 234.887 27.008C235.523 26.66 236.261 26.486 237.101 26.486C237.725 26.486 238.307 26.6 238.847 26.828C239.387 27.056 239.861 27.404 240.269 27.872C240.677 28.34 240.995 28.928 241.223 29.636C241.451 30.344 241.565 31.178 241.565 32.138ZM237.119 28.052C236.435 28.052 235.877 28.28 235.445 28.736C235.013 29.192 234.797 29.888 234.797 30.824C234.797 31.592 234.977 32.198 235.337 32.642C235.709 33.086 236.279 33.308 237.047 33.308C237.575 33.308 238.031 33.2 238.415 32.984C238.799 32.756 239.099 32.48 239.315 32.156C239.531 31.82 239.639 31.472 239.639 31.112C239.639 30.752 239.585 30.392 239.477 30.032C239.369 29.672 239.213 29.342 239.009 29.042C238.805 28.742 238.541 28.502 238.217 28.322C237.905 28.142 237.539 28.052 237.119 28.052ZM249.184 26.648L244.396 39.5H242.578L247.366 26.648H249.184ZM258.81 33.056C258.81 34.1 258.726 35.03 258.558 35.846C258.402 36.662 258.15 37.358 257.802 37.934C257.466 38.498 257.016 38.93 256.452 39.23C255.9 39.53 255.234 39.68 254.454 39.68C253.47 39.68 252.66 39.416 252.024 38.888C251.388 38.36 250.914 37.604 250.602 36.62C250.29 35.624 250.134 34.436 250.134 33.056C250.134 31.664 250.272 30.476 250.548 29.492C250.836 28.508 251.298 27.758 251.934 27.242C252.57 26.714 253.41 26.45 254.454 26.45C255.438 26.45 256.248 26.714 256.884 27.242C257.532 27.758 258.012 28.508 258.324 29.492C258.648 30.476 258.81 31.664 258.81 33.056ZM252.042 33.056C252.042 34.172 252.12 35.102 252.276 35.846C252.432 36.59 252.684 37.148 253.032 37.52C253.392 37.892 253.866 38.078 254.454 38.078C255.042 38.078 255.51 37.898 255.858 37.538C256.218 37.166 256.476 36.608 256.632 35.864C256.8 35.108 256.884 34.172 256.884 33.056C256.884 31.94 256.8 31.016 256.632 30.284C256.476 29.54 256.218 28.982 255.858 28.61C255.51 28.238 255.042 28.052 254.454 28.052C253.866 28.052 253.392 28.238 253.032 28.61C252.684 28.982 252.432 29.54 252.276 30.284C252.12 31.016 252.042 31.94 252.042 33.056ZM266.321 39.5H264.431V30.968C264.431 30.668 264.431 30.392 264.431 30.14C264.443 29.876 264.455 29.624 264.467 29.384C264.479 29.132 264.491 28.892 264.503 28.664C264.347 28.82 264.185 28.97 264.017 29.114C263.849 29.258 263.657 29.426 263.441 29.618L262.037 30.752L261.065 29.528L264.737 26.648H266.321V39.5ZM276.694 26.648L271.906 39.5H270.088L274.876 26.648H276.694ZM286.302 39.5H277.662V38.024L280.974 34.658C281.622 33.998 282.162 33.428 282.594 32.948C283.026 32.456 283.35 31.988 283.566 31.544C283.782 31.088 283.89 30.596 283.89 30.068C283.89 29.408 283.698 28.916 283.314 28.592C282.93 28.256 282.432 28.088 281.82 28.088C281.232 28.088 280.704 28.202 280.236 28.43C279.768 28.646 279.282 28.952 278.778 29.348L277.752 28.07C278.1 27.77 278.472 27.5 278.868 27.26C279.276 27.02 279.726 26.828 280.218 26.684C280.722 26.54 281.274 26.468 281.874 26.468C282.69 26.468 283.392 26.612 283.98 26.9C284.568 27.176 285.018 27.572 285.33 28.088C285.654 28.604 285.816 29.21 285.816 29.906C285.816 30.422 285.738 30.908 285.582 31.364C285.426 31.808 285.198 32.246 284.898 32.678C284.61 33.11 284.256 33.548 283.836 33.992C283.416 34.436 282.954 34.904 282.45 35.396L280.056 37.718V37.808H286.302V39.5ZM297.089 36.656H295.307V39.5H293.453V36.656H287.495V35.144L293.417 26.594H295.307V35.036H297.089V36.656ZM293.453 31.544C293.453 31.256 293.453 30.98 293.453 30.716C293.465 30.452 293.477 30.2 293.489 29.96C293.501 29.708 293.507 29.48 293.507 29.276C293.519 29.06 293.531 28.868 293.543 28.7H293.471C293.375 28.94 293.255 29.186 293.111 29.438C292.979 29.69 292.841 29.912 292.697 30.104L289.295 35.036H293.453V31.544Z" fill="#0F0000"/>
<path d="M368.5 31C370.709 31 372.5 29.2091 372.5 27C372.5 24.7909 370.709 23 368.5 23C366.291 23 364.5 24.7909 364.5 27C364.5 29.2091 366.291 31 368.5 31Z" stroke="#0F0000" stroke-width="1.8"/>
<path d="M376.5 38.5C376.5 40.985 376.5 43 368.5 43C360.5 43 360.5 40.985 360.5 38.5C360.5 36.015 364.082 34 368.5 34C372.918 34 376.5 36.015 376.5 38.5Z" stroke="#0F0000" stroke-width="1.8"/>
<path d="M397.22 39.5L395.844 35.964H391.316L389.956 39.5H388.5L392.964 28.028H394.26L398.708 39.5H397.22ZM394.132 31.228C394.1 31.1427 394.047 30.988 393.972 30.764C393.897 30.54 393.823 30.3107 393.748 30.076C393.684 29.8307 393.631 29.644 393.588 29.516C393.535 29.7293 393.476 29.948 393.412 30.172C393.359 30.3853 393.3 30.5827 393.236 30.764C393.183 30.9453 393.135 31.1 393.092 31.228L391.796 34.684H395.412L394.132 31.228ZM404.207 30.764C405.231 30.764 406.004 31.0147 406.527 31.516C407.049 32.0067 407.311 32.8067 407.311 33.916V39.5H405.919V34.012C405.919 33.3187 405.764 32.8013 405.455 32.46C405.145 32.1187 404.66 31.948 403.999 31.948C403.049 31.948 402.393 32.2147 402.031 32.748C401.668 33.2813 401.487 34.0493 401.487 35.052V39.5H400.079V30.924H401.215L401.423 32.092H401.503C401.695 31.7933 401.929 31.548 402.207 31.356C402.495 31.1533 402.809 31.004 403.151 30.908C403.492 30.812 403.844 30.764 404.207 30.764ZM413.009 39.66C411.943 39.66 411.089 39.292 410.449 38.556C409.809 37.8093 409.489 36.7 409.489 35.228C409.489 33.756 409.809 32.6467 410.449 31.9C411.1 31.1427 411.959 30.764 413.025 30.764C413.473 30.764 413.863 30.8227 414.193 30.94C414.524 31.0467 414.812 31.196 415.057 31.388C415.303 31.58 415.511 31.7933 415.681 32.028H415.777C415.767 31.8893 415.745 31.6867 415.713 31.42C415.692 31.1427 415.681 30.924 415.681 30.764V27.34H417.089V39.5H415.953L415.745 38.348H415.681C415.511 38.5933 415.303 38.8173 415.057 39.02C414.812 39.212 414.519 39.3667 414.177 39.484C413.847 39.6013 413.457 39.66 413.009 39.66ZM413.233 38.492C414.14 38.492 414.775 38.2467 415.137 37.756C415.511 37.2547 415.697 36.5027 415.697 35.5V35.244C415.697 34.1773 415.521 33.3613 415.169 32.796C414.817 32.22 414.167 31.932 413.217 31.932C412.46 31.932 411.889 32.236 411.505 32.844C411.132 33.4413 410.945 34.2467 410.945 35.26C410.945 36.284 411.132 37.0787 411.505 37.644C411.889 38.2093 412.465 38.492 413.233 38.492ZM423.813 30.764C423.973 30.764 424.144 30.7747 424.325 30.796C424.517 30.8067 424.682 30.828 424.821 30.86L424.645 32.156C424.506 32.124 424.352 32.0973 424.181 32.076C424.021 32.0547 423.866 32.044 423.717 32.044C423.386 32.044 423.072 32.1133 422.773 32.252C422.474 32.3907 422.208 32.588 421.973 32.844C421.738 33.0893 421.552 33.388 421.413 33.74C421.285 34.092 421.221 34.4867 421.221 34.924V39.5H419.813V30.924H420.965L421.125 32.492H421.189C421.37 32.172 421.589 31.884 421.845 31.628C422.101 31.3613 422.394 31.1533 422.725 31.004C423.056 30.844 423.418 30.764 423.813 30.764ZM429.422 30.764C430.158 30.764 430.787 30.924 431.31 31.244C431.843 31.564 432.249 32.0173 432.526 32.604C432.814 33.18 432.958 33.8573 432.958 34.636V35.484H427.086C427.107 36.4547 427.353 37.196 427.822 37.708C428.302 38.2093 428.969 38.46 429.822 38.46C430.366 38.46 430.846 38.412 431.262 38.316C431.689 38.2093 432.126 38.06 432.574 37.868V39.1C432.137 39.292 431.705 39.4307 431.278 39.516C430.851 39.612 430.345 39.66 429.758 39.66C428.947 39.66 428.227 39.4947 427.598 39.164C426.979 38.8333 426.494 38.3427 426.142 37.692C425.801 37.0307 425.63 36.2253 425.63 35.276C425.63 34.3373 425.785 33.532 426.094 32.86C426.414 32.188 426.857 31.6707 427.422 31.308C427.998 30.9453 428.665 30.764 429.422 30.764ZM429.406 31.916C428.734 31.916 428.201 32.1347 427.806 32.572C427.422 32.9987 427.193 33.596 427.118 34.364H431.486C431.486 33.8733 431.411 33.4467 431.262 33.084C431.113 32.7213 430.883 32.4387 430.574 32.236C430.275 32.0227 429.886 31.916 429.406 31.916ZM438.389 30.78C439.435 30.78 440.208 31.0093 440.709 31.468C441.211 31.9267 441.461 32.6573 441.461 33.66V39.5H440.437L440.165 38.284H440.101C439.856 38.5933 439.6 38.8547 439.333 39.068C439.077 39.2707 438.779 39.42 438.437 39.516C438.107 39.612 437.701 39.66 437.221 39.66C436.709 39.66 436.245 39.5693 435.829 39.388C435.424 39.2067 435.104 38.9293 434.869 38.556C434.635 38.172 434.517 37.692 434.517 37.116C434.517 36.2627 434.853 35.6067 435.525 35.148C436.197 34.6787 437.232 34.4227 438.629 34.38L440.085 34.332V33.82C440.085 33.1053 439.931 32.6093 439.621 32.332C439.312 32.0547 438.875 31.916 438.309 31.916C437.861 31.916 437.435 31.9853 437.029 32.124C436.624 32.252 436.245 32.4013 435.893 32.572L435.461 31.516C435.835 31.3133 436.277 31.1427 436.789 31.004C437.301 30.8547 437.835 30.78 438.389 30.78ZM438.805 35.356C437.739 35.3987 436.997 35.5693 436.581 35.868C436.176 36.1667 435.973 36.588 435.973 37.132C435.973 37.612 436.117 37.964 436.405 38.188C436.704 38.412 437.083 38.524 437.541 38.524C438.267 38.524 438.869 38.3267 439.349 37.932C439.829 37.5267 440.069 36.908 440.069 36.076V35.308L438.805 35.356ZM457.61 33.676C457.61 34.956 457.37 36.028 456.89 36.892C456.421 37.756 455.744 38.4067 454.858 38.844C453.973 39.2813 452.901 39.5 451.642 39.5H448.458V28.076H451.978C453.13 28.076 454.128 28.2893 454.97 28.716C455.813 29.1427 456.464 29.772 456.922 30.604C457.381 31.4253 457.61 32.4493 457.61 33.676ZM456.09 33.724C456.09 32.7107 455.92 31.8787 455.578 31.228C455.248 30.5773 454.757 30.0973 454.106 29.788C453.466 29.468 452.688 29.308 451.77 29.308H449.898V38.268H451.45C452.997 38.268 454.154 37.8893 454.922 37.132C455.701 36.364 456.09 35.228 456.09 33.724ZM463.266 30.764C464.002 30.764 464.631 30.924 465.154 31.244C465.687 31.564 466.092 32.0173 466.37 32.604C466.658 33.18 466.802 33.8573 466.802 34.636V35.484H460.93C460.951 36.4547 461.196 37.196 461.666 37.708C462.146 38.2093 462.812 38.46 463.666 38.46C464.21 38.46 464.69 38.412 465.106 38.316C465.532 38.2093 465.97 38.06 466.418 37.868V39.1C465.98 39.292 465.548 39.4307 465.122 39.516C464.695 39.612 464.188 39.66 463.602 39.66C462.791 39.66 462.071 39.4947 461.442 39.164C460.823 38.8333 460.338 38.3427 459.986 37.692C459.644 37.0307 459.474 36.2253 459.474 35.276C459.474 34.3373 459.628 33.532 459.938 32.86C460.258 32.188 460.7 31.6707 461.266 31.308C461.842 30.9453 462.508 30.764 463.266 30.764ZM463.25 31.916C462.578 31.916 462.044 32.1347 461.65 32.572C461.266 32.9987 461.036 33.596 460.962 34.364H465.33C465.33 33.8733 465.255 33.4467 465.106 33.084C464.956 32.7213 464.727 32.4387 464.418 32.236C464.119 32.0227 463.73 31.916 463.25 31.916ZM474.569 37.132C474.569 37.6867 474.43 38.1507 474.153 38.524C473.876 38.8973 473.481 39.18 472.969 39.372C472.457 39.564 471.849 39.66 471.145 39.66C470.548 39.66 470.03 39.612 469.593 39.516C469.166 39.42 468.788 39.2867 468.457 39.116V37.836C468.798 38.0067 469.209 38.1667 469.689 38.316C470.18 38.4547 470.676 38.524 471.177 38.524C471.892 38.524 472.409 38.412 472.729 38.188C473.049 37.9533 473.209 37.644 473.209 37.26C473.209 37.0467 473.15 36.8547 473.033 36.684C472.916 36.5133 472.702 36.3427 472.393 36.172C472.094 36.0013 471.662 35.8093 471.097 35.596C470.542 35.3827 470.068 35.1693 469.673 34.956C469.278 34.7427 468.974 34.4867 468.761 34.188C468.548 33.8893 468.441 33.5053 468.441 33.036C468.441 32.3107 468.734 31.7507 469.321 31.356C469.918 30.9613 470.697 30.764 471.657 30.764C472.18 30.764 472.665 30.8173 473.113 30.924C473.572 31.02 473.998 31.1587 474.393 31.34L473.913 32.46C473.678 32.3533 473.428 32.2627 473.161 32.188C472.905 32.1027 472.644 32.0387 472.377 31.996C472.11 31.9427 471.838 31.916 471.561 31.916C470.985 31.916 470.542 32.012 470.233 32.204C469.934 32.3853 469.785 32.636 469.785 32.956C469.785 33.1907 469.854 33.3933 469.993 33.564C470.132 33.724 470.361 33.884 470.681 34.044C471.012 34.1933 471.449 34.3747 471.993 34.588C472.537 34.7907 473.001 34.9987 473.385 35.212C473.769 35.4253 474.062 35.6867 474.265 35.996C474.468 36.2947 474.569 36.6733 474.569 37.132ZM478.033 33.692C478.033 33.8627 478.023 34.0867 478.001 34.364C477.991 34.6413 477.98 34.8813 477.969 35.084H478.033C478.097 34.9987 478.193 34.876 478.321 34.716C478.449 34.556 478.577 34.396 478.705 34.236C478.844 34.0653 478.961 33.9267 479.057 33.82L481.793 30.924H483.441L479.969 34.588L483.681 39.5H481.985L479.009 35.5L478.033 36.348V39.5H476.641V27.34H478.033V33.692ZM492.644 35.196C492.644 35.9107 492.548 36.5453 492.356 37.1C492.175 37.644 491.908 38.108 491.556 38.492C491.215 38.876 490.793 39.1693 490.292 39.372C489.801 39.564 489.252 39.66 488.644 39.66C488.079 39.66 487.556 39.564 487.076 39.372C486.596 39.1693 486.18 38.876 485.828 38.492C485.476 38.108 485.199 37.644 484.996 37.1C484.804 36.5453 484.708 35.9107 484.708 35.196C484.708 34.2467 484.868 33.4467 485.188 32.796C485.508 32.1347 485.967 31.6333 486.564 31.292C487.161 30.94 487.871 30.764 488.692 30.764C489.471 30.764 490.153 30.94 490.74 31.292C491.337 31.6333 491.801 32.1347 492.132 32.796C492.473 33.4467 492.644 34.2467 492.644 35.196ZM486.164 35.196C486.164 35.868 486.249 36.4547 486.42 36.956C486.601 37.4467 486.879 37.8253 487.252 38.092C487.625 38.3587 488.1 38.492 488.676 38.492C489.252 38.492 489.727 38.3587 490.1 38.092C490.473 37.8253 490.745 37.4467 490.916 36.956C491.097 36.4547 491.188 35.868 491.188 35.196C491.188 34.5133 491.097 33.932 490.916 33.452C490.735 32.972 490.457 32.604 490.084 32.348C489.721 32.0813 489.247 31.948 488.66 31.948C487.785 31.948 487.151 32.236 486.756 32.812C486.361 33.388 486.164 34.1827 486.164 35.196ZM496.451 39.5L493.203 30.924H494.707L496.531 35.98C496.616 36.2147 496.707 36.476 496.803 36.764C496.899 37.052 496.984 37.3293 497.059 37.596C497.134 37.852 497.187 38.0707 497.219 38.252H497.283C497.326 38.0707 497.384 37.8467 497.459 37.58C497.544 37.3133 497.635 37.036 497.731 36.748C497.838 36.46 497.928 36.204 498.003 35.98L499.827 30.924H501.331L498.067 39.5H496.451ZM504.096 30.924V39.5H502.688V30.924H504.096ZM503.408 27.708C503.621 27.708 503.808 27.7827 503.968 27.932C504.139 28.0707 504.224 28.2947 504.224 28.604C504.224 28.9027 504.139 29.1267 503.968 29.276C503.808 29.4253 503.621 29.5 503.408 29.5C503.173 29.5 502.976 29.4253 502.816 29.276C502.656 29.1267 502.576 28.9027 502.576 28.604C502.576 28.2947 502.656 28.0707 502.816 27.932C502.976 27.7827 503.173 27.708 503.408 27.708ZM510.253 39.66C509.496 39.66 508.818 39.5053 508.221 39.196C507.634 38.8867 507.17 38.4067 506.829 37.756C506.498 37.1053 506.333 36.2733 506.333 35.26C506.333 34.204 506.509 33.3453 506.861 32.684C507.213 32.0227 507.688 31.5373 508.285 31.228C508.893 30.9187 509.581 30.764 510.349 30.764C510.786 30.764 511.208 30.812 511.613 30.908C512.018 30.9933 512.349 31.1 512.605 31.228L512.173 32.396C511.917 32.3 511.618 32.2093 511.277 32.124C510.936 32.0387 510.616 31.996 510.317 31.996C509.741 31.996 509.266 32.1187 508.893 32.364C508.52 32.6093 508.242 32.972 508.061 33.452C507.88 33.932 507.789 34.5293 507.789 35.244C507.789 35.9267 507.88 36.508 508.061 36.988C508.242 37.468 508.514 37.8307 508.877 38.076C509.24 38.3213 509.693 38.444 510.237 38.444C510.706 38.444 511.117 38.396 511.469 38.3C511.832 38.204 512.162 38.0867 512.461 37.948V39.196C512.173 39.3453 511.853 39.4573 511.501 39.532C511.16 39.6173 510.744 39.66 510.253 39.66Z" fill="#0F0000"/>
<circle cx="937.5" cy="33" r="9.5" fill="#FF1E10"/>
<path d="M959.767 28.504C960.644 28.504 961.368 28.6113 961.937 28.826C962.506 29.0407 962.931 29.3673 963.211 29.806C963.491 30.2353 963.631 30.7813 963.631 31.444C963.631 31.9293 963.538 32.3447 963.351 32.69C963.174 33.0353 962.94 33.3247 962.651 33.558C962.362 33.782 962.049 33.964 961.713 34.104L964.583 38.5H962.567L960.173 34.552H958.717V38.5H956.925V28.504H959.767ZM959.655 30.002H958.717V33.082H959.711C960.206 33.082 960.607 33.0213 960.915 32.9C961.223 32.7787 961.447 32.6013 961.587 32.368C961.736 32.1347 961.811 31.8453 961.811 31.5C961.811 31.136 961.732 30.8467 961.573 30.632C961.414 30.408 961.176 30.2493 960.859 30.156C960.551 30.0533 960.15 30.002 959.655 30.002ZM968.86 30.772C969.541 30.772 970.124 30.912 970.61 31.192C971.104 31.4627 971.487 31.8547 971.758 32.368C972.028 32.872 972.164 33.488 972.164 34.216V35.112H967.152C967.17 35.8027 967.362 36.3393 967.726 36.722C968.09 37.0953 968.594 37.282 969.238 37.282C969.732 37.282 970.171 37.2353 970.554 37.142C970.946 37.0393 971.347 36.8947 971.758 36.708V38.122C971.384 38.2993 970.997 38.43 970.596 38.514C970.194 38.598 969.714 38.64 969.154 38.64C968.416 38.64 967.758 38.5 967.18 38.22C966.61 37.9307 966.162 37.4967 965.836 36.918C965.518 36.3393 965.36 35.6207 965.36 34.762C965.36 33.894 965.504 33.166 965.794 32.578C966.092 31.9807 966.503 31.5327 967.026 31.234C967.548 30.926 968.16 30.772 968.86 30.772ZM968.86 32.074C968.393 32.074 968.01 32.228 967.712 32.536C967.422 32.8347 967.25 33.2827 967.194 33.88H970.456C970.456 33.5253 970.395 33.2127 970.274 32.942C970.162 32.6713 969.989 32.4613 969.756 32.312C969.522 32.1533 969.224 32.074 968.86 32.074ZM977.009 38.64C976.29 38.64 975.665 38.5047 975.133 38.234C974.61 37.954 974.204 37.5293 973.915 36.96C973.635 36.3813 973.495 35.644 973.495 34.748C973.495 33.8147 973.649 33.0587 973.957 32.48C974.274 31.892 974.708 31.4627 975.259 31.192C975.809 30.912 976.439 30.772 977.149 30.772C977.625 30.772 978.049 30.8187 978.423 30.912C978.796 31.0053 979.113 31.1173 979.375 31.248L978.857 32.634C978.567 32.522 978.278 32.4287 977.989 32.354C977.699 32.27 977.419 32.228 977.149 32.228C976.729 32.228 976.379 32.3213 976.099 32.508C975.828 32.6947 975.627 32.9747 975.497 33.348C975.366 33.712 975.301 34.174 975.301 34.734C975.301 35.2753 975.366 35.728 975.497 36.092C975.637 36.456 975.842 36.7313 976.113 36.918C976.383 37.0953 976.719 37.184 977.121 37.184C977.55 37.184 977.928 37.1327 978.255 37.03C978.581 36.9273 978.889 36.7873 979.179 36.61V38.136C978.889 38.3133 978.577 38.4393 978.241 38.514C977.914 38.598 977.503 38.64 977.009 38.64ZM982.72 30.394C982.72 30.6927 982.706 30.9867 982.678 31.276C982.66 31.556 982.641 31.766 982.622 31.906H982.734C982.893 31.6447 983.089 31.4347 983.322 31.276C983.556 31.108 983.812 30.982 984.092 30.898C984.382 30.814 984.68 30.772 984.988 30.772C985.558 30.772 986.048 30.87 986.458 31.066C986.869 31.262 987.182 31.5653 987.396 31.976C987.62 32.3773 987.732 32.9047 987.732 33.558V38.5H985.968V33.908C985.968 33.3293 985.856 32.9 985.632 32.62C985.408 32.34 985.054 32.2 984.568 32.2C984.102 32.2 983.733 32.3027 983.462 32.508C983.192 32.704 983 32.998 982.888 33.39C982.776 33.7727 982.72 34.244 982.72 34.804V38.5H980.956V27.86H982.72V30.394ZM992.963 30.772C993.943 30.772 994.685 30.9867 995.189 31.416C995.702 31.836 995.959 32.4987 995.959 33.404V38.5H994.713L994.363 37.45H994.307C994.092 37.7207 993.868 37.9493 993.635 38.136C993.411 38.3133 993.149 38.4393 992.851 38.514C992.561 38.598 992.207 38.64 991.787 38.64C991.339 38.64 990.933 38.556 990.569 38.388C990.214 38.22 989.934 37.9633 989.729 37.618C989.523 37.2633 989.421 36.82 989.421 36.288C989.421 35.504 989.705 34.916 990.275 34.524C990.853 34.1227 991.726 33.9033 992.893 33.866L994.209 33.824V33.446C994.209 32.9607 994.092 32.6153 993.859 32.41C993.625 32.2047 993.299 32.102 992.879 32.102C992.496 32.102 992.127 32.158 991.773 32.27C991.418 32.382 991.073 32.5127 990.737 32.662L990.177 31.43C990.55 31.234 990.975 31.0753 991.451 30.954C991.936 30.8327 992.44 30.772 992.963 30.772ZM993.285 34.944C992.51 34.972 991.973 35.1073 991.675 35.35C991.376 35.5833 991.227 35.9007 991.227 36.302C991.227 36.6567 991.334 36.9133 991.549 37.072C991.763 37.2307 992.039 37.31 992.375 37.31C992.888 37.31 993.322 37.1653 993.677 36.876C994.031 36.5773 994.209 36.1387 994.209 35.56V34.916L993.285 34.944ZM1003.31 38.5H997.483V37.422L1001.21 32.256H997.693V30.912H1003.2V32.102L999.541 37.142H1003.31V38.5ZM1007.93 30.772C1008.91 30.772 1009.66 30.9867 1010.16 31.416C1010.67 31.836 1010.93 32.4987 1010.93 33.404V38.5H1009.68L1009.33 37.45H1009.28C1009.06 37.7207 1008.84 37.9493 1008.61 38.136C1008.38 38.3133 1008.12 38.4393 1007.82 38.514C1007.53 38.598 1007.18 38.64 1006.76 38.64C1006.31 38.64 1005.9 38.556 1005.54 38.388C1005.18 38.22 1004.9 37.9633 1004.7 37.618C1004.49 37.2633 1004.39 36.82 1004.39 36.288C1004.39 35.504 1004.68 34.916 1005.25 34.524C1005.82 34.1227 1006.7 33.9033 1007.86 33.866L1009.18 33.824V33.446C1009.18 32.9607 1009.06 32.6153 1008.83 32.41C1008.6 32.2047 1008.27 32.102 1007.85 32.102C1007.47 32.102 1007.1 32.158 1006.74 32.27C1006.39 32.382 1006.04 32.5127 1005.71 32.662L1005.15 31.43C1005.52 31.234 1005.95 31.0753 1006.42 30.954C1006.91 30.8327 1007.41 30.772 1007.93 30.772ZM1008.26 34.944C1007.48 34.972 1006.94 35.1073 1006.65 35.35C1006.35 35.5833 1006.2 35.9007 1006.2 36.302C1006.2 36.6567 1006.3 36.9133 1006.52 37.072C1006.73 37.2307 1007.01 37.31 1007.35 37.31C1007.86 37.31 1008.29 37.1653 1008.65 36.876C1009 36.5773 1009.18 36.1387 1009.18 35.56V34.916L1008.26 34.944ZM1015.65 38.64C1014.77 38.64 1014.05 38.3133 1013.5 37.66C1012.96 36.9973 1012.69 36.0173 1012.69 34.72C1012.69 33.4227 1012.97 32.4427 1013.52 31.78C1014.07 31.108 1014.79 30.772 1015.69 30.772C1016.06 30.772 1016.39 30.8233 1016.67 30.926C1016.96 31.0193 1017.2 31.15 1017.41 31.318C1017.62 31.486 1017.79 31.6727 1017.93 31.878H1018.01C1017.98 31.7473 1017.96 31.5467 1017.93 31.276C1017.9 31.0053 1017.89 30.7533 1017.89 30.52V27.86H1019.65V38.5H1018.28L1017.96 37.506H1017.89C1017.75 37.7113 1017.57 37.9027 1017.37 38.08C1017.16 38.248 1016.92 38.3833 1016.64 38.486C1016.36 38.5887 1016.03 38.64 1015.65 38.64ZM1016.18 37.212C1016.83 37.212 1017.29 37.0253 1017.56 36.652C1017.83 36.2787 1017.97 35.714 1017.97 34.958V34.734C1017.97 33.9127 1017.84 33.2873 1017.58 32.858C1017.33 32.4287 1016.85 32.214 1016.15 32.214C1015.62 32.214 1015.21 32.438 1014.92 32.886C1014.63 33.3247 1014.48 33.9453 1014.48 34.748C1014.48 35.5507 1014.63 36.162 1014.92 36.582C1015.21 37.002 1015.63 37.212 1016.18 37.212ZM1024.93 30.772C1025.91 30.772 1026.65 30.9867 1027.15 31.416C1027.67 31.836 1027.92 32.4987 1027.92 33.404V38.5H1026.68L1026.33 37.45H1026.27C1026.06 37.7207 1025.83 37.9493 1025.6 38.136C1025.38 38.3133 1025.11 38.4393 1024.82 38.514C1024.53 38.598 1024.17 38.64 1023.75 38.64C1023.3 38.64 1022.9 38.556 1022.53 38.388C1022.18 38.22 1021.9 37.9633 1021.69 37.618C1021.49 37.2633 1021.39 36.82 1021.39 36.288C1021.39 35.504 1021.67 34.916 1022.24 34.524C1022.82 34.1227 1023.69 33.9033 1024.86 33.866L1026.17 33.824V33.446C1026.17 32.9607 1026.06 32.6153 1025.82 32.41C1025.59 32.2047 1025.26 32.102 1024.84 32.102C1024.46 32.102 1024.09 32.158 1023.74 32.27C1023.38 32.382 1023.04 32.5127 1022.7 32.662L1022.14 31.43C1022.51 31.234 1022.94 31.0753 1023.42 30.954C1023.9 30.8327 1024.4 30.772 1024.93 30.772ZM1025.25 34.944C1024.47 34.972 1023.94 35.1073 1023.64 35.35C1023.34 35.5833 1023.19 35.9007 1023.19 36.302C1023.19 36.6567 1023.3 36.9133 1023.51 37.072C1023.73 37.2307 1024 37.31 1024.34 37.31C1024.85 37.31 1025.29 37.1653 1025.64 36.876C1026 36.5773 1026.17 36.1387 1026.17 35.56V34.916L1025.25 34.944Z" fill="#0F0000"/>
</svg>
