<svg width="430" height="32" viewBox="0 0 430 32" fill="none" xmlns="http://www.w3.org/2000/svg">
<path d="M214 0V32H216V0H214Z" fill="#CFC9C9" mask="url(#path-1-inside-1_651_5652)"/>
<path d="M29.84 22H27.424V12.592H24.32V10.576H32.944V12.592H29.84V22ZM41.3246 17.616C41.3246 18.3413 41.2233 18.9867 41.0206 19.552C40.8286 20.1173 40.546 20.5973 40.1726 20.992C39.81 21.376 39.3673 21.6693 38.8446 21.872C38.322 22.064 37.73 22.16 37.0686 22.16C36.4606 22.16 35.8953 22.064 35.3726 21.872C34.8606 21.6693 34.418 21.376 34.0446 20.992C33.6713 20.5973 33.378 20.1173 33.1646 19.552C32.962 18.9867 32.8606 18.3413 32.8606 17.616C32.8606 16.6453 33.0313 15.8293 33.3726 15.168C33.714 14.496 34.2046 13.984 34.8446 13.632C35.4846 13.28 36.242 13.104 37.1166 13.104C37.938 13.104 38.6633 13.28 39.2926 13.632C39.922 13.984 40.418 14.496 40.7806 15.168C41.1433 15.8293 41.3246 16.6453 41.3246 17.616ZM35.2926 17.616C35.2926 18.192 35.3513 18.6773 35.4686 19.072C35.5966 19.456 35.794 19.7493 36.0606 19.952C36.3273 20.144 36.674 20.24 37.1006 20.24C37.5273 20.24 37.8686 20.144 38.1246 19.952C38.3913 19.7493 38.5833 19.456 38.7006 19.072C38.8286 18.6773 38.8926 18.192 38.8926 17.616C38.8926 17.04 38.8286 16.56 38.7006 16.176C38.5833 15.792 38.3913 15.504 38.1246 15.312C37.858 15.12 37.5113 15.024 37.0846 15.024C36.4553 15.024 35.9966 15.2427 35.7086 15.68C35.4313 16.1067 35.2926 16.752 35.2926 17.616ZM46.0629 22.16C45.0922 22.16 44.2975 21.7813 43.6789 21.024C43.0709 20.256 42.7669 19.1307 42.7669 17.648C42.7669 16.1547 43.0762 15.024 43.6949 14.256C44.3135 13.488 45.1242 13.104 46.1269 13.104C46.5429 13.104 46.9109 13.1627 47.2309 13.28C47.5509 13.3867 47.8229 13.536 48.0469 13.728C48.2815 13.92 48.4789 14.1387 48.6389 14.384H48.7189C48.6869 14.2133 48.6495 13.968 48.6069 13.648C48.5642 13.3173 48.5429 12.9813 48.5429 12.64V9.84H50.9269V22H49.1029L48.6389 20.864H48.5429C48.3935 21.0987 48.2015 21.3173 47.9669 21.52C47.7429 21.712 47.4762 21.8667 47.1669 21.984C46.8575 22.1013 46.4895 22.16 46.0629 22.16ZM46.8949 20.256C47.5562 20.256 48.0202 20.064 48.2869 19.68C48.5535 19.2853 48.6922 18.6987 48.7029 17.92V17.664C48.7029 16.8107 48.5695 16.16 48.3029 15.712C48.0469 15.264 47.5669 15.04 46.8629 15.04C46.3402 15.04 45.9295 15.2693 45.6309 15.728C45.3322 16.176 45.1829 16.8267 45.1829 17.68C45.1829 18.5333 45.3322 19.1787 45.6309 19.616C45.9295 20.0427 46.3509 20.256 46.8949 20.256ZM57.0039 13.088C58.1772 13.088 59.0732 13.344 59.6919 13.856C60.3212 14.3573 60.6359 15.1307 60.6359 16.176V22H58.9719L58.5079 20.816H58.4439C58.1985 21.1253 57.9425 21.3813 57.6759 21.584C57.4199 21.7867 57.1212 21.9307 56.7799 22.016C56.4492 22.112 56.0385 22.16 55.5479 22.16C55.0359 22.16 54.5719 22.064 54.1559 21.872C53.7505 21.6693 53.4305 21.3653 53.1959 20.96C52.9612 20.544 52.8439 20.0213 52.8439 19.392C52.8439 18.464 53.1692 17.7813 53.8199 17.344C54.4705 16.896 55.4465 16.6507 56.7479 16.608L58.2679 16.56V16.176C58.2679 15.7173 58.1452 15.3813 57.8999 15.168C57.6652 14.9547 57.3345 14.848 56.9079 14.848C56.4812 14.848 56.0652 14.912 55.6599 15.04C55.2545 15.1573 54.8492 15.3067 54.4439 15.488L53.6599 13.872C54.1292 13.6267 54.6465 13.4347 55.2119 13.296C55.7879 13.1573 56.3852 13.088 57.0039 13.088ZM57.3399 17.984C56.5719 18.0053 56.0385 18.144 55.7399 18.4C55.4412 18.656 55.2919 18.992 55.2919 19.408C55.2919 19.7707 55.3985 20.032 55.6119 20.192C55.8252 20.3413 56.1025 20.416 56.4439 20.416C56.9559 20.416 57.3879 20.2667 57.7399 19.968C58.0919 19.6587 58.2679 19.2267 58.2679 18.672V17.952L57.3399 17.984ZM69.1721 19.408C69.1721 19.9947 69.0335 20.496 68.7561 20.912C68.4788 21.3173 68.0628 21.6267 67.5081 21.84C66.9535 22.0533 66.2655 22.16 65.4441 22.16C64.8361 22.16 64.3135 22.1173 63.8761 22.032C63.4388 21.9573 63.0015 21.8293 62.5641 21.648V19.68C63.0335 19.8933 63.5401 20.0693 64.0841 20.208C64.6281 20.3467 65.1081 20.416 65.5241 20.416C65.9935 20.416 66.3241 20.3467 66.5161 20.208C66.7188 20.0693 66.8201 19.888 66.8201 19.664C66.8201 19.5147 66.7775 19.3813 66.6921 19.264C66.6175 19.1467 66.4468 19.0133 66.1801 18.864C65.9135 18.7147 65.4975 18.5227 64.9321 18.288C64.3881 18.0533 63.9401 17.824 63.5881 17.6C63.2361 17.3653 62.9748 17.088 62.8041 16.768C62.6335 16.4373 62.5481 16.0267 62.5481 15.536C62.5481 14.7253 62.8628 14.1173 63.4921 13.712C64.1215 13.3067 64.9588 13.104 66.0041 13.104C66.5481 13.104 67.0655 13.1573 67.5561 13.264C68.0468 13.3707 68.5535 13.5467 69.0761 13.792L68.3561 15.504C68.0681 15.376 67.7908 15.264 67.5241 15.168C67.2575 15.072 66.9961 14.9973 66.7401 14.944C66.4948 14.8907 66.2388 14.864 65.9721 14.864C65.6201 14.864 65.3535 14.912 65.1721 15.008C65.0015 15.104 64.9161 15.248 64.9161 15.44C64.9161 15.5787 64.9588 15.7067 65.0441 15.824C65.1401 15.9307 65.3161 16.048 65.5721 16.176C65.8388 16.304 66.2281 16.4747 66.7401 16.688C67.2415 16.8907 67.6735 17.104 68.0361 17.328C68.3988 17.5413 68.6761 17.8133 68.8681 18.144C69.0708 18.464 69.1721 18.8853 69.1721 19.408ZM77.5695 22H75.1855V9.84H77.5695V22ZM83.6445 13.088C84.8178 13.088 85.7138 13.344 86.3325 13.856C86.9618 14.3573 87.2765 15.1307 87.2765 16.176V22H85.6125L85.1485 20.816H85.0845C84.8392 21.1253 84.5832 21.3813 84.3165 21.584C84.0605 21.7867 83.7618 21.9307 83.4205 22.016C83.0898 22.112 82.6792 22.16 82.1885 22.16C81.6765 22.16 81.2125 22.064 80.7965 21.872C80.3912 21.6693 80.0712 21.3653 79.8365 20.96C79.6018 20.544 79.4845 20.0213 79.4845 19.392C79.4845 18.464 79.8098 17.7813 80.4605 17.344C81.1112 16.896 82.0872 16.6507 83.3885 16.608L84.9085 16.56V16.176C84.9085 15.7173 84.7858 15.3813 84.5405 15.168C84.3058 14.9547 83.9752 14.848 83.5485 14.848C83.1218 14.848 82.7058 14.912 82.3005 15.04C81.8952 15.1573 81.4898 15.3067 81.0845 15.488L80.3005 13.872C80.7698 13.6267 81.2872 13.4347 81.8525 13.296C82.4285 13.1573 83.0258 13.088 83.6445 13.088ZM83.9805 17.984C83.2125 18.0053 82.6792 18.144 82.3805 18.4C82.0818 18.656 81.9325 18.992 81.9325 19.408C81.9325 19.7707 82.0392 20.032 82.2525 20.192C82.4658 20.3413 82.7432 20.416 83.0845 20.416C83.5965 20.416 84.0285 20.2667 84.3805 19.968C84.7325 19.6587 84.9085 19.2267 84.9085 18.672V17.952L83.9805 17.984ZM95.8128 19.408C95.8128 19.9947 95.6741 20.496 95.3968 20.912C95.1194 21.3173 94.7034 21.6267 94.1488 21.84C93.5941 22.0533 92.9061 22.16 92.0848 22.16C91.4768 22.16 90.9541 22.1173 90.5168 22.032C90.0794 21.9573 89.6421 21.8293 89.2048 21.648V19.68C89.6741 19.8933 90.1808 20.0693 90.7248 20.208C91.2688 20.3467 91.7488 20.416 92.1648 20.416C92.6341 20.416 92.9648 20.3467 93.1568 20.208C93.3594 20.0693 93.4608 19.888 93.4608 19.664C93.4608 19.5147 93.4181 19.3813 93.3328 19.264C93.2581 19.1467 93.0874 19.0133 92.8208 18.864C92.5541 18.7147 92.1381 18.5227 91.5728 18.288C91.0288 18.0533 90.5808 17.824 90.2288 17.6C89.8768 17.3653 89.6154 17.088 89.4448 16.768C89.2741 16.4373 89.1888 16.0267 89.1888 15.536C89.1888 14.7253 89.5034 14.1173 90.1328 13.712C90.7621 13.3067 91.5994 13.104 92.6448 13.104C93.1888 13.104 93.7061 13.1573 94.1968 13.264C94.6874 13.3707 95.1941 13.5467 95.7168 13.792L94.9968 15.504C94.7088 15.376 94.4314 15.264 94.1648 15.168C93.8981 15.072 93.6368 14.9973 93.3808 14.944C93.1354 14.8907 92.8794 14.864 92.6128 14.864C92.2608 14.864 91.9941 14.912 91.8128 15.008C91.6421 15.104 91.5568 15.248 91.5568 15.44C91.5568 15.5787 91.5994 15.7067 91.6848 15.824C91.7808 15.9307 91.9568 16.048 92.2128 16.176C92.4794 16.304 92.8688 16.4747 93.3808 16.688C93.8821 16.8907 94.3141 17.104 94.6768 17.328C95.0394 17.5413 95.3168 17.8133 95.5088 18.144C95.7114 18.464 95.8128 18.8853 95.8128 19.408ZM106.69 13.104C107.671 13.104 108.466 13.488 109.074 14.256C109.682 15.0133 109.986 16.1333 109.986 17.616C109.986 18.608 109.842 19.4453 109.554 20.128C109.266 20.8 108.871 21.3067 108.37 21.648C107.869 21.9893 107.287 22.16 106.626 22.16C106.21 22.16 105.847 22.1067 105.538 22C105.239 21.8933 104.983 21.7547 104.77 21.584C104.557 21.4133 104.37 21.232 104.21 21.04H104.082C104.125 21.2427 104.157 21.456 104.178 21.68C104.199 21.8933 104.21 22.1067 104.21 22.32V25.84H101.826V13.264H103.762L104.098 14.4H104.21C104.37 14.1653 104.562 13.952 104.786 13.76C105.01 13.5573 105.277 13.3973 105.586 13.28C105.906 13.1627 106.274 13.104 106.69 13.104ZM105.922 15.008C105.506 15.008 105.175 15.0933 104.93 15.264C104.685 15.4347 104.503 15.696 104.386 16.048C104.279 16.3893 104.221 16.8213 104.21 17.344V17.6C104.21 18.1653 104.263 18.6453 104.37 19.04C104.477 19.424 104.658 19.7173 104.914 19.92C105.17 20.1227 105.517 20.224 105.954 20.224C106.317 20.224 106.615 20.1227 106.85 19.92C107.085 19.7173 107.261 19.4187 107.378 19.024C107.495 18.6293 107.554 18.1493 107.554 17.584C107.554 16.7307 107.421 16.0907 107.154 15.664C106.898 15.2267 106.487 15.008 105.922 15.008ZM116.831 13.104C116.948 13.104 117.087 13.1093 117.247 13.12C117.407 13.1307 117.535 13.1467 117.631 13.168L117.455 15.408C117.38 15.3867 117.268 15.3707 117.119 15.36C116.98 15.3387 116.858 15.328 116.751 15.328C116.442 15.328 116.143 15.3707 115.855 15.456C115.567 15.5307 115.306 15.6533 115.071 15.824C114.847 15.9947 114.666 16.224 114.527 16.512C114.399 16.7893 114.335 17.136 114.335 17.552V22H111.951V13.264H113.759L114.111 14.736H114.223C114.394 14.4373 114.607 14.1653 114.863 13.92C115.119 13.6747 115.412 13.4773 115.743 13.328C116.084 13.1787 116.447 13.104 116.831 13.104ZM126.84 17.616C126.84 18.3413 126.739 18.9867 126.536 19.552C126.344 20.1173 126.062 20.5973 125.688 20.992C125.326 21.376 124.883 21.6693 124.36 21.872C123.838 22.064 123.246 22.16 122.584 22.16C121.976 22.16 121.411 22.064 120.888 21.872C120.376 21.6693 119.934 21.376 119.56 20.992C119.187 20.5973 118.894 20.1173 118.68 19.552C118.478 18.9867 118.376 18.3413 118.376 17.616C118.376 16.6453 118.547 15.8293 118.888 15.168C119.23 14.496 119.72 13.984 120.36 13.632C121 13.28 121.758 13.104 122.632 13.104C123.454 13.104 124.179 13.28 124.808 13.632C125.438 13.984 125.934 14.496 126.296 15.168C126.659 15.8293 126.84 16.6453 126.84 17.616ZM120.808 17.616C120.808 18.192 120.867 18.6773 120.984 19.072C121.112 19.456 121.31 19.7493 121.576 19.952C121.843 20.144 122.19 20.24 122.616 20.24C123.043 20.24 123.384 20.144 123.64 19.952C123.907 19.7493 124.099 19.456 124.216 19.072C124.344 18.6773 124.408 18.192 124.408 17.616C124.408 17.04 124.344 16.56 124.216 16.176C124.099 15.792 123.907 15.504 123.64 15.312C123.374 15.12 123.027 15.024 122.6 15.024C121.971 15.024 121.512 15.2427 121.224 15.68C120.947 16.1067 120.808 16.752 120.808 17.616ZM133.675 13.104C134.656 13.104 135.451 13.488 136.059 14.256C136.667 15.0133 136.97 16.1333 136.97 17.616C136.97 18.608 136.827 19.4453 136.539 20.128C136.251 20.8 135.856 21.3067 135.355 21.648C134.853 21.9893 134.272 22.16 133.611 22.16C133.195 22.16 132.832 22.1067 132.523 22C132.224 21.8933 131.968 21.7547 131.755 21.584C131.541 21.4133 131.355 21.232 131.195 21.04H131.067C131.109 21.2427 131.141 21.456 131.163 21.68C131.184 21.8933 131.195 22.1067 131.195 22.32V25.84H128.811V13.264H130.747L131.083 14.4H131.195C131.355 14.1653 131.547 13.952 131.771 13.76C131.995 13.5573 132.261 13.3973 132.571 13.28C132.891 13.1627 133.259 13.104 133.675 13.104ZM132.907 15.008C132.491 15.008 132.16 15.0933 131.915 15.264C131.669 15.4347 131.488 15.696 131.371 16.048C131.264 16.3893 131.205 16.8213 131.195 17.344V17.6C131.195 18.1653 131.248 18.6453 131.355 19.04C131.461 19.424 131.643 19.7173 131.899 19.92C132.155 20.1227 132.501 20.224 132.939 20.224C133.301 20.224 133.6 20.1227 133.835 19.92C134.069 19.7173 134.245 19.4187 134.363 19.024C134.48 18.6293 134.539 18.1493 134.539 17.584C134.539 16.7307 134.405 16.0907 134.139 15.664C133.883 15.2267 133.472 15.008 132.907 15.008ZM146.952 13.264V22H145.128L144.808 20.88H144.68C144.498 21.1787 144.264 21.424 143.976 21.616C143.698 21.7973 143.389 21.9307 143.048 22.016C142.706 22.112 142.354 22.16 141.992 22.16C141.373 22.16 140.829 22.048 140.36 21.824C139.89 21.6 139.528 21.2533 139.272 20.784C139.016 20.3147 138.888 19.7067 138.888 18.96V13.264H141.272V18.368C141.272 18.9867 141.384 19.456 141.608 19.776C141.832 20.096 142.189 20.256 142.68 20.256C143.17 20.256 143.549 20.144 143.816 19.92C144.093 19.696 144.285 19.3707 144.392 18.944C144.509 18.5173 144.568 17.9947 144.568 17.376V13.264H146.952ZM153.051 13.104C153.862 13.104 154.555 13.2587 155.131 13.568C155.718 13.8773 156.171 14.3253 156.491 14.912C156.811 15.4987 156.971 16.2187 156.971 17.072V18.224H151.339C151.36 18.896 151.558 19.424 151.931 19.808C152.315 20.192 152.843 20.384 153.515 20.384C154.08 20.384 154.592 20.3307 155.051 20.224C155.51 20.1067 155.984 19.9307 156.475 19.696V21.536C156.048 21.7493 155.595 21.904 155.115 22C154.646 22.1067 154.075 22.16 153.403 22.16C152.528 22.16 151.755 22 151.083 21.68C150.411 21.3493 149.883 20.8533 149.499 20.192C149.115 19.5307 148.923 18.6987 148.923 17.696C148.923 16.672 149.094 15.824 149.435 15.152C149.787 14.4693 150.272 13.9573 150.891 13.616C151.51 13.2747 152.23 13.104 153.051 13.104ZM153.067 14.8C152.608 14.8 152.224 14.9493 151.915 15.248C151.616 15.5467 151.44 16.0107 151.387 16.64H154.731C154.731 16.288 154.667 15.9733 154.539 15.696C154.422 15.4187 154.24 15.2 153.995 15.04C153.75 14.88 153.44 14.8 153.067 14.8ZM165 19.408C165 19.9947 164.862 20.496 164.584 20.912C164.307 21.3173 163.891 21.6267 163.336 21.84C162.782 22.0533 162.094 22.16 161.272 22.16C160.664 22.16 160.142 22.1173 159.704 22.032C159.267 21.9573 158.83 21.8293 158.392 21.648V19.68C158.862 19.8933 159.368 20.0693 159.912 20.208C160.456 20.3467 160.936 20.416 161.352 20.416C161.822 20.416 162.152 20.3467 162.344 20.208C162.547 20.0693 162.648 19.888 162.648 19.664C162.648 19.5147 162.606 19.3813 162.52 19.264C162.446 19.1467 162.275 19.0133 162.008 18.864C161.742 18.7147 161.326 18.5227 160.76 18.288C160.216 18.0533 159.768 17.824 159.416 17.6C159.064 17.3653 158.803 17.088 158.632 16.768C158.462 16.4373 158.376 16.0267 158.376 15.536C158.376 14.7253 158.691 14.1173 159.32 13.712C159.95 13.3067 160.787 13.104 161.832 13.104C162.376 13.104 162.894 13.1573 163.384 13.264C163.875 13.3707 164.382 13.5467 164.904 13.792L164.184 15.504C163.896 15.376 163.619 15.264 163.352 15.168C163.086 15.072 162.824 14.9973 162.568 14.944C162.323 14.8907 162.067 14.864 161.8 14.864C161.448 14.864 161.182 14.912 161 15.008C160.83 15.104 160.744 15.248 160.744 15.44C160.744 15.5787 160.787 15.7067 160.872 15.824C160.968 15.9307 161.144 16.048 161.4 16.176C161.667 16.304 162.056 16.4747 162.568 16.688C163.07 16.8907 163.502 17.104 163.864 17.328C164.227 17.5413 164.504 17.8133 164.696 18.144C164.899 18.464 165 18.8853 165 19.408ZM170.537 20.256C170.804 20.256 171.06 20.2293 171.305 20.176C171.551 20.1227 171.796 20.0587 172.041 19.984V21.76C171.785 21.8667 171.465 21.9573 171.081 22.032C170.708 22.1173 170.297 22.16 169.849 22.16C169.327 22.16 168.857 22.0747 168.441 21.904C168.036 21.7333 167.711 21.44 167.465 21.024C167.231 20.5973 167.113 20.0107 167.113 19.264V15.056H165.977V14.048L167.289 13.248L167.977 11.408H169.497V13.264H171.945V15.056H169.497V19.264C169.497 19.5947 169.593 19.8453 169.785 20.016C169.977 20.176 170.228 20.256 170.537 20.256ZM177.379 13.088C178.552 13.088 179.448 13.344 180.067 13.856C180.696 14.3573 181.011 15.1307 181.011 16.176V22H179.347L178.883 20.816H178.819C178.574 21.1253 178.318 21.3813 178.051 21.584C177.795 21.7867 177.496 21.9307 177.155 22.016C176.824 22.112 176.414 22.16 175.923 22.16C175.411 22.16 174.947 22.064 174.531 21.872C174.126 21.6693 173.806 21.3653 173.571 20.96C173.336 20.544 173.219 20.0213 173.219 19.392C173.219 18.464 173.544 17.7813 174.195 17.344C174.846 16.896 175.822 16.6507 177.123 16.608L178.643 16.56V16.176C178.643 15.7173 178.52 15.3813 178.275 15.168C178.04 14.9547 177.71 14.848 177.283 14.848C176.856 14.848 176.44 14.912 176.035 15.04C175.63 15.1573 175.224 15.3067 174.819 15.488L174.035 13.872C174.504 13.6267 175.022 13.4347 175.587 13.296C176.163 13.1573 176.76 13.088 177.379 13.088ZM177.715 17.984C176.947 18.0053 176.414 18.144 176.115 18.4C175.816 18.656 175.667 18.992 175.667 19.408C175.667 19.7707 175.774 20.032 175.987 20.192C176.2 20.3413 176.478 20.416 176.819 20.416C177.331 20.416 177.763 20.2667 178.115 19.968C178.467 19.6587 178.643 19.2267 178.643 18.672V17.952L177.715 17.984ZM189.547 19.408C189.547 19.9947 189.408 20.496 189.131 20.912C188.854 21.3173 188.438 21.6267 187.883 21.84C187.328 22.0533 186.64 22.16 185.819 22.16C185.211 22.16 184.688 22.1173 184.251 22.032C183.814 21.9573 183.376 21.8293 182.939 21.648V19.68C183.408 19.8933 183.915 20.0693 184.459 20.208C185.003 20.3467 185.483 20.416 185.899 20.416C186.368 20.416 186.699 20.3467 186.891 20.208C187.094 20.0693 187.195 19.888 187.195 19.664C187.195 19.5147 187.152 19.3813 187.067 19.264C186.992 19.1467 186.822 19.0133 186.555 18.864C186.288 18.7147 185.872 18.5227 185.307 18.288C184.763 18.0533 184.315 17.824 183.963 17.6C183.611 17.3653 183.35 17.088 183.179 16.768C183.008 16.4373 182.923 16.0267 182.923 15.536C182.923 14.7253 183.238 14.1173 183.867 13.712C184.496 13.3067 185.334 13.104 186.379 13.104C186.923 13.104 187.44 13.1573 187.931 13.264C188.422 13.3707 188.928 13.5467 189.451 13.792L188.731 15.504C188.443 15.376 188.166 15.264 187.899 15.168C187.632 15.072 187.371 14.9973 187.115 14.944C186.87 14.8907 186.614 14.864 186.347 14.864C185.995 14.864 185.728 14.912 185.547 15.008C185.376 15.104 185.291 15.248 185.291 15.44C185.291 15.5787 185.334 15.7067 185.419 15.824C185.515 15.9307 185.691 16.048 185.947 16.176C186.214 16.304 186.603 16.4747 187.115 16.688C187.616 16.8907 188.048 17.104 188.411 17.328C188.774 17.5413 189.051 17.8133 189.243 18.144C189.446 18.464 189.547 18.8853 189.547 19.408Z" fill="#C10000"/>
<path d="M245.272 22L242.52 13.04H242.456C242.467 13.2533 242.483 13.5733 242.504 14C242.525 14.4267 242.547 14.8853 242.568 15.376C242.589 15.856 242.6 16.2933 242.6 16.688V22H240.44V10.576H243.736L246.44 19.312H246.488L249.352 10.576H252.648V22H250.392V16.592C250.392 16.2293 250.397 15.8133 250.408 15.344C250.429 14.8747 250.445 14.432 250.456 14.016C250.477 13.5893 250.493 13.2693 250.504 13.056H250.44L247.496 22H245.272ZM257.726 13.264V22H255.342V13.264H257.726ZM256.542 9.84C256.894 9.84 257.198 9.92533 257.454 10.096C257.71 10.256 257.838 10.56 257.838 11.008C257.838 11.4453 257.71 11.7493 257.454 11.92C257.198 12.0907 256.894 12.176 256.542 12.176C256.179 12.176 255.87 12.0907 255.614 11.92C255.368 11.7493 255.246 11.4453 255.246 11.008C255.246 10.56 255.368 10.256 255.614 10.096C255.87 9.92533 256.179 9.84 256.542 9.84ZM266.313 19.408C266.313 19.9947 266.174 20.496 265.897 20.912C265.619 21.3173 265.203 21.6267 264.649 21.84C264.094 22.0533 263.406 22.16 262.585 22.16C261.977 22.16 261.454 22.1173 261.017 22.032C260.579 21.9573 260.142 21.8293 259.705 21.648V19.68C260.174 19.8933 260.681 20.0693 261.225 20.208C261.769 20.3467 262.249 20.416 262.665 20.416C263.134 20.416 263.465 20.3467 263.657 20.208C263.859 20.0693 263.961 19.888 263.961 19.664C263.961 19.5147 263.918 19.3813 263.833 19.264C263.758 19.1467 263.587 19.0133 263.321 18.864C263.054 18.7147 262.638 18.5227 262.073 18.288C261.529 18.0533 261.081 17.824 260.729 17.6C260.377 17.3653 260.115 17.088 259.945 16.768C259.774 16.4373 259.689 16.0267 259.689 15.536C259.689 14.7253 260.003 14.1173 260.633 13.712C261.262 13.3067 262.099 13.104 263.145 13.104C263.689 13.104 264.206 13.1573 264.697 13.264C265.187 13.3707 265.694 13.5467 266.217 13.792L265.497 15.504C265.209 15.376 264.931 15.264 264.665 15.168C264.398 15.072 264.137 14.9973 263.881 14.944C263.635 14.8907 263.379 14.864 263.113 14.864C262.761 14.864 262.494 14.912 262.313 15.008C262.142 15.104 262.057 15.248 262.057 15.44C262.057 15.5787 262.099 15.7067 262.185 15.824C262.281 15.9307 262.457 16.048 262.713 16.176C262.979 16.304 263.369 16.4747 263.881 16.688C264.382 16.8907 264.814 17.104 265.177 17.328C265.539 17.5413 265.817 17.8133 266.009 18.144C266.211 18.464 266.313 18.8853 266.313 19.408ZM277.19 13.104C278.171 13.104 278.966 13.488 279.574 14.256C280.182 15.0133 280.486 16.1333 280.486 17.616C280.486 18.608 280.342 19.4453 280.054 20.128C279.766 20.8 279.371 21.3067 278.87 21.648C278.369 21.9893 277.787 22.16 277.126 22.16C276.71 22.16 276.347 22.1067 276.038 22C275.739 21.8933 275.483 21.7547 275.27 21.584C275.057 21.4133 274.87 21.232 274.71 21.04H274.582C274.625 21.2427 274.657 21.456 274.678 21.68C274.699 21.8933 274.71 22.1067 274.71 22.32V25.84H272.326V13.264H274.262L274.598 14.4H274.71C274.87 14.1653 275.062 13.952 275.286 13.76C275.51 13.5573 275.777 13.3973 276.086 13.28C276.406 13.1627 276.774 13.104 277.19 13.104ZM276.422 15.008C276.006 15.008 275.675 15.0933 275.43 15.264C275.185 15.4347 275.003 15.696 274.886 16.048C274.779 16.3893 274.721 16.8213 274.71 17.344V17.6C274.71 18.1653 274.763 18.6453 274.87 19.04C274.977 19.424 275.158 19.7173 275.414 19.92C275.67 20.1227 276.017 20.224 276.454 20.224C276.817 20.224 277.115 20.1227 277.35 19.92C277.585 19.7173 277.761 19.4187 277.878 19.024C277.995 18.6293 278.054 18.1493 278.054 17.584C278.054 16.7307 277.921 16.0907 277.654 15.664C277.398 15.2267 276.987 15.008 276.422 15.008ZM287.331 13.104C287.448 13.104 287.587 13.1093 287.747 13.12C287.907 13.1307 288.035 13.1467 288.131 13.168L287.955 15.408C287.88 15.3867 287.768 15.3707 287.619 15.36C287.48 15.3387 287.358 15.328 287.251 15.328C286.942 15.328 286.643 15.3707 286.355 15.456C286.067 15.5307 285.806 15.6533 285.571 15.824C285.347 15.9947 285.166 16.224 285.027 16.512C284.899 16.7893 284.835 17.136 284.835 17.552V22H282.451V13.264H284.259L284.611 14.736H284.723C284.894 14.4373 285.107 14.1653 285.363 13.92C285.619 13.6747 285.912 13.4773 286.243 13.328C286.584 13.1787 286.947 13.104 287.331 13.104ZM297.34 17.616C297.34 18.3413 297.239 18.9867 297.036 19.552C296.844 20.1173 296.562 20.5973 296.188 20.992C295.826 21.376 295.383 21.6693 294.86 21.872C294.338 22.064 293.746 22.16 293.084 22.16C292.476 22.16 291.911 22.064 291.388 21.872C290.876 21.6693 290.434 21.376 290.06 20.992C289.687 20.5973 289.394 20.1173 289.18 19.552C288.978 18.9867 288.876 18.3413 288.876 17.616C288.876 16.6453 289.047 15.8293 289.388 15.168C289.73 14.496 290.22 13.984 290.86 13.632C291.5 13.28 292.258 13.104 293.132 13.104C293.954 13.104 294.679 13.28 295.308 13.632C295.938 13.984 296.434 14.496 296.796 15.168C297.159 15.8293 297.34 16.6453 297.34 17.616ZM291.308 17.616C291.308 18.192 291.367 18.6773 291.484 19.072C291.612 19.456 291.81 19.7493 292.076 19.952C292.343 20.144 292.69 20.24 293.116 20.24C293.543 20.24 293.884 20.144 294.14 19.952C294.407 19.7493 294.599 19.456 294.716 19.072C294.844 18.6773 294.908 18.192 294.908 17.616C294.908 17.04 294.844 16.56 294.716 16.176C294.599 15.792 294.407 15.504 294.14 15.312C293.874 15.12 293.527 15.024 293.1 15.024C292.471 15.024 292.012 15.2427 291.724 15.68C291.447 16.1067 291.308 16.752 291.308 17.616ZM304.175 13.104C305.156 13.104 305.951 13.488 306.559 14.256C307.167 15.0133 307.47 16.1333 307.47 17.616C307.47 18.608 307.327 19.4453 307.039 20.128C306.751 20.8 306.356 21.3067 305.855 21.648C305.353 21.9893 304.772 22.16 304.111 22.16C303.695 22.16 303.332 22.1067 303.023 22C302.724 21.8933 302.468 21.7547 302.255 21.584C302.041 21.4133 301.855 21.232 301.695 21.04H301.567C301.609 21.2427 301.641 21.456 301.663 21.68C301.684 21.8933 301.695 22.1067 301.695 22.32V25.84H299.311V13.264H301.247L301.583 14.4H301.695C301.855 14.1653 302.047 13.952 302.271 13.76C302.495 13.5573 302.761 13.3973 303.071 13.28C303.391 13.1627 303.759 13.104 304.175 13.104ZM303.407 15.008C302.991 15.008 302.66 15.0933 302.415 15.264C302.169 15.4347 301.988 15.696 301.871 16.048C301.764 16.3893 301.705 16.8213 301.695 17.344V17.6C301.695 18.1653 301.748 18.6453 301.855 19.04C301.961 19.424 302.143 19.7173 302.399 19.92C302.655 20.1227 303.001 20.224 303.439 20.224C303.801 20.224 304.1 20.1227 304.335 19.92C304.569 19.7173 304.745 19.4187 304.863 19.024C304.98 18.6293 305.039 18.1493 305.039 17.584C305.039 16.7307 304.905 16.0907 304.639 15.664C304.383 15.2267 303.972 15.008 303.407 15.008ZM317.452 13.264V22H315.628L315.308 20.88H315.18C314.998 21.1787 314.764 21.424 314.476 21.616C314.198 21.7973 313.889 21.9307 313.548 22.016C313.206 22.112 312.854 22.16 312.492 22.16C311.873 22.16 311.329 22.048 310.86 21.824C310.39 21.6 310.028 21.2533 309.772 20.784C309.516 20.3147 309.388 19.7067 309.388 18.96V13.264H311.772V18.368C311.772 18.9867 311.884 19.456 312.108 19.776C312.332 20.096 312.689 20.256 313.18 20.256C313.67 20.256 314.049 20.144 314.316 19.92C314.593 19.696 314.785 19.3707 314.892 18.944C315.009 18.5173 315.068 17.9947 315.068 17.376V13.264H317.452ZM323.551 13.104C324.362 13.104 325.055 13.2587 325.631 13.568C326.218 13.8773 326.671 14.3253 326.991 14.912C327.311 15.4987 327.471 16.2187 327.471 17.072V18.224H321.839C321.86 18.896 322.058 19.424 322.431 19.808C322.815 20.192 323.343 20.384 324.015 20.384C324.58 20.384 325.092 20.3307 325.551 20.224C326.01 20.1067 326.484 19.9307 326.975 19.696V21.536C326.548 21.7493 326.095 21.904 325.615 22C325.146 22.1067 324.575 22.16 323.903 22.16C323.028 22.16 322.255 22 321.583 21.68C320.911 21.3493 320.383 20.8533 319.999 20.192C319.615 19.5307 319.423 18.6987 319.423 17.696C319.423 16.672 319.594 15.824 319.935 15.152C320.287 14.4693 320.772 13.9573 321.391 13.616C322.01 13.2747 322.73 13.104 323.551 13.104ZM323.567 14.8C323.108 14.8 322.724 14.9493 322.415 15.248C322.116 15.5467 321.94 16.0107 321.887 16.64H325.231C325.231 16.288 325.167 15.9733 325.039 15.696C324.922 15.4187 324.74 15.2 324.495 15.04C324.25 14.88 323.94 14.8 323.567 14.8ZM335.5 19.408C335.5 19.9947 335.362 20.496 335.084 20.912C334.807 21.3173 334.391 21.6267 333.836 21.84C333.282 22.0533 332.594 22.16 331.772 22.16C331.164 22.16 330.642 22.1173 330.204 22.032C329.767 21.9573 329.33 21.8293 328.892 21.648V19.68C329.362 19.8933 329.868 20.0693 330.412 20.208C330.956 20.3467 331.436 20.416 331.852 20.416C332.322 20.416 332.652 20.3467 332.844 20.208C333.047 20.0693 333.148 19.888 333.148 19.664C333.148 19.5147 333.106 19.3813 333.02 19.264C332.946 19.1467 332.775 19.0133 332.508 18.864C332.242 18.7147 331.826 18.5227 331.26 18.288C330.716 18.0533 330.268 17.824 329.916 17.6C329.564 17.3653 329.303 17.088 329.132 16.768C328.962 16.4373 328.876 16.0267 328.876 15.536C328.876 14.7253 329.191 14.1173 329.82 13.712C330.45 13.3067 331.287 13.104 332.332 13.104C332.876 13.104 333.394 13.1573 333.884 13.264C334.375 13.3707 334.882 13.5467 335.404 13.792L334.684 15.504C334.396 15.376 334.119 15.264 333.852 15.168C333.586 15.072 333.324 14.9973 333.068 14.944C332.823 14.8907 332.567 14.864 332.3 14.864C331.948 14.864 331.682 14.912 331.5 15.008C331.33 15.104 331.244 15.248 331.244 15.44C331.244 15.5787 331.287 15.7067 331.372 15.824C331.468 15.9307 331.644 16.048 331.9 16.176C332.167 16.304 332.556 16.4747 333.068 16.688C333.57 16.8907 334.002 17.104 334.364 17.328C334.727 17.5413 335.004 17.8133 335.196 18.144C335.399 18.464 335.5 18.8853 335.5 19.408ZM341.037 20.256C341.304 20.256 341.56 20.2293 341.805 20.176C342.051 20.1227 342.296 20.0587 342.541 19.984V21.76C342.285 21.8667 341.965 21.9573 341.581 22.032C341.208 22.1173 340.797 22.16 340.349 22.16C339.827 22.16 339.357 22.0747 338.941 21.904C338.536 21.7333 338.211 21.44 337.965 21.024C337.731 20.5973 337.613 20.0107 337.613 19.264V15.056H336.477V14.048L337.789 13.248L338.477 11.408H339.997V13.264H342.445V15.056H339.997V19.264C339.997 19.5947 340.093 19.8453 340.285 20.016C340.477 20.176 340.728 20.256 341.037 20.256ZM347.879 13.088C349.052 13.088 349.948 13.344 350.567 13.856C351.196 14.3573 351.511 15.1307 351.511 16.176V22H349.847L349.383 20.816H349.319C349.074 21.1253 348.818 21.3813 348.551 21.584C348.295 21.7867 347.996 21.9307 347.655 22.016C347.324 22.112 346.914 22.16 346.423 22.16C345.911 22.16 345.447 22.064 345.031 21.872C344.626 21.6693 344.306 21.3653 344.071 20.96C343.836 20.544 343.719 20.0213 343.719 19.392C343.719 18.464 344.044 17.7813 344.695 17.344C345.346 16.896 346.322 16.6507 347.623 16.608L349.143 16.56V16.176C349.143 15.7173 349.02 15.3813 348.775 15.168C348.54 14.9547 348.21 14.848 347.783 14.848C347.356 14.848 346.94 14.912 346.535 15.04C346.13 15.1573 345.724 15.3067 345.319 15.488L344.535 13.872C345.004 13.6267 345.522 13.4347 346.087 13.296C346.663 13.1573 347.26 13.088 347.879 13.088ZM348.215 17.984C347.447 18.0053 346.914 18.144 346.615 18.4C346.316 18.656 346.167 18.992 346.167 19.408C346.167 19.7707 346.274 20.032 346.487 20.192C346.7 20.3413 346.978 20.416 347.319 20.416C347.831 20.416 348.263 20.2667 348.615 19.968C348.967 19.6587 349.143 19.2267 349.143 18.672V17.952L348.215 17.984ZM360.047 19.408C360.047 19.9947 359.908 20.496 359.631 20.912C359.354 21.3173 358.938 21.6267 358.383 21.84C357.828 22.0533 357.14 22.16 356.319 22.16C355.711 22.16 355.188 22.1173 354.751 22.032C354.314 21.9573 353.876 21.8293 353.439 21.648V19.68C353.908 19.8933 354.415 20.0693 354.959 20.208C355.503 20.3467 355.983 20.416 356.399 20.416C356.868 20.416 357.199 20.3467 357.391 20.208C357.594 20.0693 357.695 19.888 357.695 19.664C357.695 19.5147 357.652 19.3813 357.567 19.264C357.492 19.1467 357.322 19.0133 357.055 18.864C356.788 18.7147 356.372 18.5227 355.807 18.288C355.263 18.0533 354.815 17.824 354.463 17.6C354.111 17.3653 353.85 17.088 353.679 16.768C353.508 16.4373 353.423 16.0267 353.423 15.536C353.423 14.7253 353.738 14.1173 354.367 13.712C354.996 13.3067 355.834 13.104 356.879 13.104C357.423 13.104 357.94 13.1573 358.431 13.264C358.922 13.3707 359.428 13.5467 359.951 13.792L359.231 15.504C358.943 15.376 358.666 15.264 358.399 15.168C358.132 15.072 357.871 14.9973 357.615 14.944C357.37 14.8907 357.114 14.864 356.847 14.864C356.495 14.864 356.228 14.912 356.047 15.008C355.876 15.104 355.791 15.248 355.791 15.44C355.791 15.5787 355.834 15.7067 355.919 15.824C356.015 15.9307 356.191 16.048 356.447 16.176C356.714 16.304 357.103 16.4747 357.615 16.688C358.116 16.8907 358.548 17.104 358.911 17.328C359.274 17.5413 359.551 17.8133 359.743 18.144C359.946 18.464 360.047 18.8853 360.047 19.408Z" fill="#867979"/>
</svg>
