<svg width="40" height="40" viewBox="0 0 40 40" fill="none" xmlns="http://www.w3.org/2000/svg">
<rect x="1" y="1" width="38" height="38" rx="7" stroke="#C10000" stroke-width="2"/>
<path d="M27.6667 14.4444L26.7033 27.9356C26.6634 28.4962 26.4126 29.0209 26.0012 29.404C25.5899 29.787 25.0487 30 24.4867 30H15.2911C14.729 30 14.1879 29.787 13.7765 29.404C13.3652 29.0209 13.1144 28.4962 13.0744 27.9356L12.1111 14.4444M17.6667 18.8889V25.5556M22.1111 18.8889V25.5556M23.2222 14.4444V11.1111C23.2222 10.8164 23.1052 10.5338 22.8968 10.3254C22.6884 10.1171 22.4058 10 22.1111 10H17.6667C17.372 10 17.0894 10.1171 16.881 10.3254C16.6726 10.5338 16.5556 10.8164 16.5556 11.1111V14.4444M11 14.4444H28.7778" stroke="#C10000" stroke-width="2" stroke-linecap="round" stroke-linejoin="round"/>
</svg>
