<?xml version="1.0" encoding="UTF-8"?>
<svg id="Capa_1" data-name="Capa 1" xmlns="http://www.w3.org/2000/svg" viewBox="0 0 18.27 19.19">
  <defs>
    <style>
      .cls-1 {
        fill: #c1181b;
        stroke-width: 0px;
      }
    </style>
  </defs>
  <path class="cls-1" d="m18.27,3.44H7.38c-2.1,0-3.15.84-3.15,2.51,0,.71.24,1.23.72,1.55.46.36,1.08.53,1.84.53h5.31c1.03,0,1.95.07,2.75.21.73.16,1.48.59,2.26,1.3.77.7,1.16,2.01,1.16,3.91,0,.52-.04.99-.12,1.43-.08.44-.24.95-.48,1.54-.24.59-.65,1.1-1.23,1.55-.58.45-1.27.76-2.07.93-.73.2-1.67.29-2.83.29H.81v-3.45h10.09c1,0,1.77-.15,2.31-.44.54-.29.81-.85.81-1.67v-.4c-.05-.55-.2-.95-.43-1.2-.3-.27-.65-.45-1.03-.53-.38-.09-.84-.13-1.38-.13h-4.76c-2.05,0-3.64-.43-4.75-1.28-1.12-.85-1.67-2.29-1.67-4.3,0-1.01.17-1.92.51-2.72.34-.8.8-1.42,1.39-1.86.59-.44,1.27-.73,2.03-.92C4.63.11,5.56,0,6.73,0h0s11.53,0,11.53,0"/>
</svg>